<svg height="24" width="121" xmlns="http://www.w3.org/2000/svg" xmlns:xlink="http://www.w3.org/1999/xlink"><mask id="a" fill="#fff"><path d="m.017.052v5.655h4.123v-5.655z" fill="#fff" fill-rule="evenodd"/></mask><g fill="none" fill-rule="evenodd"><path d="m3.996 4.413a1.957 1.957 0 0 1 -.41.694 1.82 1.82 0 0 1 -.654.443 2.3 2.3 0 0 1 -.874.157c-.324 0-.614-.052-.87-.157a1.81 1.81 0 0 1 -.646-.44 1.901 1.901 0 0 1 -.402-.685 2.693 2.693 0 0 1 -.14-.888v-3.485h.55v3.413c0 .258.032.493.096.705.064.213.158.396.283.549.125.154.282.273.47.36.19.085.412.128.667.128.5 0 .879-.151 1.137-.456.258-.303.386-.721.386-1.254v-3.445h.551v3.445c0 .339-.048.644-.144.916" fill="#90918e" mask="url(#a)" transform="translate(0 16.771)"/><g fill="#666"><path d="m7.66 22.403v-2.63c0-.247-.058-.441-.172-.581s-.291-.21-.53-.21c-.203 0-.405.06-.607.178s-.407.28-.614.484v2.759h-.526v-3.816h.406l.088.565a3.37 3.37 0 0 1 .642-.464c.221-.121.46-.182.714-.182.378 0 .66.102.846.307.186.204.279.492.279.863v2.727zm1.723-.13h.517v-3.816h-.518v3.816zm.638-5.115a.383.383 0 0 1 -.108.274.352.352 0 0 1 -.267.113.366.366 0 0 1 -.271-.113.376.376 0 0 1 -.112-.274c0-.108.037-.199.112-.274a.366.366 0 0 1 .27-.113c.107 0 .196.037.268.113a.382.382 0 0 1 .108.274zm2.846 5.175c-.09.013-.192.02-.304.02-.148 0-.283-.017-.402-.049a.785.785 0 0 1 -.308-.157.723.723 0 0 1 -.199-.287 1.182 1.182 0 0 1 -.072-.443v-2.493h-.582v-.452h.582v-1.322l.52-.089v1.412h.868l.072.452h-.94v2.404c0 .194.041.334.126.424.086.088.23.133.431.133a1.554 1.554 0 0 0 .351-.04l.08.443c-.058.016-.133.03-.223.045m3.063-3.07c-.162-.22-.395-.33-.698-.33a.919.919 0 0 0 -.722.31c-.183.208-.301.496-.354.867h2.058c-.027-.343-.121-.626-.283-.847zm.826 1.267h-2.624c.01.473.118.84.323 1.101s.498.392.881.392c.256 0 .492-.052.71-.154s.426-.239.622-.411l.08.484c-.186.161-.4.291-.642.39-.242.1-.51.15-.802.15-.244 0-.472-.041-.682-.125a1.403 1.403 0 0 1 -.538-.375 1.788 1.788 0 0 1 -.351-.625 2.682 2.682 0 0 1 -.128-.867c0-.307.041-.583.124-.827a1.87 1.87 0 0 1 .343-.626 1.486 1.486 0 0 1 1.16-.532 1.358 1.358 0 0 1 1.15.561c.127.175.221.378.282.609a2.9 2.9 0 0 1 .092.742zm3.606-1.444a2.195 2.195 0 0 0 -.447-.17 2.145 2.145 0 0 0 -.518-.055c-.17 0-.329.032-.475.096a1.036 1.036 0 0 0 -.383.295 1.43 1.43 0 0 0 -.255.496 2.404 2.404 0 0 0 -.092.702c0 .468.097.823.291 1.065a.915.915 0 0 0 .746.362c.224 0 .426-.062.607-.189.18-.126.356-.291.526-.496zm.128 3.187-.096-.557a2.252 2.252 0 0 1 -.507.448 1.27 1.27 0 0 1 -.706.19c-.207 0-.402-.038-.586-.113a1.327 1.327 0 0 1 -.486-.347 1.66 1.66 0 0 1 -.332-.585 2.593 2.593 0 0 1 -.12-.835c0-.35.047-.653.14-.912a1.87 1.87 0 0 1 .38-.645 1.57 1.57 0 0 1 .55-.388c.207-.085.425-.129.654-.129.191 0 .37.018.534.053.165.035.314.082.447.141v-2.015l.527-.097v5.792h-.4zm6.414-1.34c0 .237-.044.45-.132.641a1.402 1.402 0 0 1 -.359.484 1.561 1.561 0 0 1 -.542.303 2.12 2.12 0 0 1 -.674.104c-.309 0-.585-.033-.83-.1a2.874 2.874 0 0 1 -.63-.246l.08-.565c.17.108.376.205.618.29.242.087.504.13.786.13.324 0 .594-.088.81-.263.215-.174.322-.42.322-.738 0-.14-.018-.262-.055-.367a.85.85 0 0 0 -.184-.294 1.57 1.57 0 0 0 -.343-.267 4.872 4.872 0 0 0 -.526-.266 7.123 7.123 0 0 1 -.666-.339 1.93 1.93 0 0 1 -.447-.347 1.131 1.131 0 0 1 -.248-.407 1.607 1.607 0 0 1 -.075-.52 1.298 1.298 0 0 1 .45-1.013c.141-.12.307-.215.5-.282.19-.067.4-.1.63-.1.26 0 .491.026.693.08a2 2 0 0 1 .519.21l-.08.556a1.993 1.993 0 0 0 -1.157-.355c-.324 0-.573.085-.745.254a.83.83 0 0 0 -.26.617c0 .13.019.242.056.34a.796.796 0 0 0 .183.274c.085.085.198.169.34.25.14.08.317.169.53.266.255.113.473.226.654.339.18.113.33.234.447.363s.202.271.255.427.08.337.08.54m2.463 1.4c-.091.013-.192.02-.304.02-.149 0-.283-.017-.402-.049a.72.72 0 0 1 -.507-.444 1.182 1.182 0 0 1 -.072-.443v-2.493h-.582v-.452h.582v-1.322l.519-.089v1.412h.87l.07.452h-.94v2.404c0 .194.042.334.127.424.085.088.229.133.431.133a1.55 1.55 0 0 0 .351-.04l.08.443c-.059.016-.133.03-.223.045m3.453-1.956c-.373.037-.68.089-.925.153a2.28 2.28 0 0 0 -.583.226.788.788 0 0 0 -.303.294.755.755 0 0 0 -.088.36c0 .204.063.358.188.463a.739.739 0 0 0 .49.157c.202 0 .41-.052.623-.157a2.54 2.54 0 0 0 .598-.415zm.12 2.025-.088-.508a2.523 2.523 0 0 1 -.594.419c-.221.113-.467.17-.739.17-.33 0-.6-.09-.81-.266-.21-.178-.314-.436-.314-.776 0-.445.191-.783.574-1.012.383-.228 1-.385 1.85-.472v-.25c0-.258-.07-.445-.21-.56-.142-.116-.332-.174-.571-.174a2.41 2.41 0 0 0 -.662.093 3.75 3.75 0 0 0 -.638.246l-.072-.476a5.17 5.17 0 0 1 .666-.238c.22-.062.467-.093.738-.093.845 0 1.268.393 1.268 1.178v2.719zm3.084-.07c-.09.013-.19.02-.303.02-.149 0-.283-.017-.403-.049a.784.784 0 0 1 -.307-.157.724.724 0 0 1 -.2-.287 1.189 1.189 0 0 1 -.07-.443v-2.493h-.583v-.452h.582v-1.322l.519-.089v1.412h.87l.07.452h-.94v2.404c0 .194.042.334.127.424.086.088.23.133.43.133a1.555 1.555 0 0 0 .352-.04l.08.443c-.059.016-.133.03-.224.045m3.354-3.07c-.162-.22-.395-.33-.698-.33a.919.919 0 0 0 -.722.31c-.183.208-.302.496-.355.867h2.058c-.026-.343-.12-.626-.283-.847zm.826 1.267h-2.625c.01.473.119.84.323 1.101.205.261.499.392.882.392.255 0 .492-.052.71-.154a2.66 2.66 0 0 0 .622-.411l.08.484a2.32 2.32 0 0 1 -.643.39c-.241.1-.509.15-.801.15a1.83 1.83 0 0 1 -.682-.125 1.402 1.402 0 0 1 -.539-.375 1.783 1.783 0 0 1 -.35-.625 2.69 2.69 0 0 1 -.128-.867c0-.307.04-.583.124-.827a1.87 1.87 0 0 1 .343-.626 1.486 1.486 0 0 1 1.16-.532 1.355 1.355 0 0 1 1.149.561c.128.175.222.378.283.609a2.9 2.9 0 0 1 .092.742zm3.372.839c0 .35-.125.621-.375.815s-.593.29-1.03.29c-.255 0-.503-.035-.745-.105a2.943 2.943 0 0 1 -.61-.241l.087-.517c.176.113.375.21.599.29.223.081.462.122.718.122.265 0 .474-.054.626-.162a.522.522 0 0 0 .227-.452.6.6 0 0 0 -.048-.25.506.506 0 0 0 -.16-.19 1.335 1.335 0 0 0 -.298-.16 3.77 3.77 0 0 0 -.467-.15c-.42-.107-.725-.243-.913-.407-.19-.164-.284-.402-.284-.714 0-.301.116-.549.348-.742.23-.194.543-.291.937-.291.223 0 .432.024.626.073.194.048.376.11.547.185l-.088.509a2.698 2.698 0 0 0 -.539-.218 2.045 2.045 0 0 0 -.562-.08c-.26 0-.454.05-.578.152a.479.479 0 0 0 -.188.388.45.45 0 0 0 .183.375c.123.094.343.184.663.27.223.06.417.124.582.194s.303.152.415.246a.878.878 0 0 1 .247.326c.053.124.08.272.08.444m3.029.968v-5.568h.55v5.066h2.122l.08.5h-2.752m5.51-3.072c-.162-.22-.395-.33-.698-.33a.919.919 0 0 0 -.722.31c-.184.208-.302.496-.355.867h2.058c-.026-.343-.12-.626-.283-.847zm.826 1.267h-2.625c.01.473.118.84.323 1.101s.499.392.882.392c.255 0 .491-.052.71-.154a2.66 2.66 0 0 0 .622-.411l.08.484c-.187.161-.4.291-.643.39-.242.1-.509.15-.801.15-.245 0-.472-.041-.682-.125a1.403 1.403 0 0 1 -.539-.375 1.793 1.793 0 0 1 -.35-.625 2.69 2.69 0 0 1 -.129-.867c0-.307.042-.583.124-.827.083-.245.197-.453.343-.626a1.486 1.486 0 0 1 1.16-.532c.256 0 .48.05.671.15.191.099.351.236.479.411.127.175.222.378.283.609a2.9 2.9 0 0 1 .092.742zm3.18-.726a.992.992 0 0 0 -.064-.36.822.822 0 0 0 -.47-.475.993.993 0 0 0 -.375-.068c-.271 0-.485.087-.642.262a.949.949 0 0 0 -.236.657c0 .248.08.458.24.63.16.171.377.258.654.258.276 0 .495-.087.654-.259a.912.912 0 0 0 .24-.645zm-1.284 2.219c-.51.236-.766.505-.766.807 0 .198.113.352.34.46.225.107.524.16.897.16.383 0 .688-.065.917-.197s.343-.292.343-.48a.41.41 0 0 0 -.203-.36c-.136-.088-.371-.165-.706-.23l-.367-.064a8.578 8.578 0 0 0 -.248-.052 6.026 6.026 0 0 1 -.207-.044zm2.274-3.502.087.524-.758.081c.133.2.2.425.2.678a1.235 1.235 0 0 1 -.427.952c-.13.113-.28.199-.45.258a1.613 1.613 0 0 1 -.703.081 1.793 1.793 0 0 1 -.16-.024c-.164.091-.246.182-.246.274 0 .037.012.071.035.101.024.03.067.056.128.08s.146.049.255.073c.11.024.252.053.427.084l.28.057c.42.076.74.184.96.327.221.142.332.356.332.641a.854.854 0 0 1 -.144.489 1.202 1.202 0 0 1 -.387.358c-.162.097-.352.17-.57.223-.218.05-.45.076-.694.076-.245 0-.472-.02-.682-.06a1.893 1.893 0 0 1 -.547-.186 1.033 1.033 0 0 1 -.362-.31.733.733 0 0 1 -.132-.436c0-.377.287-.716.861-1.017-.186-.107-.279-.24-.279-.395a.43.43 0 0 1 .096-.274 1.07 1.07 0 0 1 .279-.234 1.323 1.323 0 0 1 -.503-.452 1.215 1.215 0 0 1 -.19-.686 1.223 1.223 0 0 1 .422-.952c.128-.113.276-.199.447-.258.17-.06.345-.089.526-.089.378 0 .697.108.957.323zm.903 3.751h.518v-3.816h-.518zm.638-5.115a.384.384 0 0 1 -.107.274.354.354 0 0 1 -.268.113.365.365 0 0 1 -.27-.113.375.375 0 0 1 -.112-.274c0-.108.037-.199.111-.274a.365.365 0 0 1 .271-.113c.107 0 .196.037.268.113a.383.383 0 0 1 .107.274zm3.74 4.212c0 .35-.126.621-.375.815-.25.194-.594.29-1.03.29a2.66 2.66 0 0 1 -.745-.105 2.93 2.93 0 0 1 -.61-.241l.087-.517c.176.113.375.21.598.29.224.081.463.122.718.122.266 0 .475-.054.627-.162a.522.522 0 0 0 .227-.452.6.6 0 0 0 -.048-.25.502.502 0 0 0 -.16-.19 1.333 1.333 0 0 0 -.299-.16 3.63 3.63 0 0 0 -.466-.15c-.42-.107-.725-.243-.914-.407-.188-.164-.283-.402-.283-.714 0-.301.116-.549.347-.742.232-.194.544-.291.937-.291.224 0 .432.024.627.073.194.048.376.11.546.185l-.088.509a2.695 2.695 0 0 0 -.538-.218 2.047 2.047 0 0 0 -.563-.08c-.26 0-.453.05-.578.152a.48.48 0 0 0 -.187.388.45.45 0 0 0 .183.375c.123.094.343.184.662.27.224.06.417.124.583.194.164.07.303.152.414.246a.881.881 0 0 1 .248.326c.053.124.08.272.08.444m1.003.904v-5.694l.518-.097v5.792h-.518m3.872-1.897a6.07 6.07 0 0 0 -.925.153c-.244.064-.439.14-.583.226a.791.791 0 0 0 -.303.294.755.755 0 0 0 -.088.36c0 .204.063.358.188.463a.738.738 0 0 0 .49.157 1.4 1.4 0 0 0 .623-.157 2.52 2.52 0 0 0 .598-.415zm.12 2.025-.088-.508a2.512 2.512 0 0 1 -.594.419c-.221.113-.467.17-.738.17-.33 0-.6-.09-.81-.266-.21-.178-.315-.436-.315-.776 0-.445.191-.783.574-1.012.383-.228 1-.385 1.85-.472v-.25c0-.258-.07-.445-.21-.56-.141-.116-.331-.174-.57-.174-.224 0-.445.031-.663.093s-.43.144-.638.246l-.072-.476c.224-.097.446-.176.667-.238.22-.062.466-.093.737-.093.846 0 1.269.393 1.269 1.178v2.719zm3.085-.07c-.09.013-.191.02-.303.02a1.57 1.57 0 0 1 -.404-.049.78.78 0 0 1 -.306-.157.724.724 0 0 1 -.2-.287 1.182 1.182 0 0 1 -.071-.443v-2.493h-.583v-.452h.583v-1.322l.518-.089v1.412h.87l.072.452h-.942v2.404c0 .194.043.334.128.424.085.088.228.133.43.133a1.559 1.559 0 0 0 .352-.04l.08.443c-.06.016-.133.03-.224.045m1.437-.061h.518v-3.816h-.518zm.638-5.115a.384.384 0 0 1 -.107.274.353.353 0 0 1 -.268.113.365.365 0 0 1 -.271-.113.375.375 0 0 1 -.112-.274c0-.108.037-.199.112-.274a.366.366 0 0 1 .271-.113c.107 0 .196.037.268.113a.384.384 0 0 1 .107.274zm2.556 5.244h-.494l-1.372-3.8.518-.096 1.117 3.243 1.085-3.195h.542zm4.222-3.138c-.162-.22-.395-.33-.698-.33a.918.918 0 0 0 -.722.31c-.183.208-.302.496-.355.867h2.058c-.026-.343-.12-.626-.283-.847zm.826 1.267h-2.624c.01.473.118.84.322 1.101.205.261.5.392.882.392.255 0 .492-.052.71-.154a2.64 2.64 0 0 0 .622-.411l.08.484c-.186.161-.4.291-.642.39-.243.1-.51.15-.802.15-.245 0-.472-.041-.682-.125a1.4 1.4 0 0 1 -.538-.375 1.78 1.78 0 0 1 -.352-.625 2.683 2.683 0 0 1 -.127-.867c0-.307.04-.583.123-.827.083-.245.197-.453.344-.626a1.486 1.486 0 0 1 1.16-.532c.256 0 .479.05.67.15.192.099.351.236.48.411.126.175.22.378.282.609s.092.479.092.742zm3.217 1.807h.55v-5.568h-.55zm4.187.065v-2.63c0-.247-.058-.441-.172-.581-.115-.14-.292-.21-.53-.21-.203 0-.405.06-.607.178s-.406.28-.614.484v2.759h-.527v-3.816h.407l.088.565c.208-.189.421-.344.642-.464.22-.121.459-.182.714-.182.377 0 .66.102.846.307.186.204.279.492.279.863v2.727zm3.269-5.437c-.18 0-.32.045-.422.133-.101.089-.151.238-.151.448v.888h.773l.073.451h-.846v3.365h-.519v-3.365h-.574v-.451h.574v-.929c0-.354.096-.614.287-.778s.45-.246.774-.246c.069 0 .123.001.16.004l.111.012.08.492a1.505 1.505 0 0 0 -.32-.024m3.513 3.533c0-.22-.025-.425-.076-.613a1.444 1.444 0 0 0 -.227-.489 1.115 1.115 0 0 0 -.367-.322 1.035 1.035 0 0 0 -.502-.117 1.05 1.05 0 0 0 -.494.113 1.035 1.035 0 0 0 -.364.318 1.47 1.47 0 0 0 -.223.488c-.05.19-.076.396-.076.622 0 .22.026.424.076.609s.124.347.223.484a1.018 1.018 0 0 0 .858.44c.383 0 .674-.143.873-.428.2-.284.3-.653.3-1.105zm.543 0c0 .312-.044.592-.132.839a1.82 1.82 0 0 1 -.363.625 1.55 1.55 0 0 1 -.546.387 1.72 1.72 0 0 1 -.674.133 1.69 1.69 0 0 1 -.67-.133 1.515 1.515 0 0 1 -.54-.387 1.808 1.808 0 0 1 -.354-.625 2.579 2.579 0 0 1 -.127-.84c0-.317.043-.599.13-.846.09-.247.208-.456.36-.625.152-.17.33-.3.535-.387a1.65 1.65 0 0 1 .666-.134c.244 0 .471.045.681.134.21.088.392.217.543.387.152.169.271.378.359.625s.132.53.132.847zm2.428-1.392a1.845 1.845 0 0 0 -.726.533 1.863 1.863 0 0 0 -.24.367v2.396h-.526v-3.816h.39l.12.782c.07-.107.149-.212.24-.314.09-.103.191-.194.303-.275a1.408 1.408 0 0 1 .798-.274l.087.5a1.48 1.48 0 0 0 -.446.101m6.213 3.296v-2.63c0-.247-.053-.441-.16-.581-.106-.14-.282-.21-.526-.21a1.15 1.15 0 0 0 -.59.174 3.153 3.153 0 0 0 -.607.48v2.767h-.518v-2.63c0-.247-.053-.441-.16-.581-.106-.14-.281-.21-.527-.21-.196 0-.394.056-.594.17a2.79 2.79 0 0 0 -.602.475v2.776h-.526v-3.816h.407l.087.548a3.36 3.36 0 0 1 .626-.452c.216-.118.45-.177.706-.177.293 0 .522.058.686.174a.933.933 0 0 1 .351.487c.208-.188.423-.345.646-.471a1.45 1.45 0 0 1 .726-.19c.378 0 .656.102.834.307.178.204.267.49.267.855v2.735zm3.983-2.025a6.094 6.094 0 0 0 -.925.153 2.28 2.28 0 0 0 -.583.226.791.791 0 0 0 -.303.294.748.748 0 0 0 -.088.36c0 .204.063.358.187.463a.74.74 0 0 0 .492.157 1.4 1.4 0 0 0 .622-.157 2.54 2.54 0 0 0 .598-.415zm.12 2.025-.088-.508a2.528 2.528 0 0 1 -.595.419 1.59 1.59 0 0 1 -.737.17c-.33 0-.6-.09-.81-.266-.21-.178-.315-.436-.315-.776 0-.445.192-.783.574-1.012.383-.228 1-.385 1.85-.472v-.25c0-.258-.07-.445-.21-.56-.141-.116-.332-.174-.57-.174-.224 0-.445.031-.663.093s-.43.144-.638.246l-.072-.476a5.2 5.2 0 0 1 .666-.238 2.74 2.74 0 0 1 .738-.093c.846 0 1.269.393 1.269 1.178v2.719h-.4zm3.085-.07c-.09.013-.192.02-.303.02a1.54 1.54 0 0 1 -.403-.049.785.785 0 0 1 -.308-.157.729.729 0 0 1 -.199-.287 1.194 1.194 0 0 1 -.071-.443v-2.493h-.583v-.452h.583v-1.322l.518-.089v1.412h.87l.071.452h-.941v2.404c0 .194.043.334.128.424.084.088.228.133.43.133a1.559 1.559 0 0 0 .351-.04l.08.443c-.059.016-.133.03-.223.045m1.148-.061h.518v-3.816h-.518zm.637-5.115a.385.385 0 0 1 -.107.274.353.353 0 0 1 -.267.113.364.364 0 0 1 -.271-.113.373.373 0 0 1 -.112-.274c0-.108.037-.199.112-.274a.365.365 0 0 1 .27-.113c.107 0 .196.037.268.113a.385.385 0 0 1 .107.274zm3.843 3.341c0-.22-.025-.425-.075-.613a1.456 1.456 0 0 0 -.228-.489 1.035 1.035 0 0 0 -.87-.44 1.06 1.06 0 0 0 -.493.114 1.029 1.029 0 0 0 -.363.318c-.1.137-.174.3-.224.488-.05.19-.076.396-.076.622 0 .22.026.424.076.609s.125.347.224.484a1.018 1.018 0 0 0 .857.44c.383 0 .674-.143.873-.428.2-.284.3-.653.3-1.105zm.543 0c0 .312-.044.592-.131.839-.089.247-.21.456-.364.625a1.55 1.55 0 0 1 -.546.387 1.725 1.725 0 0 1 -.674.133c-.24 0-.463-.044-.67-.133a1.522 1.522 0 0 1 -.54-.387 1.808 1.808 0 0 1 -.354-.625 2.578 2.578 0 0 1 -.127-.84c0-.317.043-.599.13-.846.09-.247.208-.456.36-.625.152-.17.33-.3.535-.387.204-.09.427-.134.666-.134.244 0 .471.045.681.134.21.088.392.217.543.387.152.169.271.378.36.625.087.247.131.53.131.847zm3.385 1.904v-2.63c0-.247-.057-.441-.171-.581s-.292-.21-.53-.21c-.203 0-.405.06-.607.178s-.407.28-.614.484v2.759h-.527v-3.816h.407l.088.565a3.37 3.37 0 0 1 .642-.464c.22-.121.458-.182.714-.182.377 0 .66.102.846.307.186.204.278.492.278.863v2.727zm-118.455-13.079c-1.432-1.186-1.81-2.745-1.81-4.077 0-.942.313-2.567 1.694-3.785 1.053-.91 2.436-1.462 4.59-1.462.906 0 1.448.065 2.106.147.543.08 1.02.178 1.447.227.165.016.214.08.214.162 0 .114-.033.276-.066.764-.032.455-.032 1.218-.049 1.494-.016.195-.066.341-.197.341-.115 0-.148-.114-.148-.292a1.934 1.934 0 0 0 -.56-1.283c-.493-.471-1.464-.813-2.796-.813-1.267 0-2.073.228-2.731.78-1.07.91-1.332 2.242-1.332 3.59 0 3.281 2.566 4.84 4.507 4.84 1.283 0 1.99-.097 2.566-.73.247-.277.445-.667.494-.926.032-.212.065-.276.18-.276.1 0 .165.13.165.243 0 .163-.164 1.365-.313 1.836-.065.243-.13.308-.378.406-.576.227-1.678.309-2.616.309-1.973 0-3.652-.407-4.968-1.495m18.739-3.654c0-3.055-1.859-4.939-4.195-4.939-1.612 0-3.504.845-3.504 4.256 0 2.842 1.645 5.084 4.376 5.084 1.02 0 3.323-.471 3.323-4.402zm-9.837-.26c0-2.356 1.678-5.41 6.07-5.41 3.652 0 5.922 1.998 5.922 5.166 0 3.167-2.336 5.653-6.07 5.653-4.212 0-5.922-2.957-5.922-5.41zm14.467 3.394c.033 1.072.214 1.397.493 1.494.247.082.527.098.757.098.165 0 .247.065.247.146 0 .114-.131.146-.33.146-.937 0-1.611-.048-1.874-.048-.132 0-.823.048-1.563.048-.198 0-.33-.016-.33-.146 0-.081.1-.146.231-.146.197 0 .46-.016.658-.065.378-.097.428-.471.444-1.673l.132-8.188c0-.276.099-.471.247-.471.18 0 .378.211.625.455.18.179 2.352 2.372 4.458 4.402.987.958 2.912 2.907 3.125 3.102h.066l-.148-6.14c-.016-.843-.148-1.087-.493-1.217-.214-.081-.56-.081-.757-.081-.181 0-.23-.065-.23-.146 0-.114.148-.13.362-.13.756 0 1.53.032 1.842.032.165 0 .707-.033 1.415-.033.197 0 .329.017.329.13 0 .082-.083.147-.247.147-.148 0-.263 0-.444.048-.395.114-.51.358-.526 1.138l-.165 8.706c0 .309-.115.439-.23.439-.247 0-.445-.146-.593-.293a344.284 344.284 0 0 1 -4.228-3.98c-1.579-1.494-3.108-3.167-3.388-3.41h-.05zm20.841.91c0 .373 0 .39-.181.487-.971.471-2.402.618-3.537.618-3.553 0-6.696-1.592-6.696-5.41 0-2.209 1.201-3.752 2.534-4.516 1.381-.795 2.681-.893 3.898-.893 1.004 0 2.27.163 2.567.228.296.048.806.13 1.151.146.165.016.197.065.197.162 0 .163-.098.536-.098 2.274 0 .211-.082.31-.197.31-.1 0-.132-.066-.148-.18-.033-.308-.116-.747-.494-1.137-.428-.438-1.513-1.056-3.142-1.056-.79 0-1.793.017-2.797.813-.806.65-1.332 1.672-1.332 3.362 0 2.973 1.941 5.133 5.034 5.133.378 0 .674 0 1.02-.146.213-.098.28-.244.28-.488v-1.266c0-.683 0-1.203-.017-1.625-.016-.47-.165-.617-.625-.747a2.65 2.65 0 0 0 -.56-.049c-.131 0-.23-.065-.23-.146 0-.114.115-.13.312-.13.757 0 1.794.032 2.222.032.46 0 1.217-.032 1.694-.032.197 0 .296.016.296.13 0 .081-.082.146-.18.146a1.97 1.97 0 0 0 -.396.049c-.395.065-.543.26-.559.747-.016.422-.016.975-.016 1.657zm4.761-4.357c0 .147.033.195.132.244.312.097.74.13 1.102.13.576 0 .773-.049 1.02-.227.444-.309.938-.91.938-2.047 0-1.95-1.35-2.453-2.205-2.453-.362 0-.707.016-.855.049-.099.032-.132.081-.132.195v4.11zm-1.842-1.072c0-2.095 0-2.485-.017-2.923-.032-.472-.164-.618-.625-.748a2.73 2.73 0 0 0 -.575-.048c-.149 0-.247-.049-.247-.147 0-.097.115-.13.329-.13.757 0 1.678.033 1.974.033.493 0 1.81-.033 2.254-.033.921 0 1.974.082 2.747.585.411.276 1.02.975 1.02 1.9 0 1.024-.592 1.933-2.007 3.055 1.283 1.559 2.303 2.81 3.175 3.67.806.796 1.315.861 1.546.91.148.033.23.033.346.033.115 0 .18.08.18.146 0 .113-.098.146-.279.146h-1.382c-.806 0-1.2-.081-1.58-.276-.624-.309-1.167-.958-1.973-2.03-.576-.748-1.185-1.674-1.366-1.885-.082-.081-.164-.097-.263-.097l-1.3-.033c-.065 0-.115.033-.115.114v.195c0 1.283.017 2.355.083 2.94.05.406.115.666.559.73.214.033.526.05.707.05.115 0 .181.08.181.146 0 .097-.115.146-.296.146-.839 0-2.04-.049-2.254-.049-.28 0-1.2.049-1.776.049-.181 0-.28-.049-.28-.146 0-.065.05-.146.23-.146.214 0 .379-.017.51-.05.297-.064.379-.324.428-.73.066-.585.066-1.673.066-2.94z"/><path d="m59.359 4.399c0-2.096 0-2.485-.017-2.924-.033-.471-.164-.617-.625-.747-.115-.033-.362-.05-.576-.05-.148 0-.246-.048-.246-.145 0-.098.115-.13.329-.13.757 0 1.678.032 2.089.032.46 0 3.668.016 3.948 0 .263-.016.494-.065.609-.08.082-.017.164-.066.23-.066.082 0 .099.065.099.13 0 .097-.082.26-.115.893-.017.147-.05.747-.083.91-.016.065-.05.227-.164.227-.099 0-.115-.064-.115-.178 0-.098-.017-.341-.099-.504-.116-.243-.23-.439-.954-.503-.247-.033-1.974-.065-2.27-.065-.066 0-.099.048-.099.13v3.41c0 .082.016.147.099.147.328 0 2.204 0 2.533-.033.345-.032.559-.065.691-.21.115-.098.164-.18.23-.18s.116.065.116.147c0 .081-.033.308-.116 1.007-.033.276-.066.828-.066.926 0 .113-.016.308-.148.308-.099 0-.132-.048-.132-.114-.016-.145-.016-.324-.048-.503-.083-.276-.264-.487-.807-.536-.263-.033-1.908-.065-2.27-.065-.066 0-.082.065-.082.146v1.105c0 .471-.016 1.64 0 2.046.033.942.477 1.154 1.958 1.154.378 0 .987-.016 1.365-.179.362-.162.526-.455.625-1.023.033-.147.065-.211.165-.211.115 0 .131.178.131.325 0 .308-.115 1.25-.197 1.526-.1.358-.23.358-.774.358a58.62 58.62 0 0 1 -2.664-.05c-.708-.015-1.25-.031-1.678-.031-.165 0-.478.016-.823.016-.345.016-.707.032-1.004.032-.18 0-.28-.048-.28-.146 0-.065.05-.146.231-.146.214 0 .379-.016.51-.049.296-.065.379-.325.428-.731.066-.584.066-1.673.066-2.94v-2.435m7.5 6.061c-.23-.098-.28-.162-.28-.471 0-.747.066-1.608.082-1.835 0-.212.066-.358.181-.358.132 0 .149.13.149.228 0 .178.049.47.13.714.313 1.024 1.4 1.365 2.304 1.365 1.25 0 2.007-.78 2.007-1.755 0-.6-.148-1.202-1.431-1.95l-.839-.486c-1.711-.991-2.27-1.917-2.27-3.135 0-1.69 1.645-2.778 3.652-2.778.937 0 1.678.13 2.056.228.132.032.198.08.198.178 0 .179-.05.569-.05 1.657 0 .292-.065.439-.181.439-.098 0-.148-.081-.148-.244 0-.13-.066-.552-.378-.91-.214-.26-.675-.65-1.612-.65-1.037 0-1.974.537-1.974 1.48 0 .616.23 1.103 1.53 1.818l.592.325c1.908 1.04 2.5 2.095 2.5 3.346 0 1.023-.394 1.852-1.447 2.583-.691.487-1.646.569-2.419.569-.838 0-1.727-.082-2.352-.358m8.105 0c-.23-.098-.28-.162-.28-.471 0-.747.066-1.608.083-1.835 0-.212.065-.358.18-.358.132 0 .149.13.149.228 0 .178.049.47.131.714.313 1.024 1.399 1.365 2.303 1.365 1.25 0 2.007-.78 2.007-1.755 0-.6-.148-1.202-1.431-1.95l-.84-.486c-1.71-.991-2.27-1.917-2.27-3.135.001-1.69 1.647-2.778 3.654-2.778.937 0 1.678.13 2.056.228.131.032.198.08.198.178 0 .179-.05.569-.05 1.657 0 .292-.066.439-.18.439-.1 0-.149-.081-.149-.244 0-.13-.065-.552-.378-.91-.214-.26-.675-.65-1.612-.65-1.037 0-1.975.537-1.975 1.48 0 .616.231 1.103 1.53 1.818l.593.325c1.908 1.04 2.5 2.095 2.5 3.346 0 1.023-.395 1.852-1.447 2.583-.691.487-1.646.569-2.419.569-.838 0-1.727-.082-2.352-.358m21.422-.747c0 .373 0 .39-.181.487-.97.471-2.402.618-3.537.618-3.554 0-6.695-1.592-6.695-5.41 0-2.209 1.2-3.752 2.533-4.516 1.381-.795 2.681-.893 3.898-.893 1.004 0 2.27.163 2.567.228.296.048.806.13 1.151.146.165.016.198.065.198.162 0 .163-.099.536-.099 2.274 0 .211-.082.31-.197.31-.099 0-.132-.066-.148-.18-.033-.308-.115-.747-.494-1.137-.428-.438-1.513-1.056-3.142-1.056-.79 0-1.793.017-2.796.813-.806.65-1.333 1.672-1.333 3.362 0 2.973 1.941 5.133 5.034 5.133.379 0 .674 0 1.02-.146.214-.098.28-.244.28-.488v-1.266c0-.683 0-1.203-.017-1.625-.017-.47-.165-.617-.625-.747a2.65 2.65 0 0 0 -.56-.049c-.13 0-.23-.065-.23-.146 0-.114.115-.13.313-.13.756 0 1.793.032 2.22.032.462 0 1.218-.032 1.695-.032.197 0 .296.016.296.13 0 .081-.082.146-.18.146-.116 0-.23.016-.396.049-.394.065-.542.26-.559.747-.016.422-.016.975-.016 1.657zm11.293-4.044c0-3.055-1.86-4.939-4.195-4.939-1.613 0-3.505.845-3.505 4.256 0 2.842 1.646 5.084 4.376 5.084 1.02 0 3.323-.471 3.323-4.402zm-9.838-.26c0-2.356 1.678-5.41 6.07-5.41 3.652 0 5.922 1.998 5.922 5.166 0 3.167-2.336 5.653-6.07 5.653-4.21 0-5.922-2.957-5.922-5.41zm12.793-3.773c-.329-.763-.543-.893-1.07-1.023-.213-.048-.444-.048-.559-.048-.132 0-.164-.065-.164-.147 0-.114.148-.13.361-.13.774 0 1.596.033 2.106.033.362 0 1.119-.033 1.843-.033.181 0 .345.033.345.13 0 .098-.099.147-.23.147-.23 0-.445.016-.56.097a.3.3 0 0 0 -.147.276c0 .179.131.552.329 1.04l2.434 6.188h.05c.625-1.43 2.484-5.88 2.829-6.79.066-.178.132-.39.132-.503 0-.146-.066-.195-.198-.243a2.228 2.228 0 0 0 -.576-.065c-.13 0-.246-.049-.246-.147 0-.097.132-.13.41-.13.725 0 1.366.033 1.547.033.247 0 .922-.033 1.365-.033.181 0 .297.033.297.13 0 .098-.083.147-.23.147-.148 0-.461-.017-.708.162-.181.13-.378.341-.757 1.218-.576 1.3-.954 2.047-1.744 3.736-.92 2.014-1.595 3.525-1.924 4.223-.362.796-.494 1.008-.691 1.008-.198 0-.313-.18-.592-.829zm-26.914 6.17.356 1.153h1.155l-.933.713.356 1.152-.934-.712-.934.712.357-1.152-.933-.713h1.153z"/></g></g></svg>
