<?xml version="1.0" encoding="UTF-8" standalone="no"?>
<svg width="121px" height="24px" viewBox="0 0 121 24" version="1.1" xmlns="http://www.w3.org/2000/svg" xmlns:xlink="http://www.w3.org/1999/xlink">
    <!-- Generator: Sketch 39.1 (31720) - http://www.bohemiancoding.com/sketch -->
    <title>Congress.gov</title>
    <desc>Created with Sketch.</desc>
    <defs>
        <polygon id="path-1" points="0.0173684211 0.0520481928 0.0173684211 5.70708434 4.14005263 5.70708434 4.14005263 0.0520481928 0.0173684211 0.0520481928"></polygon>
    </defs>
    <g id="Symbols" stroke="none" stroke-width="1" fill="none" fill-rule="evenodd">
        <g id="Footer-Final" transform="translate(-832.000000, -85.000000)">
            <g id="Footer">
                <g id="Congress.gov" transform="translate(832.000000, 85.000000)">
                    <g id="Group-3" transform="translate(0.000000, 16.771084)">
                        <mask id="mask-2" fill="white">
                            <use xlink:href="#path-1"></use>
                        </mask>
                        <g id="Clip-2"></g>
                        <path d="M3.99647368,4.41281928 C3.90065789,4.68433735 3.76373684,4.91566265 3.58571053,5.10650602 C3.40739474,5.29706024 3.18942105,5.44510843 2.9315,5.54978313 C2.67357895,5.65474699 2.38236842,5.70708434 2.05786842,5.70708434 C1.73365789,5.70708434 1.44389474,5.65474699 1.18828947,5.54978313 C0.933263158,5.44510843 0.717894737,5.29850602 0.542473684,5.11055422 C0.366763158,4.9220241 0.232447368,4.69359036 0.139526316,4.4246747 C0.0463157895,4.15604819 0,3.85995181 0,3.53725301 L0,0.0520481928 L0.550289474,0.0520481928 L0.550289474,3.4646747 C0.550289474,3.72289157 0.582421053,3.95826506 0.646105263,4.17021687 C0.709789474,4.38303614 0.804157895,4.56578313 0.929210526,4.71903614 C1.05426316,4.87257831 1.21115789,4.99228916 1.39989474,5.07816867 C1.58834211,5.16404819 1.81065789,5.20713253 2.06597368,5.20713253 C2.56589474,5.20713253 2.94481579,5.05561446 3.20273684,4.75142169 C3.46065789,4.44751807 3.58947368,4.02968675 3.58947368,3.49706024 L3.58947368,0.0520481928 L4.14005263,0.0520481928 L4.14005263,3.49706024 C4.14005263,3.83566265 4.09228947,4.14072289 3.99647368,4.41281928" id="Fill-1" fill="#90918E" mask="url(#mask-2)"></path>
                    </g>
                    <path d="M7.65976316,22.402988 L7.65976316,19.7728193 C7.65976316,19.5255904 7.60244737,19.3318554 7.48810526,19.1916145 C7.37376316,19.052241 7.19689474,18.9819759 6.9575,18.9819759 C6.75544737,18.9819759 6.55339474,19.041253 6.35134211,19.1598072 C6.149,19.2780723 5.94434211,19.4394217 5.73707895,19.6438554 L5.73707895,22.402988 L5.21052632,22.402988 L5.21052632,18.586988 L5.61723684,18.586988 L5.70523684,19.1517108 C5.91278947,18.9634699 6.12671053,18.8084819 6.34728947,18.6876145 C6.56815789,18.566747 6.80610526,18.5060241 7.06142105,18.5060241 C7.43889474,18.5060241 7.72055263,18.6083855 7.90697368,18.8125301 C8.09281579,19.0166747 8.18602632,19.3046747 8.18602632,19.6759518 L8.18602632,22.402988 L7.65976316,22.402988" id="Fill-4" fill="#666666"></path>
                    <path d="M9.38271053,22.2731566 L9.90115789,22.2731566 L9.90115789,18.4571566 L9.38271053,18.4571566 L9.38271053,22.2731566 Z M10.0207105,17.1582651 C10.0207105,17.2655422 9.98481579,17.3569157 9.91302632,17.4323855 C9.84123684,17.5081446 9.75236842,17.5454458 9.64584211,17.5454458 C9.53960526,17.5454458 9.449,17.5081446 9.37460526,17.4323855 C9.30021053,17.3569157 9.26315789,17.2655422 9.26315789,17.1582651 C9.26315789,17.0504096 9.30021053,16.9590361 9.37460526,16.8838554 C9.449,16.8083855 9.53960526,16.7710843 9.64584211,16.7710843 C9.75236842,16.7710843 9.84123684,16.8083855 9.91302632,16.8838554 C9.98481579,16.9590361 10.0207105,17.0504096 10.0207105,17.1582651 L10.0207105,17.1582651 Z" id="Fill-5" fill="#666666"></path>
                    <path d="M12.8668158,22.3327229 C12.7762105,22.3457349 12.6751842,22.3520964 12.5634474,22.3520964 C12.4146579,22.3520964 12.2803421,22.3364819 12.1607895,22.3040964 C12.0409474,22.2717108 11.9387632,22.2190843 11.8533684,22.1467952 C11.7682632,22.0742169 11.7019737,21.9787952 11.6542105,21.860241 C11.6061579,21.7425542 11.5824211,21.5942169 11.5824211,21.4169639 L11.5824211,18.9235663 L11,18.9235663 L11,18.4721928 L11.5824211,18.4721928 L11.5824211,17.149012 L12.1011579,17.060241 L12.1011579,18.4721928 L12.9704474,18.4721928 L13.0419474,18.9235663 L12.1011579,18.9235663 L12.1011579,21.3276145 C12.1011579,21.5216386 12.1434211,21.6624578 12.2282368,21.7515181 C12.3136316,21.84 12.4572105,21.8845301 12.6592632,21.8845301 C12.7174474,21.8845301 12.7799737,21.8807711 12.8465526,21.8726747 C12.9131316,21.8642892 12.9675526,21.8550361 13.0103947,21.8443373 L13.09,22.2881928 C13.0315263,22.3040964 12.9571316,22.3188434 12.8668158,22.3327229" id="Fill-6" fill="#666666"></path>
                    <path d="M15.9306053,19.2644819 C15.7682105,19.0438554 15.5354737,18.9336867 15.2323947,18.9336867 C14.9345263,18.9336867 14.6939737,19.037494 14.5104474,19.2445301 C14.3269211,19.4515663 14.2088158,19.7404337 14.1558421,20.1114217 L16.2137105,20.1114217 C16.1870789,19.7676145 16.0927105,19.4851084 15.9306053,19.2644819 L15.9306053,19.2644819 Z M16.7561842,20.5312771 L14.1315263,20.5312771 C14.1422368,21.0043373 14.2499211,21.3718554 14.4548684,21.6320964 C14.6595263,21.8932048 14.9533421,22.0236145 15.3360263,22.0236145 C15.5916316,22.0236145 15.8278421,21.9724337 16.0461053,21.8703614 C16.2640789,21.7682892 16.4716316,21.6312289 16.6684737,21.4588916 L16.7483684,21.9429398 C16.5619474,22.1042892 16.3477368,22.2344096 16.1057368,22.3338795 C15.8637368,22.4336386 15.5968421,22.4833735 15.3041842,22.4833735 C15.0595789,22.4833735 14.8320526,22.4417349 14.6221842,22.3581687 C14.4120263,22.2751807 14.2325526,22.1499759 14.0837632,21.9834217 C13.9349737,21.8165783 13.8177368,21.6083855 13.7329211,21.3579759 C13.6475263,21.1078554 13.6052632,20.818988 13.6052632,20.490506 C13.6052632,20.184 13.6460789,19.9084337 13.7288684,19.6640964 C13.8110789,19.4188916 13.9254211,19.2106988 14.0718947,19.0383614 C14.2180789,18.8663133 14.3908947,18.734747 14.5903421,18.6433735 C14.7900789,18.5517108 15.0037105,18.5060241 15.2323947,18.5060241 C15.4877105,18.5060241 15.7111842,18.5560482 15.9025263,18.6552289 C16.0941579,18.7546988 16.2536579,18.8923373 16.3813158,19.066988 C16.5086842,19.2416386 16.6033421,19.4446265 16.6644211,19.6759518 C16.7255,19.906988 16.7561842,20.154506 16.7561842,20.4182169 L16.7561842,20.5312771 L16.7561842,20.5312771 Z" id="Fill-7" fill="#666666"></path>
                    <path d="M20.3621579,19.0872289 C20.2130789,19.0120482 20.064,18.9556627 19.9152105,18.9177831 C19.7664211,18.8804819 19.5936053,18.8616867 19.3967632,18.8616867 C19.2265526,18.8616867 19.0682105,18.8940723 18.9223158,18.9582651 C18.7758421,19.0230361 18.6481842,19.1207711 18.5393421,19.2526265 C18.4302105,19.3847711 18.3451053,19.5501687 18.2840263,19.7488193 C18.2229474,19.9480482 18.1919737,20.1816867 18.1919737,20.4508916 C18.1919737,20.918747 18.2892368,21.2738313 18.4831842,21.5155663 C18.6774211,21.7575904 18.9263684,21.8784578 19.2294474,21.8784578 C19.4529211,21.8784578 19.6546842,21.8157108 19.8356053,21.6890602 C20.0162368,21.5626988 20.1919474,21.3975904 20.3621579,21.1931566 L20.3621579,19.0872289 L20.3621579,19.0872289 Z M20.4895263,22.2743133 L20.394,21.7173976 C20.2504211,21.8897349 20.0813684,22.0389398 19.8874211,22.165012 C19.6931842,22.2910843 19.4578421,22.3546988 19.1813947,22.3546988 C18.9741316,22.3546988 18.7787368,22.3171084 18.5952105,22.2416386 C18.4116842,22.166747 18.2492895,22.0507952 18.1086053,21.8949398 C17.9676316,21.7390843 17.8573421,21.5436145 17.7774474,21.3099759 C17.6975526,21.0760482 17.6578947,20.7975904 17.6578947,20.4751807 C17.6578947,20.1255904 17.7045,19.8216867 17.7974211,19.5634699 C17.8906316,19.3049639 18.0168421,19.0901205 18.1763421,18.9177831 C18.3358421,18.7460241 18.5193684,18.6167711 18.7269211,18.5303133 C18.9341842,18.4447229 19.1521579,18.4013494 19.3808421,18.4013494 C19.5724737,18.4013494 19.7505,18.418988 19.9152105,18.4536867 C20.0802105,18.489253 20.229,18.5360964 20.3621579,18.5953735 L20.3621579,16.578506 L20.8887105,16.4819277 L20.8887105,22.2743133 L20.4895263,22.2743133 L20.4895263,22.2743133 Z" id="Fill-8" fill="#666666"></path>
                    <path d="M26.9039737,20.9337831 C26.9039737,21.1706024 26.8599737,21.3842892 26.7722632,21.5754217 C26.6845526,21.7662651 26.5647105,21.9273253 26.4130263,22.0594699 C26.2616316,22.1913253 26.0807105,22.292241 25.8708421,22.3616386 C25.6606842,22.4316145 25.4360526,22.4663133 25.1969474,22.4663133 C24.8883684,22.4663133 24.6116316,22.4330602 24.3670263,22.3659759 C24.1224211,22.2986024 23.9125526,22.2170602 23.7368421,22.1196145 L23.8167368,21.5548916 C23.9869474,21.662747 24.1927632,21.7596145 24.4350526,21.845494 C24.6770526,21.9316627 24.9387368,21.9744578 25.2206842,21.9744578 C25.5448947,21.9744578 25.8149737,21.8874217 26.0303421,21.7124819 C26.2457105,21.5375422 26.3533947,21.291759 26.3533947,20.9742651 C26.3533947,20.8343133 26.3348684,20.7122892 26.2975263,20.6070361 C26.2604737,20.5023614 26.1991053,20.4043373 26.114,20.3126747 C26.0288947,20.2213012 25.9148421,20.1325301 25.7712632,20.0463614 C25.6273947,19.9601928 25.4519737,19.8717108 25.2447105,19.7800482 C24.9838947,19.6620723 24.7621579,19.5493012 24.5786316,19.4414458 C24.3951053,19.3338795 24.2460263,19.2182169 24.1316842,19.0941687 C24.0173421,18.970988 23.9348421,18.8350843 23.8844737,18.6870361 C23.8338158,18.5392771 23.8089211,18.3657831 23.8089211,18.1665542 C23.8089211,17.9569157 23.8485789,17.7663614 23.9281842,17.5940241 C24.0080789,17.4216867 24.1186579,17.2750843 24.2593421,17.1542169 C24.4003158,17.0333494 24.5664737,16.9390843 24.7581053,16.8717108 C24.9497368,16.8046265 25.1593158,16.7710843 25.3882895,16.7710843 C25.6485263,16.7710843 25.8801053,16.7976867 26.0821579,16.8520482 C26.2842105,16.9055422 26.4570263,16.9752289 26.6006053,17.0613976 L26.521,17.6180241 C26.3667105,17.510747 26.1938947,17.4242892 26.0025526,17.3598072 C25.8109211,17.2953253 25.5981579,17.2632289 25.3642632,17.2632289 C25.0397632,17.2632289 24.7911053,17.3476627 24.6185789,17.5173976 C24.4454737,17.6868434 24.3592105,17.8921446 24.3592105,18.1344578 C24.3592105,18.2634217 24.3777368,18.3761928 24.4150789,18.4730602 C24.4521316,18.5702169 24.5132105,18.6615904 24.5983158,18.747759 C24.6834211,18.8333494 24.7963158,18.9166265 24.9375789,18.9975904 C25.0782632,19.0785542 25.2551316,19.166747 25.4678947,19.2639036 C25.7232105,19.377253 25.9411842,19.4897349 26.1221053,19.602506 C26.3027368,19.7158554 26.4518158,19.8367229 26.5687632,19.9656867 C26.6857105,20.0946506 26.7708158,20.237494 26.8240789,20.3933494 C26.8770526,20.549494 26.9039737,20.7296386 26.9039737,20.9337831" id="Fill-9" fill="#666666"></path>
                    <path d="M29.3665263,22.3327229 C29.2759211,22.3457349 29.1751842,22.3520964 29.0631579,22.3520964 C28.9143684,22.3520964 28.7800526,22.3364819 28.6605,22.3040964 C28.5406579,22.2717108 28.4384737,22.2190843 28.3533684,22.1467952 C28.2679737,22.0742169 28.2016842,21.9787952 28.1539211,21.860241 C28.1058684,21.7425542 28.0821316,21.5942169 28.0821316,21.4169639 L28.0821316,18.9235663 L27.5,18.9235663 L27.5,18.4721928 L28.0821316,18.4721928 L28.0821316,17.149012 L28.6008684,17.060241 L28.6008684,18.4721928 L29.4701579,18.4721928 L29.5419474,18.9235663 L28.6008684,18.9235663 L28.6008684,21.3276145 C28.6008684,21.5216386 28.6431316,21.6624578 28.7282368,21.7515181 C28.8133421,21.84 28.9569211,21.8845301 29.1589737,21.8845301 C29.2174474,21.8845301 29.2796842,21.8807711 29.3462632,21.8726747 C29.4128421,21.8642892 29.4672632,21.8550361 29.5101053,21.8443373 L29.5897105,22.2881928 C29.5312368,22.3040964 29.4568421,22.3188434 29.3665263,22.3327229" id="Fill-10" fill="#666666"></path>
                    <path d="M32.8196579,20.3780241 C32.4473947,20.4153253 32.1391053,20.466506 31.8945,20.5312771 C31.6498947,20.5954699 31.4556579,20.6709398 31.3120789,20.7568193 C31.1685,20.842988 31.0674737,20.9413012 31.009,21.0514699 C30.9505263,21.1619277 30.9212895,21.2813494 30.9212895,21.4103133 C30.9212895,21.614747 30.9838158,21.7694458 31.1085789,21.8744096 C31.2336316,21.9790843 31.3971842,22.0314217 31.5992368,22.0314217 C31.8012895,22.0314217 32.0085526,21.9790843 32.2216053,21.8744096 C32.4340789,21.7694458 32.6335263,21.6312289 32.8196579,21.4588916 L32.8196579,20.3780241 L32.8196579,20.3780241 Z M32.9395,22.402988 L32.8515,21.8946506 C32.6763684,22.061494 32.4777895,22.2011566 32.2575,22.3139277 C32.0366316,22.426988 31.7905789,22.4833735 31.5193421,22.4833735 C31.1896316,22.4833735 30.9198421,22.3948916 30.7096842,22.2176386 C30.4998158,22.0398072 30.3947368,21.7815904 30.3947368,21.4424096 C30.3947368,20.9965301 30.5860789,20.6590843 30.9690526,20.4303614 C31.3520263,20.2019277 31.9688947,20.0446265 32.8196579,19.9581687 L32.8196579,19.7080482 C32.8196579,19.4498313 32.7493158,19.2630361 32.6083421,19.1470843 C32.4673684,19.032 32.2771842,18.9741687 32.0377895,18.9741687 C31.8146053,18.9741687 31.5940263,19.0051084 31.3757632,19.066988 C31.1575,19.1288675 30.9450263,19.2106988 30.7377632,19.3127711 L30.6659737,18.8365301 C30.8891579,18.7399518 31.1111842,18.6607229 31.3317632,18.5988434 C31.5529211,18.537253 31.7986842,18.5060241 32.0699211,18.5060241 C32.9154737,18.5060241 33.3383947,18.898988 33.3383947,19.6840482 L33.3383947,22.402988 L32.9395,22.402988 L32.9395,22.402988 Z" id="Fill-11" fill="#666666"></path>
                    <path d="M36.0244211,22.3327229 C35.9338158,22.3457349 35.8330789,22.3520964 35.7210526,22.3520964 C35.5722632,22.3520964 35.4379474,22.3364819 35.3183947,22.3040964 C35.1988421,22.2717108 35.0963684,22.2190843 35.0112632,22.1467952 C34.9261579,22.0742169 34.8595789,21.9787952 34.8118158,21.860241 C34.7640526,21.7425542 34.7403158,21.5942169 34.7403158,21.4169639 L34.7403158,18.9235663 L34.1578947,18.9235663 L34.1578947,18.4721928 L34.7403158,18.4721928 L34.7403158,17.149012 L35.2587632,17.060241 L35.2587632,18.4721928 L36.1280526,18.4721928 L36.1998421,18.9235663 L35.2587632,18.9235663 L35.2587632,21.3276145 C35.2587632,21.5216386 35.3010263,21.6624578 35.3861316,21.7515181 C35.4715263,21.84 35.6151053,21.8845301 35.8168684,21.8845301 C35.8753421,21.8845301 35.9378684,21.8807711 36.0044474,21.8726747 C36.0707368,21.8642892 36.1254474,21.8550361 36.168,21.8443373 L36.2476053,22.2881928 C36.1891316,22.3040964 36.1147368,22.3188434 36.0244211,22.3327229" id="Fill-12" fill="#666666"></path>
                    <path d="M39.3782632,19.2644819 C39.2158684,19.0438554 38.9831316,18.9336867 38.6800526,18.9336867 C38.3821842,18.9336867 38.1416316,19.037494 37.9581053,19.2445301 C37.7745789,19.4515663 37.6561842,19.7404337 37.6032105,20.1114217 L39.6613684,20.1114217 C39.6347368,19.7676145 39.5403684,19.4851084 39.3782632,19.2644819 L39.3782632,19.2644819 Z M40.2038421,20.5312771 L37.5791842,20.5312771 C37.5898947,21.0043373 37.6975789,21.3718554 37.9022368,21.6320964 C38.1071842,21.8932048 38.401,22.0236145 38.7836842,22.0236145 C39.0392895,22.0236145 39.2755,21.9724337 39.4937632,21.8703614 C39.7117368,21.7682892 39.9192895,21.6312289 40.1158421,21.4588916 L40.1957368,21.9429398 C40.0093158,22.1042892 39.7953947,22.2344096 39.5533947,22.3338795 C39.3116842,22.4336386 39.0442105,22.4833735 38.7518421,22.4833735 C38.5072368,22.4833735 38.2797105,22.4417349 38.0695526,22.3581687 C37.8593947,22.2751807 37.6802105,22.1499759 37.5314211,21.9834217 C37.3823421,21.8165783 37.2653947,21.6083855 37.1805789,21.3579759 C37.0954737,21.1078554 37.0526316,20.818988 37.0526316,20.490506 C37.0526316,20.184 37.0937368,19.9084337 37.1765263,19.6640964 C37.2587368,19.4188916 37.3730789,19.2106988 37.5195526,19.0383614 C37.6657368,18.8663133 37.8385526,18.734747 38.038,18.6433735 C38.2374474,18.5517108 38.4513684,18.5060241 38.6800526,18.5060241 C38.9353684,18.5060241 39.1585526,18.5560482 39.3501842,18.6552289 C39.5415263,18.7546988 39.7013158,18.8923373 39.8286842,19.066988 C39.9566316,19.2416386 40.051,19.4446265 40.1120789,19.6759518 C40.1731579,19.906988 40.2038421,20.154506 40.2038421,20.4182169 L40.2038421,20.5312771 L40.2038421,20.5312771 Z" id="Fill-13" fill="#666666"></path>
                    <path d="M43.5756316,21.3701205 C43.5756316,21.7194217 43.4508684,21.9912289 43.2007632,22.1846747 C42.9509474,22.3786988 42.6079211,22.4755663 42.1716842,22.4755663 C41.9163684,22.4755663 41.6677105,22.4402892 41.4257105,22.3703133 C41.184,22.3006265 40.9802105,22.2199518 40.8157895,22.1285783 L40.9032105,21.6121446 C41.0789211,21.7249157 41.2783684,21.8217831 41.5018421,21.9024578 C41.7253158,21.9834217 41.9644211,22.0236145 42.2197368,22.0236145 C42.4854737,22.0236145 42.6941842,21.9698313 42.8458684,21.8622651 C42.9975526,21.754988 43.0731053,21.6040482 43.0731053,21.4103133 C43.0731053,21.3134458 43.0571842,21.2304578 43.0253421,21.1601928 C42.9932105,21.090506 42.9402368,21.0271807 42.8658421,20.9707952 C42.7911579,20.9141205 42.6915789,20.8606265 42.5665263,20.8094458 C42.4414737,20.7582651 42.2860263,20.7088193 42.0998947,20.660241 C41.6795789,20.5526747 41.3753421,20.4167711 41.1866053,20.2525301 C40.9975789,20.0885783 40.9032105,19.8508916 40.9032105,19.5388916 C40.9032105,19.2375904 41.019,18.9903614 41.2505789,18.7966265 C41.4815789,18.6028916 41.7942105,18.5060241 42.1876053,18.5060241 C42.4110789,18.5060241 42.6197895,18.5300241 42.8137368,18.5786024 C43.0079737,18.6268916 43.1903421,18.6890602 43.3605526,18.764241 L43.2725526,19.2725783 C43.1023421,19.1812048 42.9228684,19.1086265 42.7341316,19.0548434 C42.5453947,19.0010602 42.3578158,18.9741687 42.1716842,18.9741687 C41.9111579,18.9741687 41.7183684,19.0253494 41.5936053,19.1274217 C41.4682632,19.2297831 41.4060263,19.358747 41.4060263,19.5146024 C41.4060263,19.670747 41.4671053,19.7956627 41.5892632,19.8899277 C41.7117105,19.9836145 41.9322895,20.0741205 42.2515789,20.16 C42.4747632,20.2192771 42.669,20.283759 42.834,20.3537349 C42.9987105,20.4237108 43.1370789,20.5058313 43.2485263,20.5995181 C43.3605526,20.6937831 43.4427632,20.802506 43.4960263,20.9262651 C43.549,21.0503133 43.5756316,21.1980723 43.5756316,21.3701205" id="Fill-14" fill="#666666"></path>
                    <polyline id="Fill-15" fill="#666666" points="46.6052632 22.3379277 46.6052632 16.7710843 47.1558421 16.7710843 47.1558421 21.8373976 49.2773947 21.8373976 49.3572895 22.3379277 46.6052632 22.3379277"></polyline>
                    <path d="M52.1148158,19.2644819 C51.9527105,19.0438554 51.7199737,18.9336867 51.4168947,18.9336867 C51.1190263,18.9336867 50.8784737,19.037494 50.6949474,19.2445301 C50.5114211,19.4515663 50.3933158,19.7404337 50.3400526,20.1114217 L52.3982105,20.1114217 C52.3715789,19.7676145 52.2772105,19.4851084 52.1148158,19.2644819 L52.1148158,19.2644819 Z M52.9406842,20.5312771 L50.3163158,20.5312771 C50.3267368,21.0043373 50.4344211,21.3718554 50.6393684,21.6320964 C50.8440263,21.8932048 51.1375526,22.0236145 51.5208158,22.0236145 C51.7761316,22.0236145 52.0123421,21.9724337 52.2306053,21.8703614 C52.4485789,21.7682892 52.6561316,21.6312289 52.8526842,21.4588916 L52.9325789,21.9429398 C52.7464474,22.1042892 52.5325263,22.2344096 52.2902368,22.3338795 C52.0482368,22.4336386 51.7813421,22.4833735 51.4889737,22.4833735 C51.2440789,22.4833735 51.0165526,22.4417349 50.8066842,22.3581687 C50.5965263,22.2751807 50.4170526,22.1499759 50.2682632,21.9834217 C50.1194737,21.8165783 50.0025263,21.6083855 49.9174211,21.3579759 C49.8323158,21.1078554 49.7894737,20.818988 49.7894737,20.490506 C49.7894737,20.184 49.8305789,19.9084337 49.9133684,19.6640964 C49.9955789,19.4188916 50.1099211,19.2106988 50.2563947,19.0383614 C50.4025789,18.8663133 50.5753947,18.734747 50.7748421,18.6433735 C50.9742895,18.5517108 51.1882105,18.5060241 51.4168947,18.5060241 C51.6722105,18.5060241 51.8956842,18.5560482 52.0870263,18.6552289 C52.2783684,18.7546988 52.4381579,18.8923373 52.5658158,19.066988 C52.6934737,19.2416386 52.7875526,19.4446265 52.8489211,19.6759518 C52.91,19.906988 52.9406842,20.154506 52.9406842,20.4182169 L52.9406842,20.5312771 L52.9406842,20.5312771 Z" id="Fill-16" fill="#666666"></path>
                    <path d="M56.1214211,19.8049157 C56.1214211,19.6759518 56.1,19.5565301 56.0574474,19.4457831 C56.0148947,19.3359036 55.9538158,19.2401928 55.8739211,19.1598072 C55.7943158,19.0791325 55.6987895,19.0158072 55.5867632,18.9695422 C55.4753158,18.9244337 55.3499737,18.9015904 55.2118947,18.9015904 C54.9406579,18.9015904 54.7267368,18.9889157 54.5698421,19.1635663 C54.4129474,19.338506 54.3345,19.5579759 54.3345,19.8211084 C54.3345,20.0686265 54.4143947,20.2785542 54.5736053,20.4503133 C54.7333947,20.6223614 54.9513684,20.7088193 55.2278158,20.7088193 C55.5042632,20.7088193 55.7225263,20.6223614 55.8820263,20.4503133 C56.0415263,20.2785542 56.1214211,20.0634217 56.1214211,19.8049157 L56.1214211,19.8049157 Z M54.8370263,22.0236145 C54.3263947,22.2601446 54.0713684,22.5293494 54.0713684,22.8306506 C54.0713684,23.029012 54.1842632,23.1828434 54.4103421,23.2901205 C54.6361316,23.3979759 54.9354474,23.451759 55.3077105,23.451759 C55.6906842,23.451759 55.9963684,23.3855422 56.2250526,23.2536867 C56.4537368,23.1221205 56.5680789,22.9622169 56.5680789,22.7736867 C56.5680789,22.6233253 56.5003421,22.5036145 56.3645789,22.4145542 C56.2291053,22.3263614 55.9937632,22.2494458 55.6588421,22.1846747 L55.2915,22.1201928 C55.1959737,22.0987952 55.1134737,22.0811566 55.0442895,22.0678554 C54.9753947,22.0542651 54.9062105,22.0398072 54.8370263,22.0236145 L54.8370263,22.0236145 Z M57.1105526,18.5222169 L57.1982632,19.0464578 L56.4404211,19.1274217 C56.5732895,19.3263614 56.6401579,19.5521928 56.6401579,19.8049157 C56.6401579,20.0038554 56.6013684,20.184 56.5240789,20.3453494 C56.4470789,20.506988 56.3434474,20.6440482 56.2131842,20.7568193 C56.0826316,20.8698795 55.9323947,20.955759 55.7621842,21.0150361 C55.5919737,21.0743133 55.4139474,21.1038072 55.2278158,21.1038072 C55.1693421,21.1038072 55.1134737,21.1012048 55.0605,21.096 C55.0072368,21.090506 54.9539737,21.0821205 54.9007105,21.0717108 C54.7357105,21.1630843 54.6535,21.2544578 54.6535,21.3455422 C54.6535,21.3834217 54.6656579,21.417253 54.6893947,21.4470361 C54.7134211,21.476241 54.7559737,21.5031325 54.8170526,21.5274217 C54.8781316,21.5514217 54.9632368,21.576 55.0723684,21.6 C55.1812105,21.6242892 55.3236316,21.6526265 55.4990526,21.6844337 L55.7781053,21.7413976 C56.1984211,21.8165783 56.5191579,21.9253012 56.7394474,22.0678554 C56.9603158,22.2104096 57.0706053,22.4240964 57.0706053,22.709494 C57.0706053,22.892241 57.0231316,23.0550361 56.9273158,23.1975904 C56.8315,23.3395663 56.7023947,23.4595663 56.5402895,23.5564337 C56.3778947,23.6533012 56.1877105,23.726747 55.9697368,23.778506 C55.7517632,23.8291084 55.5201842,23.8548434 55.2758684,23.8548434 C55.0309737,23.8548434 54.8037368,23.8348916 54.5938684,23.7941205 C54.3837105,23.7539277 54.2013421,23.6920482 54.0473421,23.6087711 C53.8930526,23.5257831 53.7720526,23.4219759 53.6846316,23.2982169 C53.5966316,23.1744578 53.5526316,23.029012 53.5526316,22.862747 C53.5526316,22.4859759 53.8397895,22.1473735 54.4143947,21.8460723 C54.2279737,21.738506 54.1350526,21.6069398 54.1350526,21.4507952 C54.1350526,21.3484337 54.1668947,21.2570602 54.2305789,21.1766747 C54.2945526,21.096 54.3877632,21.0182169 54.5099211,20.942747 C54.3026579,20.8348916 54.1350526,20.684241 54.0073947,20.490506 C53.8797368,20.2973494 53.8160526,20.0686265 53.8160526,19.8049157 C53.8160526,19.6004819 53.8542632,19.4188916 53.9318421,19.2604337 C54.0088421,19.1019759 54.1113158,18.9657831 54.2386842,18.853012 C54.3666316,18.7399518 54.5154211,18.6540723 54.6856316,18.5947952 C54.8555526,18.5358072 55.0309737,18.5060241 55.2118947,18.5060241 C55.5896579,18.5060241 55.9086579,18.6138795 56.1694737,18.8287229 L57.1105526,18.5222169 L57.1105526,18.5222169 Z" id="Fill-17" fill="#666666"></path>
                    <path d="M58.0142895,22.2731566 L58.5324474,22.2731566 L58.5324474,18.4571566 L58.0142895,18.4571566 L58.0142895,22.2731566 Z M58.6522895,17.1582651 C58.6522895,17.2655422 58.6166842,17.3569157 58.5451842,17.4323855 C58.4731053,17.5081446 58.3839474,17.5454458 58.2774211,17.5454458 C58.1708947,17.5454458 58.0808684,17.5081446 58.0064737,17.4323855 C57.9317895,17.3569157 57.8947368,17.2655422 57.8947368,17.1582651 C57.8947368,17.0504096 57.9317895,16.9590361 58.0064737,16.8838554 C58.0808684,16.8083855 58.1708947,16.7710843 58.2774211,16.7710843 C58.3839474,16.7710843 58.4731053,16.8083855 58.5451842,16.8838554 C58.6166842,16.9590361 58.6522895,17.0504096 58.6522895,17.1582651 L58.6522895,17.1582651 Z" id="Fill-18" fill="#666666"></path>
                    <path d="M62.3917105,21.3701205 C62.3917105,21.7194217 62.2663684,21.9912289 62.0165526,22.1846747 C61.7667368,22.3786988 61.4234211,22.4755663 60.9874737,22.4755663 C60.7321579,22.4755663 60.4835,22.4402892 60.2415,22.3703133 C59.9992105,22.3006265 59.796,22.2199518 59.6315789,22.1285783 L59.7192895,21.6121446 C59.8947105,21.7249157 60.0941579,21.8217831 60.3173421,21.9024578 C60.5405263,21.9834217 60.7802105,22.0236145 61.0349474,22.0236145 C61.3009737,22.0236145 61.5099737,21.9698313 61.6616579,21.8622651 C61.8133421,21.754988 61.8886053,21.6040482 61.8886053,21.4103133 C61.8886053,21.3134458 61.8729737,21.2304578 61.8411316,21.1601928 C61.8092895,21.090506 61.7560263,21.0271807 61.6813421,20.9707952 C61.6069474,20.9141205 61.5070789,20.8606265 61.3823158,20.8094458 C61.2575526,20.7582651 61.1018158,20.7088193 60.9156842,20.660241 C60.4956579,20.5526747 60.1905526,20.4167711 60.0021053,20.2525301 C59.8136579,20.0885783 59.7192895,19.8508916 59.7192895,19.5388916 C59.7192895,19.2375904 59.8347895,18.9903614 60.0657895,18.7966265 C60.2979474,18.6028916 60.61,18.5060241 61.0033947,18.5060241 C61.2268684,18.5060241 61.435,18.5300241 61.6295263,18.5786024 C61.8237632,18.6268916 62.0058421,18.6890602 62.1760526,18.764241 L62.0880526,19.2725783 C61.9178421,19.1812048 61.7386579,19.1086265 61.5499211,19.0548434 C61.3608947,19.0010602 61.1736053,18.9741687 60.9874737,18.9741687 C60.7269474,18.9741687 60.5341579,19.0253494 60.4091053,19.1274217 C60.2840526,19.2297831 60.2215263,19.358747 60.2215263,19.5146024 C60.2215263,19.670747 60.2826053,19.7956627 60.4053421,19.8899277 C60.5277895,19.9836145 60.7477895,20.0741205 61.0673684,20.16 C61.2905526,20.2192771 61.4845,20.283759 61.6497895,20.3537349 C61.8142105,20.4237108 61.9525789,20.5058313 62.0643158,20.5995181 C62.1760526,20.6937831 62.2585526,20.802506 62.3118158,20.9262651 C62.3647895,21.0503133 62.3917105,21.1980723 62.3917105,21.3701205" id="Fill-19" fill="#666666"></path>
                    <polyline id="Fill-20" fill="#666666" points="63.3947368 22.2743133 63.3947368 16.578506 63.9131842 16.4819277 63.9131842 22.2743133 63.3947368 22.2743133"></polyline>
                    <path d="M67.2667368,20.3780241 C66.8944737,20.4153253 66.5864737,20.466506 66.3415789,20.5312771 C66.0975526,20.5954699 65.9030263,20.6709398 65.7594474,20.7568193 C65.6158684,20.842988 65.5148421,20.9413012 65.4560789,21.0514699 C65.3976053,21.1619277 65.3680789,21.2813494 65.3680789,21.4103133 C65.3680789,21.614747 65.4308947,21.7694458 65.5559474,21.8744096 C65.6807105,21.9790843 65.8445526,22.0314217 66.0466053,22.0314217 C66.2489474,22.0314217 66.4565,21.9790843 66.6689737,21.8744096 C66.8817368,21.7694458 67.0811842,21.6312289 67.2667368,21.4588916 L67.2667368,20.3780241 L67.2667368,20.3780241 Z M67.3871579,22.402988 L67.2988684,21.8946506 C67.1234474,22.061494 66.9257368,22.2011566 66.7045789,22.3139277 C66.4837105,22.426988 66.2382368,22.4833735 65.9667105,22.4833735 C65.6367105,22.4833735 65.3672105,22.3948916 65.1570526,22.2176386 C64.9468947,22.0398072 64.8421053,21.7815904 64.8421053,21.4424096 C64.8421053,20.9965301 65.0334474,20.6590843 65.4164211,20.4303614 C65.7993947,20.2019277 66.4156842,20.0446265 67.2667368,19.9581687 L67.2667368,19.7080482 C67.2667368,19.4498313 67.1963947,19.2630361 67.0557105,19.1470843 C66.9150263,19.032 66.7248421,18.9741687 66.4851579,18.9741687 C66.2619737,18.9741687 66.0413947,19.0051084 65.8231316,19.066988 C65.6051579,19.1288675 65.3923947,19.2106988 65.1854211,19.3127711 L65.1133421,18.8365301 C65.3365263,18.7399518 65.5585526,18.6607229 65.7797105,18.5988434 C66.0002895,18.537253 66.2460526,18.5060241 66.517,18.5060241 C67.3628421,18.5060241 67.7857632,18.898988 67.7857632,19.6840482 L67.7857632,22.402988 L67.3871579,22.402988 L67.3871579,22.402988 Z" id="Fill-21" fill="#666666"></path>
                    <path d="M70.4723684,22.3327229 C70.3817632,22.3457349 70.2807368,22.3520964 70.1692895,22.3520964 C70.0199211,22.3520964 69.8858947,22.3364819 69.7654737,22.3040964 C69.6462105,22.2717108 69.5440263,22.2190843 69.4592105,22.1467952 C69.3738158,22.0742169 69.3075263,21.9787952 69.2594737,21.860241 C69.2114211,21.7425542 69.1876842,21.5942169 69.1876842,21.4169639 L69.1876842,18.9235663 L68.6052632,18.9235663 L68.6052632,18.4721928 L69.1876842,18.4721928 L69.1876842,17.149012 L69.7061316,17.060241 L69.7061316,18.4721928 L70.5757105,18.4721928 L70.6475,18.9235663 L69.7061316,18.9235663 L69.7061316,21.3276145 C69.7061316,21.5216386 69.7486842,21.6624578 69.8340789,21.7515181 C69.9188947,21.84 70.0624737,21.8845301 70.2648158,21.8845301 C70.323,21.8845301 70.3858158,21.8807711 70.4523947,21.8726747 C70.5186842,21.8642892 70.5728158,21.8550361 70.6159474,21.8443373 L70.6955526,22.2881928 C70.6367895,22.3040964 70.5626842,22.3188434 70.4723684,22.3327229" id="Fill-22" fill="#666666"></path>
                    <path d="M71.9087368,22.2731566 L72.4271842,22.2731566 L72.4271842,18.4571566 L71.9087368,18.4571566 L71.9087368,22.2731566 Z M72.5473158,17.1582651 C72.5473158,17.2655422 72.5111316,17.3569157 72.4396316,17.4323855 C72.3678421,17.5081446 72.2786842,17.5454458 72.1724474,17.5454458 C72.0653421,17.5454458 71.9756053,17.5081446 71.9009211,17.4323855 C71.8262368,17.3569157 71.7894737,17.2655422 71.7894737,17.1582651 C71.7894737,17.0504096 71.8262368,16.9590361 71.9009211,16.8838554 C71.9756053,16.8083855 72.0653421,16.7710843 72.1724474,16.7710843 C72.2786842,16.7710843 72.3678421,16.8083855 72.4396316,16.8838554 C72.5111316,16.9590361 72.5473158,17.0504096 72.5473158,17.1582651 L72.5473158,17.1582651 Z" id="Fill-23" fill="#666666"></path>
                    <polyline id="Fill-24" fill="#666666" points="75.1033684 22.4024096 74.6086579 22.4024096 73.2368421 18.6023133 73.7552895 18.5060241 74.8720789 21.7489157 75.9570263 18.5543133 76.4992105 18.5543133 75.1033684 22.4024096"></polyline>
                    <path d="M79.3250526,19.2644819 C79.1626579,19.0438554 78.9302105,18.9336867 78.6271316,18.9336867 C78.3292632,18.9336867 78.0884211,19.037494 77.9051842,19.2445301 C77.7219474,19.4515663 77.6032632,19.7404337 77.5502895,20.1114217 L79.6081579,20.1114217 C79.5815263,19.7676145 79.4871579,19.4851084 79.3250526,19.2644819 L79.3250526,19.2644819 Z M80.1509211,20.5312771 L77.5265526,20.5312771 C77.5372632,21.0043373 77.6446579,21.3718554 77.8493158,21.6320964 C78.0539737,21.8932048 78.3480789,22.0236145 78.7307632,22.0236145 C78.9863684,22.0236145 79.2225789,21.9724337 79.4408421,21.8703614 C79.6591053,21.7682892 79.8666579,21.6312289 80.0632105,21.4588916 L80.1431053,21.9429398 C79.9569737,22.1042892 79.7427632,22.2344096 79.5007632,22.3338795 C79.2581842,22.4336386 78.9912895,22.4833735 78.6989211,22.4833735 C78.4543158,22.4833735 78.2270789,22.4417349 78.0172105,22.3581687 C77.8067632,22.2751807 77.627,22.1499759 77.4785,21.9834217 C77.3291316,21.8165783 77.2121842,21.6083855 77.1273684,21.3579759 C77.0419737,21.1078554 77,20.818988 77,20.490506 C77,20.184 77.0408158,19.9084337 77.1233158,19.6640964 C77.2058158,19.4188916 77.3201579,19.2106988 77.4666316,19.0383614 C77.6131053,18.8663133 77.7853421,18.734747 77.9850789,18.6433735 C78.1839474,18.5517108 78.3987368,18.5060241 78.6271316,18.5060241 C78.8827368,18.5060241 79.1056316,18.5560482 79.2972632,18.6552289 C79.4888947,18.7546988 79.6483947,18.8923373 79.7760526,19.066988 C79.9034211,19.2416386 79.9977895,19.4446265 80.0594474,19.6759518 C80.1205263,19.906988 80.1509211,20.154506 80.1509211,20.4182169 L80.1509211,20.5312771 L80.1509211,20.5312771 Z" id="Fill-25" fill="#666666"></path>
                    <polygon id="Fill-26" fill="#666666" points="83.3684211 22.3379277 83.9187105 22.3379277 83.9187105 16.7710843 83.3684211 16.7710843"></polygon>
                    <path d="M87.5545,22.402988 L87.5545,19.7728193 C87.5545,19.5255904 87.4966053,19.3318554 87.3825526,19.1916145 C87.2682105,19.052241 87.0913421,18.9819759 86.8528158,18.9819759 C86.6498947,18.9819759 86.4478421,19.041253 86.2460789,19.1598072 C86.0437368,19.2780723 85.8396579,19.4394217 85.6315263,19.6438554 L85.6315263,22.402988 L85.1052632,22.402988 L85.1052632,18.586988 L85.5122632,18.586988 L85.5999737,19.1517108 C85.8075263,18.9634699 86.0211579,18.8084819 86.2420263,18.6876145 C86.4626053,18.566747 86.7005526,18.5060241 86.9561579,18.5060241 C87.3333421,18.5060241 87.6155789,18.6083855 87.802,18.8125301 C87.9875526,19.0166747 88.0807632,19.3046747 88.0807632,19.6759518 L88.0807632,22.402988 L87.5545,22.402988" id="Fill-27" fill="#666666"></path>
                    <path d="M90.8243947,16.9659759 C90.6440526,16.9659759 90.5033684,17.010506 90.4020526,17.0992771 C90.3010263,17.1880482 90.2506579,17.337253 90.2506579,17.5471807 L90.2506579,18.4346024 L91.0241316,18.4346024 L91.0965,18.8859759 L90.2506579,18.8859759 L90.2506579,22.2506024 L89.7322105,22.2506024 L89.7322105,18.8859759 L89.1578947,18.8859759 L89.1578947,18.4346024 L89.7322105,18.4346024 L89.7322105,17.5064096 C89.7322105,17.1519036 89.8277368,16.892241 90.0193684,16.7282892 C90.2104211,16.563759 90.4683421,16.4819277 90.7928421,16.4819277 C90.8617368,16.4819277 90.9155789,16.4833735 90.9523421,16.4856867 C90.9896842,16.4888675 91.0270263,16.4932048 91.0643684,16.4984096 L91.1439737,16.9902651 C91.0750789,16.9737831 90.9685526,16.9659759 90.8243947,16.9659759" id="Fill-28" fill="#666666"></path>
                    <path d="M94.3371579,20.4986024 C94.3371579,20.2785542 94.3119737,20.0741205 94.2610263,19.8855904 C94.2106579,19.6973494 94.1353947,19.5348434 94.0343684,19.397494 C93.9330526,19.2604337 93.8108947,19.1531566 93.6673158,19.0750843 C93.5237368,18.997012 93.3564211,18.9579759 93.1647895,18.9579759 C92.9786579,18.9579759 92.8136579,18.9955663 92.6706579,19.070747 C92.5265,19.1459277 92.4060789,19.2523373 92.3070789,19.3893976 C92.2080789,19.5264578 92.1339737,19.689253 92.0836053,19.877494 C92.0335263,20.0663133 92.0080526,20.2730602 92.0080526,20.4986024 C92.0080526,20.7192289 92.0335263,20.922506 92.0836053,21.1078554 C92.1339737,21.293494 92.2080789,21.4548434 92.3070789,21.5919036 C92.4060789,21.729253 92.5265,21.8368193 92.6706579,21.9148916 C92.8136579,21.9926747 92.9786579,22.0314217 93.1647895,22.0314217 C93.5480526,22.0314217 93.8386842,21.8891566 94.0381316,21.6040482 C94.2378684,21.3195181 94.3371579,20.9505542 94.3371579,20.4986024 L94.3371579,20.4986024 Z M94.8796316,20.4986024 C94.8796316,20.8106024 94.8359211,21.090506 94.7476316,21.3377349 C94.6602105,21.585253 94.5392105,21.7937349 94.3855,21.9631807 C94.2309211,22.1323373 94.0488421,22.2615904 93.8386842,22.3503614 C93.6282368,22.4388434 93.4038947,22.4833735 93.1647895,22.4833735 C92.9251053,22.4833735 92.7022105,22.4388434 92.4946579,22.3503614 C92.2871053,22.2615904 92.1073421,22.1323373 91.9559474,21.9631807 C91.8042632,21.7937349 91.6861579,21.585253 91.6007632,21.3377349 C91.5159474,21.090506 91.4736842,20.8106024 91.4736842,20.4986024 C91.4736842,20.1813976 91.5171053,19.8991807 91.6048158,19.6516627 C91.6931053,19.4047229 91.8123684,19.1959518 91.9637632,19.026506 C92.1160263,18.8570602 92.2934737,18.7278072 92.4987105,18.6396145 C92.7033684,18.5505542 92.9251053,18.5060241 93.1647895,18.5060241 C93.4088158,18.5060241 93.6363421,18.5505542 93.8465,18.6396145 C94.0569474,18.7278072 94.2378684,18.8570602 94.3892632,19.026506 C94.5409474,19.1959518 94.6602105,19.4047229 94.7476316,19.6516627 C94.8359211,19.8991807 94.8796316,20.1813976 94.8796316,20.4986024 L94.8796316,20.4986024 Z" id="Fill-29" fill="#666666"></path>
                    <path d="M97.3077368,19.1071807 C97.1641579,19.1635663 97.0307105,19.2375904 96.9091316,19.3289639 C96.7863947,19.4203373 96.6766842,19.5238554 96.5817368,19.6398072 C96.4856316,19.7551807 96.4060263,19.877494 96.3420526,20.006747 L96.3420526,22.402988 L95.8157895,22.402988 L95.8157895,18.586988 L96.2068684,18.586988 L96.3267105,19.3691566 C96.3953158,19.2615904 96.4749211,19.1569157 96.5655263,19.0548434 C96.6558421,18.9524819 96.7571579,18.8611084 96.8686053,18.7801446 C96.9809211,18.699759 97.1030789,18.634988 97.2359474,18.586988 C97.3688158,18.5386988 97.5123947,18.5118072 97.6666842,18.5060241 L97.7543947,19.0062651 C97.6001053,19.0166747 97.4513158,19.050506 97.3077368,19.1071807" id="Fill-30" fill="#666666"></path>
                    <path d="M103.521,22.402988 L103.521,19.7728193 C103.521,19.5255904 103.467737,19.3318554 103.3615,19.1916145 C103.255263,19.052241 103.079263,18.9819759 102.834947,18.9819759 C102.637816,18.9819759 102.440974,19.0400964 102.244132,19.155759 C102.047579,19.2714217 101.845526,19.4310361 101.638263,19.635759 L101.638263,22.402988 L101.119816,22.402988 L101.119816,19.7728193 C101.119816,19.5255904 101.066553,19.3318554 100.960316,19.1916145 C100.854079,19.052241 100.678658,18.9819759 100.433184,18.9819759 C100.236632,18.9819759 100.038632,19.0383614 99.8391842,19.1517108 C99.6400263,19.2644819 99.4394211,19.4232289 99.2370789,19.6273735 L99.2370789,22.402988 L98.7105263,22.402988 L98.7105263,18.586988 L99.1178158,18.586988 L99.2052368,19.1352289 C99.4078684,18.9524819 99.6157105,18.8021205 99.8310789,18.6832771 C100.046737,18.5653012 100.281789,18.5060241 100.537395,18.5060241 C100.829763,18.5060241 101.058737,18.5641446 101.223158,18.6795181 C101.388158,18.7954699 101.505395,18.9579759 101.574289,19.1673253 C101.781842,18.9793735 101.997211,18.8223614 102.220395,18.696 C102.444447,18.5693494 102.685868,18.5060241 102.946395,18.5060241 C103.324158,18.5060241 103.601763,18.6083855 103.780368,18.8125301 C103.957816,19.0166747 104.047263,19.3020723 104.047263,19.6678554 L104.047263,22.402988 L103.521,22.402988" id="Fill-31" fill="#666666"></path>
                    <path d="M107.503579,20.3780241 C107.131026,20.4153253 106.823026,20.466506 106.578711,20.5312771 C106.333816,20.5954699 106.140158,20.6709398 105.996289,20.7568193 C105.852711,20.842988 105.751684,20.9413012 105.692921,21.0514699 C105.633868,21.1619277 105.605211,21.2813494 105.605211,21.4103133 C105.605211,21.614747 105.668026,21.7694458 105.792211,21.8744096 C105.917263,21.9790843 106.081105,22.0314217 106.283737,22.0314217 C106.4855,22.0314217 106.693053,21.9790843 106.905526,21.8744096 C107.118,21.7694458 107.317737,21.6312289 107.503579,21.4588916 L107.503579,20.3780241 L107.503579,20.3780241 Z M107.623711,22.402988 L107.536,21.8946506 C107.36,22.061494 107.162289,22.2011566 106.941132,22.3139277 C106.720553,22.426988 106.474789,22.4833735 106.203842,22.4833735 C105.873842,22.4833735 105.603474,22.3948916 105.393605,22.2176386 C105.184026,22.0398072 105.078947,21.7815904 105.078947,21.4424096 C105.078947,20.9965301 105.270579,20.6590843 105.653263,20.4303614 C106.035947,20.2019277 106.652816,20.0446265 107.503579,19.9581687 L107.503579,19.7080482 C107.503579,19.4498313 107.433526,19.2630361 107.292263,19.1470843 C107.151579,19.032 106.961395,18.9741687 106.722289,18.9741687 C106.499105,18.9741687 106.277947,19.0051084 106.059684,19.066988 C105.842,19.1288675 105.629526,19.2106988 105.421974,19.3127711 L105.350184,18.8365301 C105.573079,18.7399518 105.795105,18.6607229 106.016263,18.5988434 C106.236842,18.537253 106.482605,18.5060241 106.754132,18.5060241 C107.599684,18.5060241 108.022605,18.898988 108.022605,19.6840482 L108.022605,22.402988 L107.623711,22.402988 L107.623711,22.402988 Z" id="Fill-32" fill="#666666"></path>
                    <path d="M110.708632,22.3327229 C110.618605,22.3457349 110.517289,22.3520964 110.405553,22.3520964 C110.256763,22.3520964 110.122158,22.3364819 110.002895,22.3040964 C109.883053,22.2717108 109.780868,22.2190843 109.695474,22.1467952 C109.610658,22.0742169 109.544368,21.9787952 109.496316,21.860241 C109.448842,21.7425542 109.424526,21.5942169 109.424526,21.4169639 L109.424526,18.9235663 L108.842105,18.9235663 L108.842105,18.4721928 L109.424526,18.4721928 L109.424526,17.149012 L109.942974,17.060241 L109.942974,18.4721928 L110.812553,18.4721928 L110.884342,18.9235663 L109.942974,18.9235663 L109.942974,21.3276145 C109.942974,21.5216386 109.985526,21.6624578 110.070632,21.7515181 C110.155447,21.84 110.299316,21.8845301 110.501658,21.8845301 C110.559842,21.8845301 110.622658,21.8807711 110.689237,21.8726747 C110.755526,21.8642892 110.809658,21.8550361 110.852211,21.8443373 L110.931816,22.2881928 C110.873053,22.3040964 110.798947,22.3188434 110.708632,22.3327229" id="Fill-33" fill="#666666"></path>
                    <path d="M111.856684,22.2731566 L112.374553,22.2731566 L112.374553,18.4571566 L111.856684,18.4571566 L111.856684,22.2731566 Z M112.494395,17.1582651 C112.494395,17.2655422 112.458211,17.3569157 112.387,17.4323855 C112.315211,17.5081446 112.226053,17.5454458 112.119816,17.5454458 C112.013289,17.5454458 111.922974,17.5081446 111.848868,17.4323855 C111.773605,17.3569157 111.736842,17.2655422 111.736842,17.1582651 C111.736842,17.0504096 111.773605,16.9590361 111.848868,16.8838554 C111.922974,16.8083855 112.013289,16.7710843 112.119816,16.7710843 C112.226053,16.7710843 112.315211,16.8083855 112.387,16.8838554 C112.458211,16.9590361 112.494395,17.0504096 112.494395,17.1582651 L112.494395,17.1582651 Z" id="Fill-34" fill="#666666"></path>
                    <path d="M116.337447,20.4986024 C116.337447,20.2785542 116.311974,20.0741205 116.261605,19.8855904 C116.210658,19.6973494 116.135395,19.5348434 116.034368,19.397494 C115.933632,19.2604337 115.810895,19.1531566 115.667316,19.0750843 C115.523737,18.997012 115.356421,18.9579759 115.164789,18.9579759 C114.978658,18.9579759 114.813658,18.9955663 114.670658,19.070747 C114.5265,19.1459277 114.406079,19.2523373 114.307658,19.3893976 C114.208658,19.5264578 114.133974,19.689253 114.083895,19.877494 C114.033526,20.0663133 114.008053,20.2730602 114.008053,20.4986024 C114.008053,20.7192289 114.033526,20.922506 114.083895,21.1078554 C114.133974,21.293494 114.208658,21.4548434 114.307658,21.5919036 C114.406079,21.729253 114.5265,21.8368193 114.670658,21.9148916 C114.813658,21.9926747 114.978658,22.0314217 115.164789,22.0314217 C115.548053,22.0314217 115.839263,21.8891566 116.038132,21.6040482 C116.237868,21.3195181 116.337447,20.9505542 116.337447,20.4986024 L116.337447,20.4986024 Z M116.880211,20.4986024 C116.880211,20.8106024 116.835921,21.090506 116.7485,21.3377349 C116.660211,21.585253 116.539211,21.7937349 116.3855,21.9631807 C116.230921,22.1323373 116.049132,22.2615904 115.839263,22.3503614 C115.628237,22.4388434 115.403895,22.4833735 115.164789,22.4833735 C114.925684,22.4833735 114.702211,22.4388434 114.494658,22.3503614 C114.287395,22.2615904 114.107921,22.1323373 113.955947,21.9631807 C113.804553,21.7937349 113.686158,21.585253 113.601053,21.3377349 C113.516237,21.090506 113.473684,20.8106024 113.473684,20.4986024 C113.473684,20.1813976 113.517105,19.8991807 113.604816,19.6516627 C113.693105,19.4047229 113.812368,19.1959518 113.963763,19.026506 C114.116026,18.8570602 114.293474,18.7278072 114.498711,18.6396145 C114.703368,18.5505542 114.925684,18.5060241 115.164789,18.5060241 C115.409105,18.5060241 115.636342,18.5505542 115.8465,18.6396145 C116.056947,18.7278072 116.237868,18.8570602 116.389263,19.026506 C116.540947,19.1959518 116.660211,19.4047229 116.7485,19.6516627 C116.835921,19.8991807 116.880211,20.1813976 116.880211,20.4986024 L116.880211,20.4986024 Z" id="Fill-35" fill="#666666"></path>
                    <path d="M120.265026,22.402988 L120.265026,19.7728193 C120.265026,19.5255904 120.208,19.3318554 120.093658,19.1916145 C119.979605,19.052241 119.802447,18.9819759 119.563342,18.9819759 C119.361,18.9819759 119.158658,19.041253 118.956605,19.1598072 C118.754842,19.2780723 118.550184,19.4394217 118.342632,19.6438554 L118.342632,22.402988 L117.815789,22.402988 L117.815789,18.586988 L118.223368,18.586988 L118.311079,19.1517108 C118.518632,18.9634699 118.732263,18.8084819 118.952842,18.6876145 C119.173421,18.566747 119.411368,18.5060241 119.666974,18.5060241 C120.044447,18.5060241 120.326105,18.6083855 120.512526,18.8125301 C120.698658,19.0166747 120.791289,19.3046747 120.791289,19.6759518 L120.791289,22.402988 L120.265026,22.402988" id="Fill-36" fill="#666666"></path>
                    <path d="M1.8095,9.32385542 C0.378342105,8.13831325 0,6.57889157 0,5.24674699 C0,4.3046747 0.312631579,2.68048193 1.69428947,1.46226506 C2.74710526,0.552578313 4.12905263,0 6.28418421,0 C7.18878947,0 7.73155263,0.065060241 8.38981579,0.14660241 C8.93257895,0.227855422 9.40963158,0.325012048 9.83747368,0.373879518 C10.0018947,0.390072289 10.0513947,0.454843373 10.0513947,0.536385542 C10.0513947,0.650024096 10.0183947,0.812240964 9.98539474,1.29975904 C9.95268421,1.75460241 9.95268421,2.5179759 9.93618421,2.79412048 C9.91968421,2.98901205 9.87047368,3.13503614 9.73876316,3.13503614 C9.62355263,3.13503614 9.59084211,3.02139759 9.59084211,2.8426988 C9.57405263,2.40404819 9.39342105,1.91710843 9.03128947,1.55971084 C8.53773684,1.0886747 7.56713158,0.74746988 6.23468421,0.74746988 C4.96823684,0.74746988 4.16205263,0.975036145 3.50378947,1.52703614 C2.43476316,2.43672289 2.17163158,3.76857831 2.17163158,5.11691566 C2.17163158,8.3979759 4.73781579,9.95768675 6.67873684,9.95768675 C7.96197368,9.95768675 8.66944737,9.85995181 9.24492105,9.2266988 C9.49184211,8.95026506 9.68955263,8.56048193 9.73876316,8.30053012 C9.77147368,8.08944578 9.80447368,8.0246747 9.91968421,8.0246747 C10.0183947,8.0246747 10.0841053,8.15450602 10.0841053,8.26814458 C10.0841053,8.4306506 9.91968421,9.6326747 9.77147368,10.1037108 C9.70576316,10.3474699 9.64005263,10.412241 9.39342105,10.5096867 C8.81736842,10.7369639 7.71505263,10.818506 6.77744737,10.818506 C4.80352632,10.818506 3.12544737,10.412241 1.8095,9.32385542" id="Fill-37" fill="#666666"></path>
                    <path d="M20.548,5.66920482 C20.548,2.61542169 18.689,0.730987952 16.3529474,0.730987952 C14.7408684,0.730987952 12.8488684,1.57590361 12.8488684,4.98708434 C12.8488684,7.82949398 14.4939474,10.0710361 17.2248421,10.0710361 C18.2449474,10.0710361 20.548,9.6 20.548,5.66920482 L20.548,5.66920482 Z M10.7105263,5.40925301 C10.7105263,3.05407229 12.3886053,0 16.7807895,0 C20.4327895,0 22.7028421,1.99807229 22.7028421,5.16578313 C22.7028421,8.33291566 20.3670789,10.818506 16.6325789,10.818506 C12.4213158,10.818506 10.7105263,7.86187952 10.7105263,5.40925301 L10.7105263,5.40925301 Z" id="Fill-38" fill="#666666"></path>
                    <path d="M25.1781316,8.80366265 C25.2108421,9.87614458 25.3917632,10.2005783 25.6713947,10.2983133 C25.9183158,10.3795663 26.1979474,10.3960482 26.4280789,10.3960482 C26.5927895,10.3960482 26.675,10.4608193 26.675,10.5420723 C26.675,10.6557108 26.5435789,10.6880964 26.3458684,10.6880964 C25.4082632,10.6880964 24.7337895,10.6395181 24.4706579,10.6395181 C24.3389474,10.6395181 23.6482632,10.6880964 22.9080789,10.6880964 C22.7103684,10.6880964 22.5789474,10.6716145 22.5789474,10.5420723 C22.5789474,10.4608193 22.6773684,10.3960482 22.8090789,10.3960482 C23.0065,10.3960482 23.2699211,10.3795663 23.4670526,10.3306988 C23.8453947,10.2335422 23.8948947,9.85966265 23.9111053,8.65763855 L24.0428158,0.471325301 C24.0428158,0.195180723 24.1415263,0 24.2897368,0 C24.4706579,0 24.6677895,0.211084337 24.9147105,0.454843373 C25.0956316,0.633542169 27.2672632,2.82650602 29.3728947,4.8566747 C30.3597105,5.81522892 32.2847105,7.76443373 32.4983421,7.9593253 L32.5640526,7.9593253 L32.4161316,1.81937349 C32.3999211,0.974746988 32.2682105,0.730987952 31.9228684,0.601156627 C31.7089474,0.519903614 31.3633158,0.519903614 31.1658947,0.519903614 C30.9849737,0.519903614 30.9354737,0.454843373 30.9354737,0.373590361 C30.9354737,0.259662651 31.0836842,0.24346988 31.2976053,0.24346988 C32.0542895,0.24346988 32.8274737,0.276433735 33.1401053,0.276433735 C33.3045263,0.276433735 33.8472895,0.24346988 34.5547632,0.24346988 C34.7521842,0.24346988 34.8836053,0.259662651 34.8836053,0.373590361 C34.8836053,0.454843373 34.8013947,0.519903614 34.6369737,0.519903614 C34.4890526,0.519903614 34.3735526,0.519903614 34.1929211,0.568481928 C33.7980789,0.682120482 33.6828684,0.926168675 33.6666579,1.70573494 L33.5019474,10.4119518 C33.5019474,10.7207711 33.3867368,10.8506024 33.2718158,10.8506024 C33.0248947,10.8506024 32.8274737,10.7045783 32.6792632,10.5582651 C31.7746579,9.72954217 29.9648684,8.02438554 28.4515,6.57831325 C26.8724211,5.08424096 25.3425526,3.41089157 25.0629211,3.16771084 L25.0134211,3.16771084 L25.1781316,8.80366265" id="Fill-39" fill="#666666"></path>
                    <path d="M46.0185,9.71392771 C46.0185,10.0872289 46.0185,10.1037108 45.8375789,10.2008675 C44.8669737,10.6721928 43.4358158,10.818506 42.3007895,10.818506 C38.7475,10.818506 35.6052632,9.2266988 35.6052632,5.40925301 C35.6052632,3.20009639 36.8062895,1.65715663 38.1387368,0.893493976 C39.5203947,0.0977349398 40.8201316,0 42.0373684,0 C43.0409737,0 44.3077105,0.162506024 44.6038421,0.227855422 C44.8996842,0.276433735 45.4097368,0.357686747 45.7553684,0.373879518 C45.9197895,0.390072289 45.9525,0.438939759 45.9525,0.536385542 C45.9525,0.69860241 45.8537895,1.07219277 45.8537895,2.81031325 C45.8537895,3.02139759 45.7715789,3.11913253 45.6566579,3.11913253 C45.5579474,3.11913253 45.5249474,3.05407229 45.5087368,2.94014458 C45.4757368,2.63161446 45.3932368,2.19296386 45.0148947,1.80318072 C44.5870526,1.36453012 43.5015263,0.74746988 41.8729474,0.74746988 C41.0832632,0.74746988 40.0799474,0.763662651 39.0763421,1.55971084 C38.2701579,2.20915663 37.7438947,3.23248193 37.7438947,4.9220241 C37.7438947,7.89455422 39.6851053,10.0551325 42.7778421,10.0551325 C43.1561842,10.0551325 43.4520263,10.0551325 43.7976579,9.90881928 C44.0112895,9.81108434 44.0772895,9.66477108 44.0772895,9.4213012 L44.0772895,8.15450602 C44.0772895,7.47209639 44.0772895,6.95219277 44.0607895,6.52973494 C44.0445789,6.05927711 43.8963684,5.91296386 43.4358158,5.78284337 C43.3203158,5.75045783 43.0736842,5.73426506 42.8762632,5.73426506 C42.7448421,5.73426506 42.6461316,5.66920482 42.6461316,5.58795181 C42.6461316,5.4740241 42.7613421,5.45783133 42.9584737,5.45783133 C43.7154474,5.45783133 44.7517632,5.49021687 45.1796053,5.49021687 C45.6401579,5.49021687 46.3968421,5.45783133 46.8738947,5.45783133 C47.0713158,5.45783133 47.1700263,5.4740241 47.1700263,5.58795181 C47.1700263,5.66920482 47.0878158,5.73426506 46.9891053,5.73426506 C46.8738947,5.73426506 46.7586842,5.75045783 46.5942632,5.78284337 C46.1994211,5.84790361 46.0515,6.04279518 46.035,6.52973494 C46.0185,6.95219277 46.0185,7.50477108 46.0185,8.18689157 L46.0185,9.71392771" id="Fill-40" fill="#666666"></path>
                    <path d="M50.7803421,5.35720482 C50.7803421,5.50351807 50.8130526,5.55209639 50.9120526,5.60096386 C51.2243947,5.69840964 51.6522368,5.73108434 52.0140789,5.73108434 C52.5898421,5.73108434 52.7872632,5.68221687 53.0338947,5.50351807 C53.4782368,5.19498795 53.9717895,4.59412048 53.9717895,3.45657831 C53.9717895,1.50766265 52.6225526,1.00424096 51.7674474,1.00424096 C51.4053158,1.00424096 51.0599737,1.02043373 50.9120526,1.05281928 C50.8130526,1.08549398 50.7803421,1.13407229 50.7803421,1.24771084 L50.7803421,5.35720482 L50.7803421,5.35720482 Z M48.9378421,4.2853012 C48.9378421,2.19007229 48.9378421,1.80028916 48.9213421,1.36163855 C48.8886316,0.890313253 48.7566316,0.744289157 48.2963684,0.614168675 C48.1811579,0.581783133 47.9345263,0.565590361 47.7206053,0.565590361 C47.5723947,0.565590361 47.4736842,0.517012048 47.4736842,0.419277108 C47.4736842,0.322120482 47.5888947,0.289156627 47.8028158,0.289156627 C48.5595,0.289156627 49.4808947,0.322120482 49.7767368,0.322120482 C50.2702895,0.322120482 51.5862368,0.289156627 52.0305789,0.289156627 C52.9519737,0.289156627 54.0045,0.370698795 54.7776842,0.874409639 C55.1890263,1.15026506 55.7977895,1.84886747 55.7977895,2.77474699 C55.7977895,3.79807229 55.2055263,4.70746988 53.7908684,5.82853012 C55.0738158,7.38795181 56.0939211,8.63855422 56.9658158,9.49966265 C57.772,10.2951325 58.2814737,10.3601928 58.5118947,10.4087711 C58.6603947,10.4417349 58.7426053,10.4417349 58.8575263,10.4417349 C58.9727368,10.4417349 59.0384474,10.5226988 59.0384474,10.587759 C59.0384474,10.7013976 58.9400263,10.7337831 58.7591053,10.7337831 L57.3768684,10.7337831 C56.5709737,10.7337831 56.1761316,10.6525301 55.7977895,10.4576386 C55.1728158,10.1493976 54.6297632,9.49966265 53.8235789,8.42718072 C53.2478158,7.68028916 52.6393421,6.75440964 52.4584211,6.54303614 C52.3762105,6.46178313 52.2937105,6.44559036 52.195,6.44559036 L50.8955526,6.41320482 C50.8295526,6.41320482 50.7803421,6.44559036 50.7803421,6.52684337 L50.7803421,6.72173494 C50.7803421,8.00501205 50.7968421,9.07720482 50.8625526,9.66159036 C50.9120526,10.0678554 50.9777632,10.3275181 51.4218158,10.3928675 C51.6357368,10.425253 51.9483684,10.4417349 52.1292895,10.4417349 C52.2442105,10.4417349 52.3102105,10.5226988 52.3102105,10.587759 C52.3102105,10.6852048 52.195,10.7337831 52.0140789,10.7337831 C51.1751842,10.7337831 49.9741579,10.6852048 49.7602368,10.6852048 C49.4808947,10.6852048 48.5595,10.7337831 47.9837368,10.7337831 C47.8028158,10.7337831 47.7038158,10.6852048 47.7038158,10.587759 C47.7038158,10.5226988 47.7533158,10.4417349 47.9345263,10.4417349 C48.1481579,10.4417349 48.3128684,10.425253 48.4442895,10.3928675 C48.7407105,10.3275181 48.8226316,10.0678554 48.8721316,9.66159036 C48.9378421,9.07720482 48.9378421,7.98881928 48.9378421,6.72173494 L48.9378421,4.2853012 L48.9378421,4.2853012 Z" id="Fill-41" fill="#666666"></path>
                    <path d="M59.3586053,4.3986506 C59.3586053,2.30342169 59.3586053,1.91363855 59.3421053,1.47498795 C59.3091053,1.00366265 59.1779737,0.857638554 58.7171316,0.727518072 C58.6019211,0.69513253 58.3552895,0.678939759 58.1413684,0.678939759 C57.9934474,0.678939759 57.8947368,0.630361446 57.8947368,0.532626506 C57.8947368,0.43546988 58.0099474,0.402506024 58.2238684,0.402506024 C58.9805526,0.402506024 59.9016579,0.43546988 60.3127105,0.43546988 C60.7735526,0.43546988 63.9812105,0.451373494 64.2611316,0.43546988 C64.5242632,0.418698795 64.7546842,0.370120482 64.8698947,0.354216867 C64.9518158,0.33773494 65.0340263,0.289156627 65.0997368,0.289156627 C65.1822368,0.289156627 65.1987368,0.354216867 65.1987368,0.418698795 C65.1987368,0.516433735 65.1165263,0.678939759 65.0835263,1.31248193 C65.0673158,1.45850602 65.0340263,2.05937349 65.0010263,2.22216867 C64.9851053,2.28693976 64.9518158,2.44944578 64.8368947,2.44944578 C64.7381842,2.44944578 64.7216842,2.3846747 64.7216842,2.27074699 C64.7216842,2.1733012 64.7048947,1.92983133 64.6229737,1.7673253 C64.5074737,1.52356627 64.3925526,1.32838554 63.6688684,1.26361446 C63.4219474,1.23122892 61.6946579,1.19884337 61.3988158,1.19884337 C61.3328158,1.19884337 61.3001053,1.24742169 61.3001053,1.32838554 L61.3001053,4.73956627 C61.3001053,4.82081928 61.3163158,4.88587952 61.3988158,4.88587952 C61.7273684,4.88587952 63.6031579,4.88587952 63.932,4.85349398 C64.2773421,4.82081928 64.4909737,4.78843373 64.6229737,4.64212048 C64.7381842,4.54496386 64.7873947,4.46371084 64.8531053,4.46371084 C64.9191053,4.46371084 64.9686053,4.52848193 64.9686053,4.60973494 C64.9686053,4.69098795 64.9356053,4.91826506 64.8531053,5.61686747 C64.8203947,5.89301205 64.7873947,6.4453012 64.7873947,6.54274699 C64.7873947,6.65638554 64.7711842,6.85127711 64.6391842,6.85127711 C64.5404737,6.85127711 64.5074737,6.8026988 64.5074737,6.7373494 C64.4909737,6.59161446 64.4909737,6.41291566 64.4585526,6.23421687 C64.3760526,5.95807229 64.1951316,5.74698795 63.6523684,5.69783133 C63.3892368,5.66544578 61.7438684,5.63306024 61.3823158,5.63306024 C61.3163158,5.63306024 61.3001053,5.69783133 61.3001053,5.77908434 L61.3001053,6.88395181 C61.3001053,7.35498795 61.2836053,8.52433735 61.3001053,8.93031325 C61.3328158,9.87238554 61.7768684,10.0840482 63.2578158,10.0840482 C63.6355789,10.0840482 64.2446316,10.0675663 64.6229737,9.90506024 C64.9851053,9.74284337 65.1492368,9.45021687 65.2479474,8.8820241 C65.2809474,8.73542169 65.3133684,8.6706506 65.4126579,8.6706506 C65.5278684,8.6706506 65.5440789,8.84906024 65.5440789,8.99566265 C65.5440789,9.30448193 65.4291579,10.2465542 65.3466579,10.5221205 C65.2479474,10.8798072 65.1165263,10.8798072 64.5734737,10.8798072 C63.4879474,10.8798072 62.6160526,10.8636145 61.9088684,10.8306506 C61.2013947,10.814747 60.6583421,10.7985542 60.2307895,10.7985542 C60.0657895,10.7985542 59.7531579,10.814747 59.4081053,10.814747 C59.0630526,10.8306506 58.7006316,10.8471325 58.4045,10.8471325 C58.2238684,10.8471325 58.1248684,10.7985542 58.1248684,10.7011084 C58.1248684,10.6360482 58.1740789,10.5550843 58.3552895,10.5550843 C58.5689211,10.5550843 58.7336316,10.5386024 58.8653421,10.5062169 C59.1611842,10.4408675 59.2436842,10.1812048 59.2928947,9.77493976 C59.3586053,9.19055422 59.3586053,8.10216867 59.3586053,6.83508434 L59.3586053,4.3986506" id="Fill-42" fill="#666666"></path>
                    <path d="M66.8588684,10.4611084 C66.6281579,10.3633735 66.5789474,10.2986024 66.5789474,9.98978313 C66.5789474,9.24260241 66.6452368,8.38178313 66.6614474,8.15450602 C66.6614474,7.94313253 66.7271579,7.79710843 66.8423684,7.79710843 C66.9737895,7.79710843 66.9905789,7.92722892 66.9905789,8.0246747 C66.9905789,8.20308434 67.0397895,8.49542169 67.1217105,8.73918072 C67.4343421,9.76250602 68.5204474,10.1037108 69.4250526,10.1037108 C70.6758684,10.1037108 71.4322632,9.32385542 71.4322632,8.34939759 C71.4322632,7.74824096 71.2840526,7.14737349 70.0008158,6.39990361 L69.1622105,5.91296386 C67.4508421,4.9220241 66.8915789,3.99614458 66.8915789,2.77792771 C66.8915789,1.0886747 68.5369474,0 70.5435789,0 C71.4814737,0 72.2216579,0.130120482 72.5997105,0.227855422 C72.732,0.260240964 72.7977105,0.308819277 72.7977105,0.40626506 C72.7977105,0.584963855 72.7485,0.975036145 72.7485,2.06313253 C72.7485,2.35546988 72.6827895,2.50178313 72.567,2.50178313 C72.4685789,2.50178313 72.4187895,2.42053012 72.4187895,2.25831325 C72.4187895,2.12819277 72.3533684,1.7060241 72.0410263,1.34862651 C71.8268158,1.0886747 71.3659737,0.69860241 70.4286579,0.69860241 C69.3923421,0.69860241 68.4550263,1.2346988 68.4550263,2.17706024 C68.4550263,2.79412048 68.6851579,3.2813494 69.9843158,3.99614458 L70.5768684,4.32086747 C72.4850789,5.36038554 73.0770526,6.41638554 73.0770526,7.66727711 C73.0770526,8.69031325 72.6827895,9.51874699 71.6296842,10.2497349 C70.9387105,10.7369639 69.9843158,10.818506 69.2114211,10.818506 C68.3725263,10.818506 67.4835526,10.7369639 66.8588684,10.4611084" id="Fill-43" fill="#666666"></path>
                    <path d="M74.9638421,10.4611084 C74.7334211,10.3633735 74.6842105,10.2986024 74.6842105,9.98978313 C74.6842105,9.24260241 74.7496316,8.38178313 74.7667105,8.15450602 C74.7667105,7.94313253 74.8321316,7.79710843 74.9476316,7.79710843 C75.0793421,7.79710843 75.0955526,7.92722892 75.0955526,8.0246747 C75.0955526,8.20308434 75.1447632,8.49542169 75.2269737,8.73918072 C75.5401842,9.76250602 76.6257105,10.1037108 77.5303158,10.1037108 C78.7802632,10.1037108 79.5372368,9.32385542 79.5372368,8.34939759 C79.5372368,7.74824096 79.3890263,7.14737349 78.1057895,6.39990361 L77.2666053,5.91296386 C75.5558158,4.9220241 74.9968421,3.99614458 74.9968421,2.77792771 C74.9968421,1.0886747 76.6419211,0 78.6491316,0 C79.5864474,0 80.3266316,0.130120482 80.7046842,0.227855422 C80.8363947,0.260240964 80.9026842,0.308819277 80.9026842,0.40626506 C80.9026842,0.584963855 80.8528947,0.975036145 80.8528947,2.06313253 C80.8528947,2.35546988 80.7874737,2.50178313 80.6725526,2.50178313 C80.5735526,2.50178313 80.5243421,2.42053012 80.5243421,2.25831325 C80.5243421,2.12819277 80.4589211,1.7060241 80.1457105,1.34862651 C79.9317895,1.0886747 79.4712368,0.69860241 78.5336316,0.69860241 C77.4973158,0.69860241 76.5594211,1.2346988 76.5594211,2.17706024 C76.5594211,2.79412048 76.7901316,3.2813494 78.0892895,3.99614458 L78.6818421,4.32086747 C80.5900526,5.36038554 81.1826053,6.41638554 81.1826053,7.66727711 C81.1826053,8.69031325 80.7874737,9.51874699 79.7346579,10.2497349 C79.0436842,10.7369639 78.0892895,10.818506 77.3163947,10.818506 C76.4775,10.818506 75.5893947,10.7369639 74.9638421,10.4611084" id="Fill-44" fill="#666666"></path>
                    <path d="M96.3866316,9.71392771 C96.3866316,10.0872289 96.3866316,10.1037108 96.2057105,10.2008675 C95.2351053,10.6721928 93.8042368,10.818506 92.6689211,10.818506 C89.1153421,10.818506 85.9736842,9.2266988 85.9736842,5.40925301 C85.9736842,3.20009639 87.1744211,1.65715663 88.5065789,0.893493976 C89.8882368,0.0977349398 91.1879737,0 92.4052105,0 C93.4088158,0 94.6758421,0.162506024 94.9716842,0.227855422 C95.2678158,0.276433735 95.7778684,0.357686747 96.1232105,0.373879518 C96.2879211,0.390072289 96.3206316,0.438939759 96.3206316,0.536385542 C96.3206316,0.69860241 96.2222105,1.07219277 96.2222105,2.81031325 C96.2222105,3.02139759 96.1397105,3.11913253 96.0247895,3.11913253 C95.9260789,3.11913253 95.8930789,3.05407229 95.8768684,2.94014458 C95.8438684,2.63161446 95.7619474,2.19296386 95.3833158,1.80318072 C94.9551842,1.36453012 93.8696579,0.74746988 92.2413684,0.74746988 C91.4511053,0.74746988 90.4480789,0.763662651 89.4450526,1.55971084 C88.6388684,2.20915663 88.1117368,3.23248193 88.1117368,4.9220241 C88.1117368,7.89455422 90.0532368,10.0551325 93.1459737,10.0551325 C93.5248947,10.0551325 93.8204474,10.0551325 94.1660789,9.90881928 C94.3797105,9.81108434 94.4457105,9.66477108 94.4457105,9.4213012 L94.4457105,8.15450602 C94.4457105,7.47209639 94.4457105,6.95219277 94.4289211,6.52973494 C94.4124211,6.05927711 94.2642105,5.91296386 93.8042368,5.78284337 C93.6887368,5.75045783 93.4423947,5.73426506 93.2443947,5.73426506 C93.1132632,5.73426506 93.0142632,5.66920482 93.0142632,5.58795181 C93.0142632,5.4740241 93.1294737,5.45783133 93.3268947,5.45783133 C94.0832895,5.45783133 95.1201842,5.49021687 95.5477368,5.49021687 C96.0085789,5.49021687 96.7649737,5.45783133 97.2417368,5.45783133 C97.4394474,5.45783133 97.5384474,5.4740241 97.5384474,5.58795181 C97.5384474,5.66920482 97.4559474,5.73426506 97.3575263,5.73426506 C97.2417368,5.73426506 97.1273947,5.75045783 96.9623947,5.78284337 C96.5675526,5.84790361 96.4196316,6.04279518 96.4031316,6.52973494 C96.3866316,6.95219277 96.3866316,7.50477108 96.3866316,8.18689157 L96.3866316,9.71392771" id="Fill-45" fill="#666666"></path>
                    <path d="M107.679289,5.66920482 C107.679289,2.61542169 105.820289,0.730987952 103.484816,0.730987952 C101.872158,0.730987952 99.9804474,1.57590361 99.9804474,4.98708434 C99.9804474,7.82949398 101.625816,10.0710361 104.356421,10.0710361 C105.376526,10.0710361 107.679289,9.6 107.679289,5.66920482 L107.679289,5.66920482 Z M97.8421053,5.40925301 C97.8421053,3.05407229 99.5201842,0 103.912079,0 C107.563789,0 109.834421,1.99807229 109.834421,5.16578313 C109.834421,8.33291566 107.498368,10.818506 103.764158,10.818506 C99.5531842,10.818506 97.8421053,7.86187952 97.8421053,5.40925301 L97.8421053,5.40925301 Z" id="Fill-46" fill="#666666"></path>
                    <path d="M110.634526,1.63749398 C110.305974,0.874409639 110.091763,0.744289157 109.565789,0.614168675 C109.351579,0.565590361 109.121447,0.565590361 109.006237,0.565590361 C108.874237,0.565590361 108.842105,0.50053012 108.842105,0.419277108 C108.842105,0.305349398 108.989737,0.289156627 109.203368,0.289156627 C109.976842,0.289156627 110.798947,0.322120482 111.309,0.322120482 C111.671421,0.322120482 112.427816,0.289156627 113.152079,0.289156627 C113.333,0.289156627 113.496842,0.322120482 113.496842,0.419277108 C113.496842,0.517012048 113.398421,0.565590361 113.266711,0.565590361 C113.036579,0.565590361 112.822368,0.581783133 112.707737,0.663036145 C112.608737,0.727807229 112.559526,0.809349398 112.559526,0.939180723 C112.559526,1.11787952 112.691237,1.49146988 112.888658,1.9786988 L115.323132,8.16722892 L115.372342,8.16722892 C115.997605,6.73792771 117.856605,2.28722892 118.201947,1.37783133 C118.267658,1.19913253 118.333658,0.987759036 118.333658,0.874409639 C118.333658,0.727807229 118.267658,0.679228916 118.135947,0.630650602 C117.971816,0.581783133 117.741105,0.565590361 117.560184,0.565590361 C117.429053,0.565590361 117.313842,0.517012048 117.313842,0.419277108 C117.313842,0.322120482 117.445553,0.289156627 117.724895,0.289156627 C118.448579,0.289156627 119.090342,0.322120482 119.271263,0.322120482 C119.517605,0.322120482 120.192658,0.289156627 120.636421,0.289156627 C120.817342,0.289156627 120.932842,0.322120482 120.932842,0.419277108 C120.932842,0.517012048 120.850342,0.565590361 120.702711,0.565590361 C120.5545,0.565590361 120.241868,0.549108434 119.995237,0.727807229 C119.814026,0.857927711 119.616605,1.0693012 119.238263,1.9460241 C118.662211,3.24549398 118.284447,3.99296386 117.494184,5.68221687 C116.573079,7.69648193 115.898605,9.20674699 115.570053,9.9053494 C115.207632,10.7013976 115.075921,10.9127711 114.878789,10.9127711 C114.681368,10.9127711 114.566158,10.7337831 114.286816,10.0840482 L110.634526,1.63749398" id="Fill-47" fill="#666666"></path>
                    <polyline id="Fill-48" fill="#666666" points="83.7212895 7.80722892 84.0773421 8.96038554 85.2323421 8.96038554 84.2985 9.67257831 84.6551316 10.8254458 83.7212895 10.113253 82.7871579 10.8254458 83.1440789 9.67257831 82.2105263 8.96038554 83.3643684 8.96038554 83.7212895 7.80722892"></polyline>
                </g>
            </g>
        </g>
    </g>
</svg>