<?xml version="1.0" encoding="UTF-8" standalone="no"?>
<svg width="176px" height="24px" viewBox="0 0 176 24" version="1.1" xmlns="http://www.w3.org/2000/svg" xmlns:xlink="http://www.w3.org/1999/xlink">
    <!-- Generator: Sketch 39.1 (31720) - http://www.bohemiancoding.com/sketch -->
    <title>Copyright.gov</title>
    <desc>Created with Sketch.</desc>
    <defs></defs>
    <g id="Page-1" stroke="none" stroke-width="1" fill="none" fill-rule="evenodd">
        <g id="Copyright.gov" fill="#666666">
            <path d="M173.697737,20.1027686 C173.401764,20.1027686 173.179783,20.3247487 173.155119,20.6207223 L174.141697,20.6207223 C174.166362,20.3003309 173.969046,20.1027686 173.697737,20.1027686 L173.697737,20.1027686 Z M175.103611,21.2375804 L173.155119,21.2375804 C173.155119,21.6319651 173.426428,21.8786097 173.969046,21.8786097 C174.289931,21.8786097 174.610322,21.804863 174.906542,21.6815407 L175.004953,22.371899 C174.634987,22.5201324 174.215691,22.5941257 173.796395,22.5941257 C172.735823,22.5941257 172.143629,22.1008365 172.143629,21.0402647 C172.143629,20.127433 172.711159,19.4368282 173.722401,19.4368282 C174.684315,19.4368282 175.128276,20.0534397 175.128276,20.8427024 C175.128276,20.9662714 175.103611,21.0895937 175.103611,21.2375804 L175.103611,21.2375804 Z M171.058393,22.5694613 C170.071815,22.5694613 169.504532,22.0761721 169.504532,21.1140115 C169.504532,20.2014264 170.096726,19.4368282 171.280373,19.4368282 C171.5026,19.4368282 171.724334,19.4614926 171.921896,19.5108215 L171.823238,20.3247487 C171.65034,20.2754198 171.477689,20.2260909 171.305038,20.2260909 C170.83666,20.2260909 170.540439,20.5469755 170.540439,21.0402647 C170.540439,21.484225 170.83666,21.7799519 171.280373,21.7799519 C171.477689,21.7799519 171.675251,21.7308696 171.847656,21.6815407 L171.921896,22.446139 C171.699916,22.5201324 171.379278,22.5694613 171.058393,22.5694613 L171.058393,22.5694613 Z M167.975336,22.5201324 L167.975336,20.2260909 L166.98851,20.2260909 L166.98851,22.5201324 L166.001932,22.5201324 L166.001932,20.2260909 L164.916696,20.2260909 L164.916696,22.5201324 L163.905453,22.5201324 L163.905453,20.2260909 L163.411917,20.2260909 L163.411917,19.5108215 L163.905453,19.5108215 L163.905453,19.2395125 C163.905453,18.4502497 164.300084,18.0309539 165.237334,18.0309539 C165.409985,18.0309539 165.607301,18.0556184 165.779952,18.0802828 L165.705959,18.8448811 C165.582636,18.7955522 165.459314,18.7955522 165.335992,18.7955522 C165.040018,18.7955522 164.916696,18.9188745 164.916696,19.2395125 L164.916696,19.5108215 L166.001932,19.5108215 L166.001932,19.4121637 C166.001932,18.4995786 166.520132,18.0309539 167.654451,18.0309539 C168.073747,18.0309539 168.345302,18.0802828 168.715269,18.1542762 L168.542618,18.9188745 C168.295974,18.8448811 168.024418,18.7955522 167.753355,18.7955522 C167.210491,18.7955522 166.98851,18.9928679 166.98851,19.3628348 L166.98851,19.5108215 L168.986578,19.5108215 L168.986578,22.5201324 L167.975336,22.5201324 L167.975336,22.5201324 Z M161.043882,19.214848 C160.501511,19.214848 160.007975,19.5848149 160.007975,20.4483177 C160.007975,21.2375804 160.328859,21.7308696 161.019464,21.7308696 C161.512754,21.7308696 162.080283,21.3853205 162.080283,20.4727355 C162.080283,19.6588083 161.710069,19.214848 161.043882,19.214848 L161.043882,19.214848 Z M160.970135,22.5941257 C159.588679,22.5941257 158.922985,21.804863 158.922985,20.5220644 C158.922985,19.1901835 159.909564,18.3515919 161.118122,18.3515919 C162.277352,18.3515919 163.165272,18.9682034 163.165272,20.3987421 C163.165272,21.7555341 162.178694,22.5941257 160.970135,22.5941257 L160.970135,22.5941257 Z M156.48071,22.5941257 C155.740777,22.5941257 155.494132,22.3474811 155.494132,21.6075473 L155.494132,20.2260909 L155.000843,20.2260909 L155.000843,19.5108215 L155.494132,19.5108215 L155.494132,18.622901 L156.48071,18.3762563 L156.48071,19.5108215 L157.196226,19.5108215 L157.196226,20.2260909 L156.48071,20.2260909 L156.48071,21.4102316 C156.48071,21.7062052 156.579615,21.804863 156.826259,21.804863 C156.949582,21.804863 157.097322,21.7799519 157.196226,21.7555341 L157.196226,22.4952213 C156.974,22.5450435 156.727355,22.5941257 156.48071,22.5941257 L156.48071,22.5941257 Z M153.644297,22.5201324 L153.644297,20.5960578 C153.644297,20.3494132 153.570304,20.2260909 153.348324,20.2260909 C152.978357,20.2260909 152.682383,20.6207223 152.682383,21.0649292 L152.682383,22.5201324 L151.695558,22.5201324 L151.695558,18.7955522 C151.523154,18.7708877 151.301174,18.7462233 151.128276,18.7462233 L151.128276,18.1542762 C151.597147,18.1049473 152.139765,18.0802828 152.682383,18.0802828 L152.682383,19.3135058 C152.682383,19.4861571 152.682383,19.7328017 152.633054,19.9301174 C152.83037,19.6341438 153.175673,19.4368282 153.668962,19.4368282 C154.408896,19.4368282 154.630876,19.8807884 154.630876,20.3987421 L154.630876,22.5201324 L153.644297,22.5201324 L153.644297,22.5201324 Z M149.993711,20.2260909 C149.895053,20.2014264 149.796395,20.1770086 149.648408,20.1770086 C149.253777,20.1770086 148.957803,20.3987421 148.957803,21.0895937 C148.957803,21.5828829 149.10579,21.804863 149.401764,21.804863 C149.747066,21.804863 149.993711,21.4595606 149.993711,20.9416069 L149.993711,20.2260909 L149.993711,20.2260909 Z M149.10579,24 C148.760488,24 148.390521,23.9506711 148.094547,23.8766777 L148.168294,23.0383327 C148.464514,23.161655 148.834481,23.2107373 149.155119,23.2107373 C149.722401,23.2107373 149.993711,23.0383327 149.993711,22.5941257 L149.993711,22.4708034 C149.993711,22.3474811 149.993711,22.2485767 150.018375,22.1008365 C149.845724,22.3968101 149.525086,22.5694613 149.130454,22.5694613 C148.341192,22.5694613 147.897231,22.0761721 147.897231,21.1882515 C147.897231,20.2014264 148.538261,19.4368282 149.722401,19.4368282 C150.240355,19.4368282 150.610569,19.4861571 150.980536,19.535486 L150.980536,22.5201324 C150.980536,23.3093951 150.585658,24 149.10579,24 L149.10579,24 Z M146.885742,19.1901835 C146.565104,19.1901835 146.294041,18.9435389 146.294041,18.6475654 C146.294041,18.3515919 146.565104,18.1049473 146.885742,18.1049473 C147.231291,18.1049473 147.502353,18.3515919 147.502353,18.6475654 C147.502353,18.9435389 147.231291,19.1901835 146.885742,19.1901835 L146.885742,19.1901835 Z M146.392453,22.5201324 L146.392453,20.2014264 C146.244713,20.1770086 145.998068,20.1520975 145.82517,20.1520975 L145.82517,19.5601505 C146.294041,19.5108215 146.836413,19.4861571 147.403942,19.5108215 L147.403942,22.5201324 L146.392453,22.5201324 L146.392453,22.5201324 Z M145.627854,20.3494132 C145.085236,20.2260909 144.813927,20.5220644 144.813927,21.2869093 L144.813927,22.5201324 L143.802438,22.5201324 L143.802438,20.2014264 C143.654698,20.1770086 143.432471,20.1520975 143.235155,20.1520975 L143.235155,19.5601505 C143.704026,19.5108215 144.246645,19.4861571 144.739934,19.5108215 C144.739934,19.6341438 144.715269,19.856124 144.690605,20.0287752 C144.863256,19.6834728 145.183894,19.4121637 145.677183,19.4368282 L145.627854,20.3494132 L145.627854,20.3494132 Z M141.829281,22.766777 C141.434649,23.7286909 141.064683,24 140.324749,24 C140.151851,24 139.979446,23.9753355 139.83146,23.9506711 L139.880788,23.161655 C140.05344,23.2107373 140.176762,23.2351551 140.349413,23.2351551 C140.571393,23.2351551 140.744045,23.1367439 140.867367,22.766777 L140.966025,22.5201324 L139.781884,19.5108215 L140.891785,19.5108215 L141.212669,20.3740777 C141.311327,20.6453867 141.409985,20.9662714 141.483978,21.2619982 C141.558218,20.9662714 141.705959,20.5469755 141.804863,20.3003309 L142.10059,19.5108215 L143.161408,19.5108215 L141.829281,22.766777 L141.829281,22.766777 Z M138.15403,20.2014264 C137.833392,20.2014264 137.586747,20.57164 137.586747,21.0649292 L137.586747,21.804863 C137.685405,21.8295275 137.784063,21.8541919 137.932049,21.8541919 C138.326681,21.8541919 138.622654,21.6075473 138.622654,20.9416069 C138.622654,20.4483177 138.474914,20.2014264 138.15403,20.2014264 L138.15403,20.2014264 Z M137.932049,22.5694613 C137.784063,22.5694613 137.685405,22.5694613 137.586747,22.5450435 L137.586747,23.9506711 L136.600169,23.9506711 L136.600169,20.2014264 C136.427517,20.1770086 136.205291,20.1520975 136.008221,20.1520975 L136.008221,19.5601505 C136.501511,19.5108215 137.019464,19.4861571 137.512754,19.5108215 C137.512754,19.6341438 137.512754,19.7821306 137.488089,19.9301174 C137.685405,19.6341438 138.006043,19.4368282 138.474914,19.4368282 C139.264177,19.4368282 139.658562,19.9794463 139.658562,20.8427024 C139.658562,21.8786097 139.091526,22.5694613 137.932049,22.5694613 L137.932049,22.5694613 Z M134.207469,20.2260909 C133.911742,20.2260909 133.590858,20.4483177 133.590858,20.9906892 C133.590858,21.5333073 133.78842,21.7799519 134.207469,21.7799519 C134.552772,21.7799519 134.799416,21.5086428 134.799416,21.0153536 C134.799416,20.4974 134.626765,20.2260909 134.207469,20.2260909 L134.207469,20.2260909 Z M134.133476,22.5941257 C133.171562,22.5941257 132.55495,22.1501655 132.55495,21.0895937 C132.55495,20.1027686 133.294884,19.4368282 134.281709,19.4368282 C135.268288,19.4368282 135.835324,19.9547818 135.835324,20.9416069 C135.835324,21.9281853 135.09539,22.5941257 134.133476,22.5941257 L134.133476,22.5941257 Z M131.124412,22.5694613 C129.471646,22.5694613 129.003021,21.5582184 129.003021,20.6207223 C129.003021,19.2888414 129.816949,18.4009208 131.296816,18.4009208 C131.59279,18.4009208 131.987668,18.4255853 132.25873,18.4995786 L132.135408,19.3628348 C131.888763,19.2888414 131.543461,19.2395125 131.272152,19.2395125 C130.556882,19.2395125 130.112922,19.7328017 130.112922,20.4727355 C130.112922,21.2619982 130.5078,21.7062052 131.321727,21.7062052 C131.543461,21.7062052 131.962757,21.6568762 132.160319,21.5582184 L132.283641,22.3968101 C131.962757,22.5201324 131.494379,22.5694613 131.124412,22.5694613 L131.124412,22.5694613 Z M125.821059,22.5941257 C125.599079,22.5941257 125.352435,22.5694613 125.155119,22.5450435 L125.155119,21.7799519 C125.352435,21.8295275 125.599079,21.8786097 125.845724,21.8786097 C126.092368,21.8786097 126.265266,21.7799519 126.265266,21.6568762 C126.265266,21.212916 125.056461,21.4348961 125.056461,20.4483177 C125.056461,19.9054529 125.54975,19.4368282 126.511911,19.4368282 C126.684315,19.4368282 126.881878,19.4614926 127.078947,19.4861571 L127.054529,20.2014264 C126.881878,20.1520975 126.684315,20.127433 126.487,20.127433 C126.215691,20.127433 126.092368,20.2260909 126.092368,20.3494132 C126.092368,20.7440446 127.325591,20.6207223 127.325591,21.5582184 C127.325591,22.1994944 126.733644,22.5941257 125.821059,22.5941257 L125.821059,22.5941257 Z M123.231291,20.1027686 C122.959735,20.1027686 122.738002,20.3247487 122.713091,20.6207223 L123.699669,20.6207223 C123.699669,20.3003309 123.527018,20.1027686 123.231291,20.1027686 L123.231291,20.1027686 Z M124.637165,21.2375804 L122.713091,21.2375804 C122.713091,21.6319651 122.984646,21.8786097 123.502353,21.8786097 C123.822991,21.8786097 124.16854,21.804863 124.464514,21.6815407 L124.563172,22.371899 C124.192958,22.5201324 123.748998,22.5941257 123.354613,22.5941257 C122.293795,22.5941257 121.701848,22.1008365 121.701848,21.0402647 C121.701848,20.127433 122.244466,19.4368282 123.255709,19.4368282 C124.242287,19.4368282 124.686494,20.0534397 124.686494,20.8427024 C124.686494,20.9662714 124.66183,21.0895937 124.637165,21.2375804 L124.637165,21.2375804 Z M120.641276,22.5941257 C119.876431,22.5941257 119.629786,22.3474811 119.629786,21.6075473 L119.629786,20.2260909 L119.136497,20.2260909 L119.136497,19.5108215 L119.629786,19.5108215 L119.629786,18.622901 L120.641276,18.3762563 L120.641276,19.5108215 L121.331881,19.5108215 L121.331881,20.2260909 L120.641276,20.2260909 L120.641276,21.4102316 C120.641276,21.7062052 120.715269,21.804863 120.986578,21.804863 C121.085236,21.804863 121.233223,21.7799519 121.331881,21.7555341 L121.331881,22.4952213 C121.134565,22.5450435 120.863256,22.5941257 120.641276,22.5941257 L120.641276,22.5941257 Z M117.557972,21.212916 C116.842702,21.212916 116.670051,21.4102316 116.670051,21.6319651 C116.670051,21.7799519 116.793373,21.8786097 116.990689,21.8786097 C117.335992,21.8786097 117.557972,21.6075473 117.557972,21.3115738 L117.557972,21.212916 L117.557972,21.212916 Z M117.65663,22.5201324 C117.65663,22.371899 117.65663,22.2241588 117.681294,22.0515076 C117.508643,22.371899 117.114011,22.5941257 116.670051,22.5941257 C116.053193,22.5941257 115.732802,22.2485767 115.732802,21.7555341 C115.732802,20.9906892 116.522064,20.6453867 117.557972,20.6453867 L117.557972,20.5220644 C117.557972,20.2754198 117.409985,20.1520975 116.966025,20.1520975 C116.694716,20.1520975 116.299838,20.2260909 116.028775,20.3740777 L115.954782,19.6094794 C116.27542,19.5108215 116.71938,19.4368282 117.114011,19.4368282 C118.248823,19.4368282 118.569215,19.8067951 118.569215,20.4974 L118.569215,21.804863 C118.717201,21.8295275 118.939182,21.8541919 119.136497,21.8786097 L119.136497,22.4708034 C118.667872,22.5201324 118.125501,22.5450435 117.65663,22.5201324 L117.65663,22.5201324 Z M114.647319,22.5941257 C113.882967,22.5941257 113.66074,22.3474811 113.66074,21.6075473 L113.66074,20.2260909 L113.167451,20.2260909 L113.167451,19.5108215 L113.66074,19.5108215 L113.66074,18.622901 L114.647319,18.3762563 L114.647319,19.5108215 L115.362835,19.5108215 L115.362835,20.2260909 L114.647319,20.2260909 L114.647319,21.4102316 C114.647319,21.7062052 114.746223,21.804863 114.992868,21.804863 C115.11619,21.804863 115.239512,21.7799519 115.362835,21.7555341 L115.362835,22.4952213 C115.140608,22.5450435 114.893963,22.5941257 114.647319,22.5941257 L114.647319,22.5941257 Z M111.144965,22.5941257 C110.824081,22.5941257 110.528107,22.5694613 110.23238,22.4952213 L110.281463,21.6319651 C110.528107,21.7062052 110.898074,21.7799519 111.218959,21.7799519 C111.588926,21.7799519 111.859988,21.6319651 111.859988,21.3362383 C111.859988,20.6453867 110.109058,21.0153536 110.109058,19.6341438 C110.109058,18.8695456 110.750087,18.3515919 111.859988,18.3515919 C112.082215,18.3515919 112.378188,18.3762563 112.649497,18.4255853 L112.600169,19.2395125 C112.353277,19.1901835 112.082215,19.1408546 111.810906,19.1408546 C111.39161,19.1408546 111.194048,19.3135058 111.194048,19.535486 C111.194048,20.1770086 112.945471,19.9301174 112.945471,21.212916 C112.945471,22.001932 112.279531,22.5941257 111.144965,22.5941257 L111.144965,22.5941257 Z M106.976425,20.2260909 C106.87752,20.2014264 106.754198,20.1770086 106.630876,20.1770086 C106.260909,20.1770086 105.964935,20.3987421 105.964935,21.0895937 C105.964935,21.5828829 106.088258,21.8295275 106.409142,21.8295275 C106.754198,21.8295275 106.976425,21.4595606 106.976425,20.9662714 L106.976425,20.2260909 L106.976425,20.2260909 Z M107.050172,22.5201324 C107.050172,22.3968101 107.075083,22.2485767 107.075083,22.0761721 C106.902432,22.371899 106.581547,22.5941257 106.088258,22.5941257 C105.298995,22.5941257 104.904364,22.0268432 104.904364,21.1882515 C104.904364,20.2014264 105.54564,19.4368282 106.655787,19.4368282 C106.754198,19.4368282 106.87752,19.4614926 106.976425,19.4614926 L106.976425,18.7955522 C106.828191,18.7708877 106.606458,18.7462233 106.409142,18.7462233 L106.409142,18.1542762 C106.87752,18.1049473 107.420139,18.0802828 107.963003,18.0802828 L107.963003,21.804863 C108.135655,21.8295275 108.357635,21.8541919 108.55495,21.8786097 L108.55495,22.4708034 C108.061661,22.5201324 107.519043,22.5450435 107.050172,22.5201324 L107.050172,22.5201324 Z M103.103611,20.1027686 C102.807638,20.1027686 102.610322,20.3247487 102.585904,20.6207223 L103.572483,20.6207223 C103.572483,20.3003309 103.399831,20.1027686 103.103611,20.1027686 L103.103611,20.1027686 Z M107.593036,15.7369124 C104.879699,15.7369124 103.572483,14.5036894 103.572483,11.7903521 C103.572483,10.5571291 103.621812,8.46040326 103.621812,7.64647607 L101.673319,7.64647607 L101.673319,4.76073418 C104.460157,4.68649415 104.83037,4.39076727 104.904364,1.80075227 L107.469714,1.80075227 L107.469714,4.71115861 L110.676341,4.71115861 L110.676341,7.64647607 L107.494132,7.64647607 C107.494132,7.64647607 107.420139,10.1871621 107.420139,12.2836413 C107.420139,13.393542 107.691694,13.6155222 108.11099,13.6155222 C108.406717,13.6155222 108.801595,13.3688776 108.801595,12.6289437 C108.801595,12.3822991 108.752266,12.0369967 108.653608,11.7903521 L110.848992,11.7903521 C110.922985,12.0123322 110.996732,12.4072102 110.996732,12.7771772 C110.996732,14.8736563 109.56644,15.7369124 107.593036,15.7369124 L107.593036,15.7369124 Z M104.509732,21.2375804 L102.560993,21.2375804 C102.585904,21.6319651 102.832549,21.8786097 103.375167,21.8786097 C103.695805,21.8786097 104.041107,21.804863 104.336834,21.6815407 L104.435739,22.371899 C104.065772,22.5201324 103.621812,22.5941257 103.226934,22.5941257 C102.141697,22.5941257 101.574415,22.1008365 101.574415,21.0402647 C101.574415,20.127433 102.117033,19.4368282 103.128522,19.4368282 C104.115101,19.4368282 104.534397,20.0534397 104.534397,20.8427024 C104.534397,20.9662714 104.534397,21.0895937 104.509732,21.2375804 L104.509732,21.2375804 Z M100.489178,22.5941257 C99.7492447,22.5941257 99.5026,22.3474811 99.5026,21.6075473 L99.5026,20.2260909 L99.0093108,20.2260909 L99.0093108,19.5108215 L99.5026,19.5108215 L99.5026,18.622901 L100.489178,18.3762563 L100.489178,19.5108215 L101.204448,19.5108215 L101.204448,20.2260909 L100.513596,20.2260909 L100.513596,21.4102316 C100.513596,21.7062052 100.587836,21.804863 100.834481,21.804863 C100.957803,21.804863 101.10579,21.7799519 101.204448,21.7555341 L101.204448,22.4952213 C100.982468,22.5450435 100.735823,22.5941257 100.489178,22.5941257 L100.489178,22.5941257 Z M98.1458081,19.1901835 C97.8005056,19.1901835 97.5291966,18.9435389 97.5291966,18.6475654 C97.5291966,18.3515919 97.8005056,18.1049473 98.1458081,18.1049473 C98.4666927,18.1049473 98.7626662,18.3515919 98.7626662,18.6475654 C98.7626662,18.9435389 98.4666927,19.1901835 98.1458081,19.1901835 L98.1458081,19.1901835 Z M97.6278544,22.5201324 L97.6278544,20.2014264 C97.4801143,20.1770086 97.2578875,20.1520975 97.0605718,20.1520975 L97.0605718,19.5601505 C97.553861,19.5108215 98.0718147,19.4861571 98.6393439,19.5108215 L98.6393439,22.5201324 L97.6278544,22.5201324 L97.6278544,22.5201324 Z M95.679362,22.5201324 L95.679362,20.5960578 C95.679362,20.3494132 95.6300331,20.2260909 95.3833885,20.2260909 C95.0378394,20.2260909 94.7418659,20.6207223 94.7418659,21.0649292 L94.7418659,22.5201324 L93.7552874,22.5201324 L93.7552874,20.2014264 C93.5826362,20.1770086 93.3606561,20.1520975 93.1633404,20.1520975 L93.1633404,19.5601505 C93.6568762,19.5108215 94.1992477,19.4861571 94.6678725,19.5108215 C94.6678725,19.6094794 94.6678725,19.8314595 94.6434547,19.9794463 C94.8405237,19.6834728 95.2104906,19.4368282 95.7286909,19.4368282 C96.4437136,19.4368282 96.6903583,19.8807884 96.6903583,20.3987421 L96.6903583,22.5201324 L95.679362,22.5201324 L95.679362,22.5201324 Z M90.9186278,22.5941257 C89.5127536,22.5941257 89.1674511,21.9032742 89.1674511,21.0649292 L89.1674511,18.4255853 L90.178694,18.4255853 L90.178694,21.0153536 C90.178694,21.5086428 90.3513452,21.804863 90.9928679,21.804863 C91.5601505,21.804863 91.7821306,21.5828829 91.7821306,20.9662714 L91.7821306,18.4255853 L92.7933735,18.4255853 L92.7933735,20.9169424 C92.7933735,22.0515076 92.1027686,22.5941257 90.9186278,22.5941257 L90.9186278,22.5941257 Z M95.4820463,15.4902678 L95.4820463,12.555197 L96.5670359,12.555197 C96.5670359,12.555197 96.6166115,10.5571291 96.6166115,9.12659034 C96.6166115,8.3124165 96.3453024,7.52315376 95.358724,7.52315376 C94.3228167,7.52315376 93.7801985,8.33732761 93.7801985,9.37323495 L93.7801985,12.555197 L94.8405237,12.555197 L94.8405237,15.4902678 L88.4768462,15.4902678 L88.4768462,12.555197 L89.907385,12.555197 L89.907385,3.84790249 L88.4768462,3.84790249 L88.4768462,0.912831686 L93.7552874,0.912831686 L93.7552874,6.58590426 L93.8046164,6.61056872 C94.4705568,5.13070109 95.6544509,4.43984955 97.3072164,4.43984955 C99.5270179,4.43984955 100.489178,6.06795059 100.489178,7.96711405 C100.489178,9.32365938 100.43985,12.555197 100.43985,12.555197 L101.870388,12.555197 L101.870388,15.4902678 L95.4820463,15.4902678 L95.4820463,15.4902678 Z M82.0635932,6.11727951 C81.3976528,6.11727951 81.1016792,6.93120671 81.1016792,7.84379175 C81.1016792,8.70729451 81.3483238,9.39789941 82.0389287,9.39789941 C82.6804514,9.39789941 83.0010893,8.58372557 83.0010893,7.72046945 C83.0010893,6.85721333 82.7295336,6.11727951 82.0635932,6.11727951 L82.0635932,6.11727951 Z M81.0770148,14.8736563 C80.7810413,14.9969786 80.4110743,15.3669455 80.4110743,15.8602347 C80.4110743,16.3535239 80.8550346,16.9701354 82.2362444,16.9701354 C83.7656876,16.9701354 84.3576347,16.3535239 84.3576347,15.7615769 C84.3576347,15.0216431 83.4203852,14.8736563 81.0770148,14.8736563 L81.0770148,14.8736563 Z M88.945471,6.53657534 L86.8736563,6.53657534 C86.9227386,6.41325304 86.947403,6.24060181 86.947403,6.14194397 C86.947403,5.77197706 86.7256695,5.6239903 86.5034427,5.6239903 C86.3061271,5.6239903 86.1828048,5.72264814 86.1581403,5.96929275 C86.5281072,6.41325304 86.7747518,7.10385793 86.7747518,7.91778513 C86.7747518,10.6804514 84.1356545,10.9764249 81.9649354,10.9764249 C81.3976528,10.9764249 80.6823834,10.927096 80.0904364,10.7791092 C79.8437917,10.8531026 79.5724827,11.0010893 79.5724827,11.3710563 C79.5724827,11.8150165 80.016443,11.9136744 80.4110743,11.9136744 C81.5209751,11.9136744 82.877767,11.7410232 84.1109901,11.7410232 C86.2074692,11.7410232 88.0573038,12.555197 88.0573038,14.8736563 C88.0573038,18.3269274 84.1109901,18.9435389 81.1510082,18.9435389 C78.4379175,18.9435389 76.464514,18.3269274 76.464514,16.6001685 C76.464514,15.6135901 77.5250858,14.9969786 78.6103221,14.7749985 L78.6103221,14.7256695 C77.3031057,14.5530183 76.3411917,13.9610713 76.3411917,12.6289437 C76.3411917,11.1737406 77.5250858,10.5817935 78.8572133,10.4831357 L78.8572133,10.4338068 C77.8703883,10.0391754 77.1551189,9.24991265 77.1551189,7.89312067 C77.1551189,5.20444782 79.8684562,4.43984955 82.0882577,4.43984955 C83.3217273,4.43984955 84.6782727,4.68649415 85.6648511,5.47600354 C85.8621668,4.51408957 86.5527717,4.06988264 87.4162744,4.06988264 C88.2548661,4.06988264 89.0441288,4.56317185 89.0441288,5.79664152 C89.0441288,6.24060181 88.945471,6.53657534 88.945471,6.53657534 L88.945471,6.53657534 Z M70.6681191,3.94680698 L74.5651039,3.94680698 L74.5651039,1.03615399 L70.6681191,1.03615399 L70.6681191,3.94680698 Z M69.2619982,15.4902678 L69.2619982,12.555197 L70.6927836,12.555197 L70.6927836,7.64647607 L69.3853205,7.64647607 L69.3853205,4.71115861 L74.5651039,4.71115861 L74.5651039,12.555197 L76.0205537,12.555197 L76.0205537,15.4902678 L69.2619982,15.4902678 L69.2619982,15.4902678 Z M68.8427024,9.22524819 L65.1921156,9.22524819 C65.266109,9.07726142 65.3401024,8.83037017 65.3401024,8.58372557 C65.3401024,7.96711405 64.945471,7.59714714 64.4521818,7.59714714 C63.7862413,7.59714714 63.2682877,8.09043636 63.2682877,9.32365938 C63.2682877,10.8037737 63.3176166,12.555197 63.3176166,12.555197 L64.9947999,12.555197 L64.9947999,15.4902678 L57.9895998,15.4902678 L57.9895998,12.555197 L59.4203852,12.555197 L59.4203852,7.64647607 L57.0523503,7.64647607 L54.1416973,14.3803671 C53.0317966,16.9701354 52.0452182,19.0668612 49.4552032,19.0668612 C47.6053686,19.0668612 46.2485767,17.9569605 46.0761721,16.0328859 L49.4552032,16.0328859 C49.4058743,16.1562083 49.3812098,16.304195 49.3812098,16.4770929 C49.3812098,16.8717243 49.6527655,17.0937044 49.9484924,17.0937044 C50.2444659,17.0937044 50.5897684,16.8961421 50.5897684,16.4028529 C50.5897684,15.7369124 50.1460547,14.750334 49.5785255,13.517111 L46.9145171,7.64647607 L45.730623,7.64647607 L45.730623,4.71115861 L52.5385074,4.71115861 L52.5385074,7.64647607 L50.8366596,7.64647607 C51.4532711,9.32365938 52.5385074,11.7903521 52.5385074,11.7903521 L52.5878363,11.7903521 C52.5878363,11.7903521 53.6730726,9.32365938 54.3143485,7.64647607 L53.2044478,7.64647607 L53.2044478,4.71115861 L63.1203009,4.71115861 L63.070972,6.75855548 L63.1203009,6.78321995 C63.5889257,5.27868785 64.8221487,4.43984955 66.178694,4.43984955 C68.3987421,4.43984955 69.0153536,6.31459519 69.0153536,7.84379175 C69.0153536,8.46040326 68.9413602,8.92902801 68.8427024,9.22524819 L68.8427024,9.22524819 Z M39.5642612,7.42449592 C38.2077159,7.42449592 37.9854891,9.17567262 37.9854891,10.1871621 C37.9854891,11.247734 38.1581403,12.9251639 39.5642612,12.9251639 C41.0441288,12.9251639 41.1921156,11.3957207 41.1921156,10.1624977 C41.1921156,8.95369248 40.8714776,7.42449592 39.5642612,7.42449592 L39.5642612,7.42449592 Z M40.8221487,15.5889257 C39.39161,15.5889257 38.5034427,14.9723141 38.0597291,14.1337225 L37.9854891,14.1583869 L38.034818,16.1315438 L39.7862413,16.1315438 L39.7862413,18.9928679 L32.4110743,18.9928679 L32.4110743,16.1315438 L34.162251,16.1315438 L34.162251,7.64647607 L32.7317123,7.64647607 L32.7317123,4.71115861 L38.034818,4.71115861 L38.0101535,6.33925966 L38.0841469,6.36392412 C38.7256695,5.13070109 39.8355703,4.58783631 41.1921156,4.58783631 C44.3987421,4.58783631 45.4839784,7.52315376 45.4839784,10.3844778 C45.4839784,13.5911044 43.5601505,15.5889257 40.8221487,15.5889257 L40.8221487,15.5889257 Z M26.515775,7.12852239 C25.0605718,7.12852239 24.961914,9.05235032 24.961914,10.1131688 C24.961914,11.247734 25.0605718,13.0731507 26.5404394,13.0731507 C27.9218959,13.0731507 28.0205537,11.1244116 28.0205537,10.1131688 C28.0205537,9.05235032 27.9958893,7.12852239 26.515775,7.12852239 L26.515775,7.12852239 Z M26.5404394,15.7369124 C23.3833885,15.7369124 20.6700512,13.4431176 20.6700512,10.1871621 C20.6700512,6.95587117 23.2354017,4.43984955 26.4420282,4.43984955 C29.9690461,4.43984955 32.3864099,6.58590426 32.3864099,10.1871621 C32.3864099,13.4921999 29.7719771,15.7369124 26.5404394,15.7369124 L26.5404394,15.7369124 Z M19.6834728,10.3598134 L15.5395967,10.3598134 C15.5642612,10.5078001 15.5889257,10.7544447 15.5889257,11.0504183 C15.5889257,12.2836413 15.0463075,13.2704664 13.8128379,13.2704664 C12.7029371,13.2704664 11.5930364,12.160319 11.5930364,9.81719524 C11.5930364,7.59714714 12.5796148,6.5612398 13.4921999,6.5612398 C14.3061271,6.5612398 14.676094,7.35050254 14.676094,8.21375866 C14.676094,8.46040326 14.6516762,8.70729451 14.6023472,8.85528128 L19.0668612,8.85528128 C18.7462233,5.25402339 16.624833,3.2806199 13.1962263,3.2806199 C9.54563953,3.2806199 6.28968409,5.7473126 6.28968409,9.94051754 C6.28968409,13.837749 8.87969909,16.4275173 12.8755884,16.4275173 C16.4275173,16.4275173 18.3269274,14.5776828 19.1161902,12.752266 L19.3135058,12.8509239 C18.0060428,16.8470598 14.3061271,19.7328017 9.86627752,19.7328017 C4.43984955,19.7328017 0,15.2929521 0,9.86652416 C0,4.43984955 4.43984955,0 9.86627752,0 C15.1696298,0 19.7328017,4.26719832 19.7328017,9.69362629 C19.7328017,9.81719524 19.7081372,10.2364911 19.6834728,10.3598134 L19.6834728,10.3598134 Z"></path>
        </g>
    </g>
</svg>