<svg width="176" height="24" xmlns="http://www.w3.org/2000/svg"><path d="M173.698 20.103c-.296 0-.518.222-.543.518h.987c.024-.32-.173-.518-.444-.518zm1.406 1.135h-1.949c0 .394.271.64.814.64.32 0 .641-.073.938-.196l.098.69a3.29 3.29 0 0 1-1.209.222c-1.06 0-1.652-.493-1.652-1.554 0-.913.567-1.603 1.578-1.603.962 0 1.406.616 1.406 1.406 0 .123-.024.247-.024.395zm-4.046 1.331c-.986 0-1.553-.493-1.553-1.455 0-.913.592-1.677 1.775-1.677.223 0 .444.024.642.074l-.099.814a1.897 1.897 0 0 0-.518-.099c-.468 0-.765.321-.765.814 0 .444.297.74.74.74a2.1 2.1 0 0 0 .568-.098l.074.764a2.907 2.907 0 0 1-.864.123zm-3.083-.049v-2.294h-.986v2.294h-.987v-2.294h-1.085v2.294h-1.012v-2.294h-.493v-.715h.493v-.271c0-.79.395-1.209 1.332-1.209.173 0 .37.025.543.05l-.074.764c-.123-.05-.247-.05-.37-.05-.296 0-.42.124-.42.445v.27h1.086v-.098c0-.912.518-1.381 1.652-1.381.42 0 .691.05 1.061.123l-.172.765a2.781 2.781 0 0 0-.79-.123c-.543 0-.764.197-.764.567v.148h1.998v3.01h-1.012zm-6.931-3.305c-.542 0-1.036.37-1.036 1.233 0 .79.32 1.283 1.011 1.283.494 0 1.061-.346 1.061-1.258 0-.814-.37-1.258-1.036-1.258zm-.074 3.38c-1.381 0-2.047-.79-2.047-2.073 0-1.332.987-2.17 2.195-2.17 1.16 0 2.047.616 2.047 2.047 0 1.357-.986 2.195-2.195 2.195zm-4.49 0c-.74 0-.986-.248-.986-.987v-1.382h-.493v-.715h.493v-.888l.987-.247v1.135h.715v.715h-.715v1.184c0 .296.099.395.345.395.124 0 .271-.025.37-.05v.74a3.31 3.31 0 0 1-.715.1zm-2.836-.075v-1.924c0-.247-.074-.37-.296-.37-.37 0-.666.395-.666.839v1.455h-.986v-3.724a4.396 4.396 0 0 0-.568-.05v-.592a15.28 15.28 0 0 1 1.554-.074v1.234c0 .172 0 .419-.049.616.197-.296.543-.493 1.036-.493.74 0 .962.444.962.962v2.121h-.987zm-3.65-2.294a1.287 1.287 0 0 0-.346-.049c-.394 0-.69.222-.69.913 0 .493.148.715.444.715.345 0 .592-.345.592-.863v-.716zM149.106 24c-.346 0-.715-.05-1.011-.123l.073-.839c.297.124.666.173.987.173.567 0 .839-.173.839-.617v-.123c0-.124 0-.222.024-.37-.172.296-.493.468-.888.468-.789 0-1.233-.493-1.233-1.38 0-.988.641-1.752 1.825-1.752.518 0 .889.05 1.259.098v2.985c0 .79-.395 1.48-1.875 1.48zm-2.22-4.81c-.32 0-.592-.246-.592-.542 0-.296.271-.543.592-.543.345 0 .616.247.616.543 0 .296-.27.542-.616.542zm-.494 3.33v-2.319a4.079 4.079 0 0 0-.567-.049v-.592c.469-.05 1.011-.074 1.579-.05v3.01h-1.012zm-.764-2.17c-.543-.124-.814.172-.814.937v1.233h-1.012v-2.319a3.767 3.767 0 0 0-.567-.049v-.592a10.12 10.12 0 0 1 1.505-.05c0 .124-.025.346-.05.519.173-.346.494-.617.987-.592l-.05.912zm-3.799 2.417c-.394.962-.764 1.233-1.504 1.233-.173 0-.346-.025-.494-.05l.05-.788c.172.049.296.073.468.073.222 0 .395-.098.518-.468l.099-.247-1.184-3.01h1.11l.32.864c.1.271.198.592.272.888a8.8 8.8 0 0 1 .32-.962l.297-.79h1.06l-1.332 3.257zm-3.675-2.566c-.32 0-.567.37-.567.864v.74c.098.025.197.05.345.05.395 0 .69-.247.69-.913 0-.494-.147-.74-.468-.74zm-.222 2.368c-.148 0-.247 0-.345-.024v1.406h-.987V20.2a4.463 4.463 0 0 0-.592-.049v-.592c.494-.05 1.011-.074 1.505-.05 0 .124 0 .272-.025.42.197-.296.518-.493.987-.493.79 0 1.184.542 1.184 1.406 0 1.036-.567 1.726-1.727 1.726zm-3.725-2.343c-.295 0-.616.222-.616.765 0 .542.197.789.616.789.346 0 .592-.271.592-.765 0-.518-.172-.789-.592-.789zm-.074 2.368c-.961 0-1.578-.444-1.578-1.504 0-.987.74-1.653 1.727-1.653.986 0 1.553.518 1.553 1.505 0 .986-.74 1.652-1.702 1.652zm-3.009-.025c-1.652 0-2.121-1.01-2.121-1.948 0-1.332.814-2.22 2.294-2.22.296 0 .69.025.962.099l-.124.863a3.317 3.317 0 0 0-.863-.123c-.715 0-1.16.493-1.16 1.233 0 .789.396 1.233 1.21 1.233.221 0 .64-.05.838-.148l.124.839c-.321.123-.79.172-1.16.172zm-5.303.025a5.77 5.77 0 0 1-.666-.049v-.765c.197.05.444.099.69.099.247 0 .42-.099.42-.222 0-.444-1.209-.222-1.209-1.209 0-.543.494-1.011 1.456-1.011.172 0 .37.024.567.05l-.024.714a2.104 2.104 0 0 0-.568-.074c-.271 0-.395.1-.395.222 0 .395 1.234.272 1.234 1.21 0 .64-.592 1.035-1.505 1.035zm-2.59-2.491c-.271 0-.493.222-.518.518h.987c0-.32-.173-.518-.469-.518zm1.406 1.135h-1.924c0 .394.272.64.79.64.32 0 .666-.073.962-.196l.098.69a3.38 3.38 0 0 1-1.208.222c-1.061 0-1.653-.493-1.653-1.554 0-.913.542-1.603 1.554-1.603.986 0 1.43.616 1.43 1.406 0 .123-.024.247-.049.395zm-3.996 1.356c-.765 0-1.011-.247-1.011-.986v-1.382h-.494v-.715h.494v-.888l1.011-.247v1.135h.69v.715h-.69v1.184c0 .296.074.395.346.395.098 0 .246-.025.345-.05v.74a3.08 3.08 0 0 1-.69.1zm-3.083-1.381c-.715 0-.888.197-.888.419 0 .148.123.247.32.247a.558.558 0 0 0 .568-.567v-.1zm.099 1.307c0-.148 0-.296.024-.468-.172.32-.567.542-1.01.542-.618 0-.938-.345-.938-.838 0-.765.79-1.11 1.825-1.11v-.124c0-.247-.148-.37-.592-.37-.271 0-.666.074-.937.222l-.074-.765c.32-.098.764-.172 1.159-.172 1.135 0 1.455.37 1.455 1.06v1.308c.148.025.37.05.567.074v.592a9.862 9.862 0 0 1-1.48.05zm-3.01.074c-.764 0-.986-.247-.986-.986v-1.382h-.494v-.715h.494v-.888l.986-.247v1.135h.716v.715h-.716v1.184c0 .296.1.395.346.395.123 0 .247-.025.37-.05v.74a3.31 3.31 0 0 1-.716.1zm-3.502 0c-.32 0-.617-.025-.913-.099l.05-.863c.246.074.616.148.937.148.37 0 .641-.148.641-.444 0-.69-1.75-.32-1.75-1.702 0-.764.64-1.282 1.75-1.282.222 0 .518.024.79.074l-.05.814a4.066 4.066 0 0 0-.79-.1c-.418 0-.616.174-.616.395 0 .642 1.751.395 1.751 1.678 0 .789-.665 1.381-1.8 1.381zm-4.169-2.368a1.46 1.46 0 0 0-.345-.049c-.37 0-.666.222-.666.913 0 .493.123.74.444.74.345 0 .567-.37.567-.864v-.74zm.074 2.294c0-.123.025-.271.025-.444-.173.296-.493.518-.987.518-.789 0-1.184-.567-1.184-1.406 0-.987.642-1.751 1.752-1.751.098 0 .222.024.32.024v-.665a3.74 3.74 0 0 0-.567-.05v-.592c.469-.05 1.011-.074 1.554-.074v3.725c.173.025.395.05.592.074v.592c-.493.05-1.036.074-1.505.05zm-3.946-2.417c-.296 0-.494.222-.518.518h.986c0-.32-.172-.518-.468-.518zm4.489-4.366c-2.713 0-4.02-1.233-4.02-3.947 0-1.233.049-3.33.049-4.144h-1.949V4.761c2.787-.075 3.157-.37 3.231-2.96h2.566v2.91h3.206v2.935h-3.182s-.074 2.541-.074 4.638c0 1.11.272 1.332.691 1.332.296 0 .69-.247.69-.987 0-.247-.049-.592-.147-.839h2.195c.074.222.148.617.148.987 0 2.097-1.43 2.96-3.404 2.96zm-3.083 5.5h-1.949c.025.395.272.642.814.642.32 0 .666-.074.962-.197l.099.69c-.37.148-.814.222-1.21.222-1.084 0-1.652-.493-1.652-1.554 0-.913.543-1.603 1.555-1.603.986 0 1.405.616 1.405 1.406 0 .123 0 .247-.024.395zm-4.02 1.357c-.74 0-.987-.247-.987-.986v-1.382h-.494v-.715h.494v-.888l.986-.247v1.135h.715v.715h-.69v1.184c0 .296.074.395.32.395.124 0 .272-.025.37-.05v.74c-.222.05-.468.1-.715.1zm-2.344-3.404c-.345 0-.617-.246-.617-.542 0-.296.272-.543.617-.543.32 0 .617.247.617.543 0 .296-.296.542-.617.542zm-.518 3.33v-2.319a3.767 3.767 0 0 0-.567-.049v-.592c.493-.05 1.01-.074 1.578-.05v3.01h-1.011zm-1.949 0v-1.924c0-.247-.049-.37-.296-.37-.345 0-.641.395-.641.839v1.455h-.987v-2.319a4.46 4.46 0 0 0-.592-.049v-.592a10.34 10.34 0 0 1 1.505-.05c0 .1 0 .321-.025.47.198-.297.567-.543 1.086-.543.715 0 .961.444.961.962v2.121h-1.01zm-4.76.074c-1.406 0-1.752-.69-1.752-1.53v-2.638h1.012v2.59c0 .493.172.789.814.789.567 0 .79-.222.79-.839v-2.54h1.01v2.49c0 1.136-.69 1.678-1.874 1.678zm4.563-7.104v-2.935h1.085s.05-1.998.05-3.428c0-.815-.272-1.604-1.258-1.604-1.036 0-1.579.814-1.579 1.85v3.182h1.06v2.935h-6.363v-2.935h1.43V3.848h-1.43V.913h5.278v5.673l.05.025c.666-1.48 1.85-2.171 3.502-2.171 2.22 0 3.182 1.628 3.182 3.527 0 1.357-.05 4.588-.05 4.588h1.431v2.935h-6.388zM82.064 6.117c-.666 0-.962.814-.962 1.727 0 .863.246 1.554.937 1.554.641 0 .962-.814.962-1.678 0-.863-.271-1.603-.937-1.603zm-.987 8.757c-.296.123-.666.493-.666.986 0 .494.444 1.11 1.825 1.11 1.53 0 2.122-.616 2.122-1.208 0-.74-.938-.888-3.281-.888zm7.868-8.337h-2.071c.049-.124.073-.296.073-.395 0-.37-.221-.518-.444-.518-.197 0-.32.099-.345.345.37.444.617 1.135.617 1.949 0 2.762-2.64 3.058-4.81 3.058-.567 0-1.283-.049-1.875-.197-.246.074-.518.222-.518.592 0 .444.444.543.84.543 1.109 0 2.466-.173 3.699-.173 2.096 0 3.946.814 3.946 3.133 0 3.453-3.946 4.07-6.906 4.07-2.713 0-4.686-.617-4.686-2.344 0-.986 1.06-1.603 2.145-1.825v-.05c-1.307-.172-2.269-.764-2.269-2.096 0-1.455 1.184-2.047 2.516-2.146v-.05c-.987-.394-1.702-1.183-1.702-2.54 0-2.689 2.713-3.453 4.933-3.453 1.234 0 2.59.246 3.577 1.036.197-.962.888-1.406 1.751-1.406.839 0 1.628.493 1.628 1.727 0 .444-.099.74-.099.74zm-18.277-2.59h3.897v-2.91h-3.897v2.91zM69.262 15.49v-2.935h1.43V7.646h-1.307V4.711h5.18v7.844h1.456v2.935h-6.759zm-.42-6.265h-3.65c.074-.148.148-.395.148-.641 0-.617-.395-.987-.888-.987-.666 0-1.184.493-1.184 1.727 0 1.48.05 3.231.05 3.231h1.677v2.935H57.99v-2.935h1.43V7.646h-2.368l-2.91 6.734c-1.11 2.59-2.097 4.687-4.687 4.687-1.85 0-3.206-1.11-3.379-3.034h3.38c-.05.123-.075.271-.075.444 0 .395.272.617.567.617.296 0 .642-.198.642-.691 0-.666-.444-1.653-1.011-2.886l-2.664-5.87H45.73V4.71h6.808v2.935h-1.702c.616 1.678 1.702 4.144 1.702 4.144h.049s1.085-2.466 1.726-4.144h-1.11V4.711h9.916l-.049 2.048.05.024c.468-1.504 1.701-2.343 3.058-2.343 2.22 0 2.836 1.875 2.836 3.404 0 .616-.074 1.085-.172 1.381zm-29.278-1.8c-1.356 0-1.579 1.75-1.579 2.762 0 1.06.173 2.738 1.58 2.738 1.48 0 1.627-1.53 1.627-2.763 0-1.208-.32-2.738-1.628-2.738zm1.258 8.164c-1.43 0-2.319-.617-2.762-1.455l-.075.024.05 1.974h1.751v2.86h-7.375v-2.86h1.751V7.646h-1.43V4.711h5.303L38.01 6.34l.074.025c.642-1.233 1.752-1.776 3.108-1.776 3.207 0 4.292 2.935 4.292 5.796 0 3.207-1.924 5.205-4.662 5.205zm-14.306-8.46c-1.455 0-1.554 1.923-1.554 2.984 0 1.135.099 2.96 1.578 2.96 1.382 0 1.48-1.949 1.48-2.96 0-1.06-.024-2.984-1.504-2.984zm.024 8.608c-3.157 0-5.87-2.294-5.87-5.55 0-3.231 2.565-5.747 5.772-5.747 3.527 0 5.944 2.146 5.944 5.747 0 3.305-2.614 5.55-5.846 5.55zm-6.857-5.377H15.54c.024.148.049.394.049.69 0 1.234-.543 2.22-1.776 2.22-1.11 0-2.22-1.11-2.22-3.453 0-2.22.987-3.256 1.9-3.256.813 0 1.183.79 1.183 1.653 0 .246-.024.493-.074.641h4.465c-.32-3.601-2.442-5.574-5.87-5.574-3.651 0-6.907 2.466-6.907 6.66 0 3.897 2.59 6.487 6.586 6.487 3.552 0 5.45-1.85 6.24-3.676l.198.099c-1.308 3.996-5.008 6.882-9.448 6.882C4.44 19.733 0 15.293 0 9.867 0 4.44 4.44 0 9.866 0c5.304 0 9.867 4.267 9.867 9.694 0 .123-.025.542-.05.666z" fill="#666" fill-rule="evenodd"/></svg>