<svg width="16" height="40" xmlns="http://www.w3.org/2000/svg"><g fill="none" fill-rule="evenodd"><path stroke="gray" fill="#EFEFEF" d="M15.5.5H.5v39h15z"/><path d="M9 23.277v-7.054c0-.237.114-.401.342-.493.228-.09.424-.054.588.11l3.527 3.527a.525.525 0 0 1 0 .766L9.93 23.66c-.164.164-.36.2-.588.11-.228-.092-.342-.256-.342-.493zm-1.75-7.054v7.054c0 .237-.114.401-.342.493-.228.09-.424.054-.588-.11l-3.527-3.527a.525.525 0 0 1 0-.766L6.32 15.84c.164-.164.36-.2.588-.11.228.092.342.256.342.493z" fill="#333"/></g></svg>