<?xml version="1.0" encoding="UTF-8" standalone="no"?>
<svg
   width="40"
   height="16"
   version="1.1"
   id="svg131"
   sodipodi:docname="handle.svg"
   inkscape:version="1.2.2 (732a01da63, 2022-12-09)"
   xmlns:inkscape="http://www.inkscape.org/namespaces/inkscape"
   xmlns:sodipodi="http://sodipodi.sourceforge.net/DTD/sodipodi-0.dtd"
   xmlns="http://www.w3.org/2000/svg"
   xmlns:svg="http://www.w3.org/2000/svg">
  <defs
     id="defs135" />
  <sodipodi:namedview
     id="namedview133"
     pagecolor="#ffffff"
     bordercolor="#000000"
     borderopacity="0.25"
     inkscape:showpageshadow="2"
     inkscape:pageopacity="0.0"
     inkscape:pagecheckerboard="0"
     inkscape:deskcolor="#d1d1d1"
     showgrid="false"
     inkscape:zoom="14.796209"
     inkscape:cx="0.84481099"
     inkscape:cy="18.450672"
     inkscape:window-width="1920"
     inkscape:window-height="1017"
     inkscape:window-x="-8"
     inkscape:window-y="-8"
     inkscape:window-maximized="1"
     inkscape:current-layer="svg131" />
  <g
     fill="none"
     fill-rule="evenodd"
     id="g129"
     transform="rotate(-90,8,8)">
    <path
       stroke="#808080"
       fill="#efefef"
       d="m 15.5,0.5 h -15 v 39 h 15 z"
       id="path125" />
    <path
       d="M 9,23.277 V 16.223 C 9,15.986 9.114,15.822 9.342,15.73 9.57,15.64 9.766,15.676 9.93,15.84 l 3.527,3.527 a 0.525,0.525 0 0 1 0,0.766 L 9.93,23.66 C 9.766,23.824 9.57,23.86 9.342,23.77 9.114,23.678 9,23.514 9,23.277 Z M 7.25,16.223 v 7.054 c 0,0.237 -0.114,0.401 -0.342,0.493 C 6.68,23.86 6.484,23.824 6.32,23.66 L 2.793,20.133 a 0.525,0.525 0 0 1 0,-0.766 L 6.32,15.84 c 0.164,-0.164 0.36,-0.2 0.588,-0.11 0.228,0.092 0.342,0.256 0.342,0.493 z"
       fill="#333333"
       id="path127" />
  </g>
</svg>
