<svg width="200" height="200" xmlns="http://www.w3.org/2000/svg"><g fill="none"><circle fill="#F05129" cx="100" cy="100" r="100"/><path d="M138.001 50l-29.476.95c-4.564.381-8.748 2.283-11.98 5.516l-42.41 42.408c-5.515 5.515-5.515 14.453 0 19.968l27.004 27.004c2.663 2.662 6.276 4.184 9.89 4.184 3.612 0 7.226-1.332 9.888-4.184l42.408-42.408c3.233-3.233 5.135-7.417 5.515-12.171l1.141-29.286c.19-3.233-1.141-6.276-3.423-8.558S141.234 50 138.001 50zm-16.545 41.457c-7.036 0-12.74-5.705-12.74-12.741 0-7.037 5.704-12.742 12.74-12.742 7.037 0 12.742 5.705 12.742 12.742 0 7.036-5.705 12.741-12.742 12.741z" fill="#FFF"/></g></svg>