<svg xmlns="http://www.w3.org/2000/svg" viewBox="0 0 200 200"><defs><style>.cls-1{fill:#fc4c02;}.cls-2,.cls-3{fill:none;stroke:#fff;stroke-linecap:round;stroke-linejoin:round;}.cls-2{stroke-width:9px;}.cls-3{stroke-width:3px;}.cls-4{fill:#fff;}</style></defs><g id="bkgd_circle" data-name="bkgd circle"><circle class="cls-1" cx="100" cy="100" r="100"/></g><g id="Layer_4" data-name="Layer 4"><circle class="cls-2" cx="119.91" cy="80.09" r="30.13"/><path class="cls-3" d="M139.73,82.63a21,21,0,0,1-5.95,11,22,22,0,0,1-9.83,5.7" transform="translate(0 0)"/><path class="cls-3" d="M100.37,77.23a20.86,20.86,0,0,1,6-11,21.79,21.79,0,0,1,9.82-5.71" transform="translate(0 0)"/><path class="cls-4" d="M101.1,105.79,57,157.11A10,10,0,0,1,41.82,144,10.81,10.81,0,0,1,42.89,143L94.21,98.9a4.89,4.89,0,0,1,6.89,6.89Z" transform="translate(0 0)"/></g></svg>
