<svg width="200" height="200" xmlns="http://www.w3.org/2000/svg"><g fill="none"><circle fill="#F05129" cx="100" cy="100" r="100"/><path d="M78.899 138.643l-17.542-17.542a1.094 1.094 0 0 1 0-1.584l54.55-54.55a1.094 1.094 0 0 1 1.584 0l17.429 17.429a1.094 1.094 0 0 1 0 1.584l-54.437 54.663c-.453.453-1.245.453-1.584 0zm-27.502 11.318l22.861-6.564c.793-.227 1.132-1.245.453-1.924l-16.297-16.297c-.566-.566-1.697-.34-1.924.452l-6.45 22.975c-.227.792.565 1.584 1.357 1.358zm96.65-88.389l-9.619-9.62a6.626 6.626 0 0 0-9.393 0l-7.923 7.922a1.094 1.094 0 0 0 0 1.585l17.43 17.429a1.094 1.094 0 0 0 1.584 0l7.922-7.923a6.626 6.626 0 0 0 0-9.393z" fill="#FFF"/></g></svg>