<?xml version="1.0" encoding="UTF-8"?>
<svg width="170px" height="97px" viewBox="0 0 170 97" version="1.1" xmlns="http://www.w3.org/2000/svg" xmlns:xlink="http://www.w3.org/1999/xlink">
    <!-- Generator: Sketch 51.2 (57519) - http://www.bohemiancoding.com/sketch -->
    <title>Logo</title>
    <desc>Created with Sketch.</desc>
    <defs></defs>
    <g id="Wireframes" stroke="none" stroke-width="1" fill="none" fill-rule="evenodd">
        <g id="CHC-Home" transform="translate(-64.000000, -28.000000)" fill-rule="nonzero">
            <g id="Header" transform="translate(40.000000, 0.000000)">
                <g id="Logo" transform="translate(24.000000, 28.000000)">
                    <polygon id="Shape" fill="#000000" points="11.6360526 0.362368421 11.7165789 56.3281579 18.8834211 56.3281579 18.8028947 66.8368421 0.362368421 66.8368421 0.362368421 0.362368421"></polygon>
                    <polygon id="Shape" fill="#000000" points="32.7742105 66.8368421 21.42 66.8368421 21.42 0.362368421 32.7742105 0.362368421"></polygon>
                    <path d="M35.6328947,0.362368421 L52.785,0.362368421 C57.3347368,0.362368421 60.3142105,2.69763158 60.3142105,8.77736842 L60.3142105,23.7552632 C60.3142105,28.2244737 57.375,30.2778947 55.9255263,30.7207895 C57.6971053,31.1636842 61.2,33.1365789 61.2,38.4915789 L61.2,56.7710526 C61.2,63.495 58.3413158,66.8771053 52.7044737,66.8771053 L35.6328947,66.8771053 L35.6328947,0.362368421 Z M46.9871053,8.73710526 L46.9871053,27.7010526 L47.7923684,27.7010526 C48.6781579,27.7010526 49.1210526,27.1776316 49.1210526,26.01 L49.1210526,10.3476316 C49.1210526,9.18 48.96,8.73710526 47.7923684,8.73710526 L46.9871053,8.73710526 Z M46.9871053,35.9147368 L46.9871053,58.1802632 L48.0742105,58.1802632 C49.2418421,58.1802632 49.4028947,57.6568421 49.4028947,56.4892105 L49.4028947,37.7265789 C49.4028947,36.3978947 49.1210526,35.955 48.0742105,35.955 L46.9871053,35.955 L46.9871053,35.9147368 Z" id="Shape" fill="#000000"></path>
                    <path d="M75.0505263,66.8368421 L63.6963158,66.8368421 L63.6963158,0.362368421 L81.2913158,0.362368421 C85.2371053,0.362368421 88.3373684,2.85868421 88.3373684,8.33447368 L88.3373684,23.9968421 C88.3373684,28.5465789 86.2034211,30.3584211 84.3110526,31.1636842 C86.2034211,31.9689474 88.4984211,33.8613158 88.4984211,37.3239474 L88.4984211,63.6963158 C88.4984211,65.025 88.6594737,66.0315789 89.0218421,66.6355263 L89.0218421,66.9173684 L77.8286842,66.9173684 C77.3857895,66.2731579 77.1039474,65.3873684 77.1039474,64.1392105 L77.1039474,39.2163158 C77.1039474,38.25 76.9428947,37.6863158 75.8557895,37.6863158 L74.97,37.6863158 L74.97,66.8368421 L75.0505263,66.8368421 Z M75.0505263,28.1439474 L75.9363158,28.1439474 C76.7415789,28.1439474 77.1844737,27.6205263 77.1844737,26.6139474 L77.1844737,10.2671053 C77.1844737,9.18 77.0234211,8.73710526 76.0168421,8.73710526 L75.0505263,8.73710526 L75.0505263,28.1439474 Z" id="Shape" fill="#000000"></path>
                    <path d="M105.006316,54.8786842 L101.181316,54.8786842 L100.537105,66.8771053 L90.7934211,66.8771053 L96.3094737,0.362368421 L110.602895,0.362368421 L116.602105,66.8368421 L105.610263,66.8368421 L105.006316,54.8786842 Z M103.113947,19.8497368 L101.785263,45.135 L104.482895,45.135 L103.113947,19.8497368 Z" id="Shape" fill="#000000"></path>
                    <path d="M130.211053,66.8368421 L118.856842,66.8368421 L118.856842,0.362368421 L136.492105,0.362368421 C140.437895,0.362368421 143.538158,2.85868421 143.538158,8.33447368 L143.538158,23.9968421 C143.538158,28.5465789 141.404211,30.3584211 139.511842,31.1636842 C141.404211,31.9689474 143.699211,33.8613158 143.699211,37.3239474 L143.699211,63.6963158 C143.699211,65.025 143.860263,66.0315789 144.222632,66.6355263 L144.222632,66.9173684 L133.029474,66.9173684 C132.586579,66.2731579 132.304737,65.3873684 132.304737,64.1392105 L132.304737,39.2163158 C132.304737,38.25 132.143684,37.6863158 131.056579,37.6863158 L130.170789,37.6863158 L130.170789,66.8368421 L130.211053,66.8368421 Z M130.211053,28.1439474 L131.096842,28.1439474 C131.902105,28.1439474 132.345,27.6205263 132.345,26.6139474 L132.345,10.2671053 C132.345,9.18 132.183947,8.73710526 131.177368,8.73710526 L130.211053,8.73710526 L130.211053,28.1439474 Z" id="Shape" fill="#000000"></path>
                    <polygon id="Shape" fill="#000000" points="151.872632 40.6657895 144.544737 0.362368421 155.818421 0.362368421 157.791316 23.3526316 159.764211 0.362368421 169.870263 0.362368421 163.106053 40.6657895 163.106053 66.8368421 151.832368 66.8368421 151.832368 40.6657895"></polygon>
                    <polygon id="Shape" fill="#000000" points="11.6360526 0.362368421 11.7165789 56.3281579 18.8834211 56.3281579 18.8028947 66.8368421 0.362368421 66.8368421 0.362368421 0.362368421"></polygon>
                    <polygon id="Shape" fill="#000000" points="32.7742105 66.8368421 21.42 66.8368421 21.42 0.362368421 32.7742105 0.362368421"></polygon>
                    <path d="M35.6328947,0.362368421 L52.785,0.362368421 C57.3347368,0.362368421 60.3142105,2.69763158 60.3142105,8.77736842 L60.3142105,23.7552632 C60.3142105,28.2244737 57.375,30.2778947 55.9255263,30.7207895 C57.6971053,31.1636842 61.2,33.1365789 61.2,38.4915789 L61.2,56.7710526 C61.2,63.495 58.3413158,66.8771053 52.7044737,66.8771053 L35.6328947,66.8771053 L35.6328947,0.362368421 Z M46.9871053,8.73710526 L46.9871053,27.7010526 L47.7923684,27.7010526 C48.6781579,27.7010526 49.1210526,27.1776316 49.1210526,26.01 L49.1210526,10.3476316 C49.1210526,9.18 48.96,8.73710526 47.7923684,8.73710526 L46.9871053,8.73710526 Z M46.9871053,35.9147368 L46.9871053,58.1802632 L48.0742105,58.1802632 C49.2418421,58.1802632 49.4028947,57.6568421 49.4028947,56.4892105 L49.4028947,37.7265789 C49.4028947,36.3978947 49.1210526,35.955 48.0742105,35.955 L46.9871053,35.955 L46.9871053,35.9147368 Z" id="Shape" fill="#000000"></path>
                    <path d="M75.0505263,66.8368421 L63.6963158,66.8368421 L63.6963158,0.362368421 L81.2913158,0.362368421 C85.2371053,0.362368421 88.3373684,2.85868421 88.3373684,8.33447368 L88.3373684,23.9968421 C88.3373684,28.5465789 86.2034211,30.3584211 84.3110526,31.1636842 C86.2034211,31.9689474 88.4984211,33.8613158 88.4984211,37.3239474 L88.4984211,63.6963158 C88.4984211,65.025 88.6594737,66.0315789 89.0218421,66.6355263 L89.0218421,66.9173684 L77.8286842,66.9173684 C77.3857895,66.2731579 77.1039474,65.3873684 77.1039474,64.1392105 L77.1039474,39.2163158 C77.1039474,38.25 76.9428947,37.6863158 75.8557895,37.6863158 L74.97,37.6863158 L74.97,66.8368421 L75.0505263,66.8368421 Z M75.0505263,28.1439474 L75.9363158,28.1439474 C76.7415789,28.1439474 77.1844737,27.6205263 77.1844737,26.6139474 L77.1844737,10.2671053 C77.1844737,9.18 77.0234211,8.73710526 76.0168421,8.73710526 L75.0505263,8.73710526 L75.0505263,28.1439474 Z" id="Shape" fill="#000000"></path>
                    <path d="M105.006316,54.8786842 L101.181316,54.8786842 L100.537105,66.8771053 L90.7934211,66.8771053 L96.3094737,0.362368421 L110.602895,0.362368421 L116.602105,66.8368421 L105.610263,66.8368421 L105.006316,54.8786842 Z M103.113947,19.8497368 L101.785263,45.135 L104.482895,45.135 L103.113947,19.8497368 Z" id="Shape" fill="#000000"></path>
                    <path d="M130.211053,66.8368421 L118.856842,66.8368421 L118.856842,0.362368421 L136.492105,0.362368421 C140.437895,0.362368421 143.538158,2.85868421 143.538158,8.33447368 L143.538158,23.9968421 C143.538158,28.5465789 141.404211,30.3584211 139.511842,31.1636842 C141.404211,31.9689474 143.699211,33.8613158 143.699211,37.3239474 L143.699211,63.6963158 C143.699211,65.025 143.860263,66.0315789 144.222632,66.6355263 L144.222632,66.9173684 L133.029474,66.9173684 C132.586579,66.2731579 132.304737,65.3873684 132.304737,64.1392105 L132.304737,39.2163158 C132.304737,38.25 132.143684,37.6863158 131.056579,37.6863158 L130.170789,37.6863158 L130.170789,66.8368421 L130.211053,66.8368421 Z M130.211053,28.1439474 L131.096842,28.1439474 C131.902105,28.1439474 132.345,27.6205263 132.345,26.6139474 L132.345,10.2671053 C132.345,9.18 132.183947,8.73710526 131.177368,8.73710526 L130.211053,8.73710526 L130.211053,28.1439474 Z" id="Shape" fill="#000000"></path>
                    <polygon id="Shape" fill="#000000" points="151.872632 40.6657895 144.544737 0.362368421 155.818421 0.362368421 157.791316 23.3526316 159.764211 0.362368421 169.870263 0.362368421 163.106053 40.6657895 163.106053 66.8368421 151.832368 66.8368421 151.832368 40.6657895"></polygon>
                    <polygon id="Shape" fill="#FC4C02" points="63.0521053 83.0226316 63.0521053 72.0710526 65.9107895 72.0710526 65.9107895 80.2847368 70.5007895 80.2847368 70.5007895 83.0226316 63.0521053 83.0226316"></polygon>
                    <polygon id="Shape" fill="#FC4C02" points="71.7086842 83.0226316 71.7086842 72.0710526 74.5673684 72.0710526 74.5673684 83.0226316"></polygon>
                    <path d="M76.2181579,83.0226316 L76.2181579,72.0710526 L80.4860526,72.0710526 C83.4655263,72.0710526 84.7539474,73.0776316 84.7539474,74.9297368 C84.7539474,76.2181579 84.2707895,76.9831579 83.4252632,77.4260526 C84.4318421,77.8286842 85.0357895,78.5534211 85.0357895,79.8821053 C85.0357895,81.9355263 83.7473684,83.0628947 80.9692105,83.0628947 L76.2181579,83.0628947 L76.2181579,83.0226316 Z M78.9560526,74.2452632 L78.9560526,76.3389474 L80.6068421,76.3389474 C81.5731579,76.3389474 82.0563158,76.0168421 82.0563158,75.2518421 C82.0563158,74.5673684 81.6536842,74.2452632 80.6068421,74.2452632 L78.9560526,74.2452632 Z M78.9560526,78.4326316 L78.9560526,80.6068421 L80.4457895,80.6068421 C81.7744737,80.6068421 82.1771053,80.2444737 82.1771053,79.5197368 C82.1771053,78.795 81.7342105,78.4326316 80.4457895,78.4326316 L78.9560526,78.4326316 Z" id="Shape" fill="#FC4C02"></path>
                    <path d="M88.8607895,79.3184211 L88.8607895,82.9823684 L86.1228947,82.9823684 L86.1228947,72.0307895 L90.5518421,72.0307895 C93.6521053,72.0307895 94.86,73.3997368 94.86,75.4531579 C94.86,76.8623684 94.2963158,77.7078947 93.2897368,78.1910526 C94.1755263,78.5534211 94.6184211,79.3184211 94.6184211,80.6873684 L94.6184211,82.4186842 C94.6184211,82.7005263 94.6989474,82.9018421 94.86,83.0226316 L92.0013158,83.0226316 C91.8402632,82.9018421 91.7597368,82.6602632 91.7597368,82.3784211 L91.7597368,80.7678947 C91.7597368,79.6807895 91.3571053,79.3586842 90.2297368,79.3586842 L88.8607895,79.3586842 L88.8607895,79.3184211 Z M88.8607895,74.4063158 L88.8607895,76.9428947 L90.4713158,76.9428947 C91.4778947,76.9428947 92.0013158,76.4597368 92.0013158,75.6544737 C92.0013158,74.8894737 91.5584211,74.4063158 90.4713158,74.4063158 L88.8607895,74.4063158 Z" id="Shape" fill="#FC4C02"></path>
                    <path d="M102.348947,81.09 L98.685,81.09 L98.0810526,83.0226316 L95.2626316,83.0226316 L99.0876316,72.0710526 L101.946316,72.0710526 L105.811579,83.0226316 L102.993158,83.0226316 L102.348947,81.09 Z M100.496842,75.2518421 L99.4097368,78.8352632 L101.624211,78.8352632 L100.496842,75.2518421 Z" id="Shape" fill="#FC4C02"></path>
                    <path d="M109.314474,79.3184211 L109.314474,82.9823684 L106.576579,82.9823684 L106.576579,72.0307895 L111.005526,72.0307895 C114.105789,72.0307895 115.313684,73.3997368 115.313684,75.4531579 C115.313684,76.8623684 114.75,77.7078947 113.743421,78.1910526 C114.629211,78.5534211 115.072105,79.3184211 115.072105,80.6873684 L115.072105,82.4186842 C115.072105,82.7005263 115.152632,82.9018421 115.313684,83.0226316 L112.455,83.0226316 C112.293947,82.9018421 112.213421,82.6602632 112.213421,82.3784211 L112.213421,80.7678947 C112.213421,79.6807895 111.810789,79.3586842 110.683421,79.3586842 L109.314474,79.3586842 L109.314474,79.3184211 Z M109.314474,74.4063158 L109.314474,76.9428947 L110.925,76.9428947 C111.931579,76.9428947 112.455,76.4597368 112.455,75.6544737 C112.455,74.8894737 112.012105,74.4063158 110.925,74.4063158 L109.314474,74.4063158 Z" id="Shape" fill="#FC4C02"></path>
                    <polygon id="Shape" fill="#FC4C02" points="119.058158 83.0226316 119.058158 78.7547368 115.676053 72.0710526 118.655526 72.0710526 120.547895 76.0168421 122.520789 72.0710526 125.46 72.0710526 121.957105 78.8352632 121.957105 83.0628947 119.058158 83.0628947"></polygon>
                    <path d="M62.7702632,91.035 L62.7702632,89.8673684 C62.7702632,86.445 64.6626316,84.7136842 67.5213158,84.7136842 C70.2994737,84.7136842 72.2723684,86.4047368 72.2723684,89.8673684 L72.2723684,91.035 C72.2723684,94.4976316 70.3397368,96.1484211 67.5213158,96.1484211 C64.5015789,96.1081579 62.7702632,94.4976316 62.7702632,91.035 Z M69.3331579,90.8739474 L69.3331579,89.9881579 C69.3331579,88.1360526 68.7694737,87.21 67.5213158,87.21 C66.2328947,87.21 65.7094737,88.1763158 65.7094737,89.9478947 L65.7094737,90.8336842 C65.7094737,92.6455263 66.2328947,93.5715789 67.5213158,93.5715789 C68.7694737,93.6118421 69.3331579,92.7260526 69.3331579,90.8739474 Z" id="Shape" fill="#FC4C02"></path>
                    <polygon id="Shape" fill="#FC4C02" points="76.2986842 92.0415789 76.2986842 95.9068421 73.5607895 95.9068421 73.5607895 84.9552632 80.9692105 84.9552632 80.9692105 87.4515789 76.2986842 87.4515789 76.2986842 89.5855263 80.7678947 89.5855263 80.7678947 92.0818421 76.2986842 92.0818421"></polygon>
                    <path d="M84.9552632,91.1557895 L84.9552632,89.7868421 C84.9552632,86.4047368 86.8073684,84.7136842 89.7465789,84.7136842 C92.6052632,84.7136842 94.2963158,86.1228947 94.4573684,88.9815789 L94.4573684,89.3036842 L91.5181579,89.3036842 L91.5181579,89.1426316 C91.4376316,87.8542105 90.9544737,87.21 89.7868421,87.21 C88.4984211,87.21 87.9347368,88.0957895 87.9347368,89.9478947 L87.9347368,90.9142105 C87.9347368,92.6857895 88.5386842,93.5313158 89.7868421,93.5313158 C90.9544737,93.5313158 91.4376316,92.8468421 91.5584211,91.5181579 L91.5584211,91.3168421 L94.5378947,91.3168421 L94.5378947,91.5986842 C94.4171053,94.6989474 92.7260526,96.1081579 89.7063158,96.1081579 C86.6060526,96.1081579 84.9552632,94.5378947 84.9552632,91.1557895 Z" id="Shape" fill="#FC4C02"></path>
                    <path d="M95.3431579,91.035 L95.3431579,89.8673684 C95.3431579,86.445 97.2355263,84.7136842 100.094211,84.7136842 C102.872368,84.7136842 104.845263,86.4047368 104.845263,89.8673684 L104.845263,91.035 C104.845263,94.4976316 102.912632,96.1484211 100.094211,96.1484211 C97.0744737,96.1081579 95.3431579,94.4976316 95.3431579,91.035 Z M101.906053,90.8739474 L101.906053,89.9881579 C101.906053,88.1360526 101.342368,87.21 100.094211,87.21 C98.8057895,87.21 98.2823684,88.1763158 98.2823684,89.9478947 L98.2823684,90.8336842 C98.2823684,92.6455263 98.8057895,93.5715789 100.094211,93.5715789 C101.342368,93.6118421 101.906053,92.7260526 101.906053,90.8739474 Z" id="Shape" fill="#FC4C02"></path>
                    <polygon id="Shape" fill="#FC4C02" points="108.750789 89.3036842 108.750789 95.8665789 106.133684 95.8665789 106.133684 84.915 108.750789 84.915 112.777105 91.3973684 112.777105 84.915 115.394211 84.915 115.394211 95.8665789 112.857632 95.8665789"></polygon>
                    <path d="M123.487105,93.3702632 C123.245526,94.9002632 122.359737,96.1484211 120.427105,96.1484211 C117.890526,96.1484211 116.722895,94.6184211 116.722895,91.1155263 L116.722895,89.7868421 C116.722895,86.3644737 118.575,84.7136842 121.554474,84.7136842 C124.413158,84.7136842 125.943158,86.1631579 125.983421,88.8607895 L125.983421,88.9413158 L123.124737,88.9413158 C123.084474,87.8542105 122.641579,87.21 121.473947,87.21 C120.145263,87.21 119.581579,88.0555263 119.581579,89.9076316 L119.581579,90.9947368 C119.581579,93.0078947 120.145263,93.6923684 121.433684,93.6923684 C122.520789,93.6923684 123.084474,92.9273684 123.165,91.9610526 L121.232368,91.9610526 L121.232368,90.0686842 L125.943158,90.0686842 L125.943158,95.9471053 L123.728684,95.9471053 L123.487105,93.3702632 Z" id="Shape" fill="#FC4C02"></path>
                    <path d="M130.170789,92.2026316 L130.170789,95.8665789 L127.432895,95.8665789 L127.432895,84.915 L131.861842,84.915 C134.962105,84.915 136.17,86.2839474 136.17,88.3373684 C136.17,89.7465789 135.606316,90.5921053 134.599737,91.0752632 C135.485526,91.4376316 135.928421,92.2026316 135.928421,93.5715789 L135.928421,95.3028947 C135.928421,95.5847368 136.008947,95.7860526 136.17,95.9068421 L133.271053,95.9068421 C133.11,95.7860526 133.029474,95.5444737 133.029474,95.2626316 L133.029474,93.6521053 C133.029474,92.565 132.626842,92.2428947 131.499474,92.2428947 L130.170789,92.2428947 L130.170789,92.2026316 Z M130.170789,87.2905263 L130.170789,89.8271053 L131.781316,89.8271053 C132.787895,89.8271053 133.311316,89.3439474 133.311316,88.5386842 C133.311316,87.7736842 132.868421,87.2905263 131.781316,87.2905263 L130.170789,87.2905263 Z" id="Shape" fill="#FC4C02"></path>
                    <polygon id="Shape" fill="#FC4C02" points="145.269474 95.9068421 137.418158 95.9068421 137.418158 84.9552632 145.108421 84.9552632 145.108421 87.3307895 140.156053 87.3307895 140.156053 89.1828947 144.625263 89.1828947 144.625263 91.5986842 140.156053 91.5986842 140.156053 93.4507895 145.269474 93.4507895"></polygon>
                    <path d="M145.913684,92.1221053 L148.852895,92.1221053 L148.852895,92.1623684 C148.852895,93.2092105 149.376316,93.7728947 150.584211,93.7728947 C151.590789,93.7728947 152.033684,93.2897368 152.033684,92.6857895 C152.033684,91.8 150.906316,91.6389474 149.658158,91.3571053 C148.007368,90.9947368 146.155263,90.4713158 146.155263,88.0957895 C146.155263,86.1631579 147.564474,84.7539474 150.342632,84.7539474 C153.161053,84.7539474 154.610526,86.0423684 154.610526,88.3373684 L151.792105,88.3373684 C151.751842,87.4113158 151.308947,87.0086842 150.262105,87.0086842 C149.295789,87.0086842 148.933421,87.4515789 148.933421,88.0152632 C148.933421,88.8205263 149.980263,88.9815789 151.228421,89.2634211 C152.879211,89.6257895 154.771579,90.1894737 154.811842,92.6052632 C154.811842,94.7392105 153.322105,96.1886842 150.463421,96.1886842 C147.081316,96.1081579 145.953947,94.6989474 145.913684,92.1221053 Z" id="Shape" fill="#FC4C02"></path>
                    <path d="M155.295,92.1221053 L158.234211,92.1221053 L158.234211,92.1623684 C158.234211,93.2092105 158.757632,93.7728947 159.965526,93.7728947 C160.972105,93.7728947 161.415,93.2897368 161.415,92.6857895 C161.415,91.8 160.287632,91.6389474 159.039474,91.3571053 C157.388684,90.9947368 155.536579,90.4713158 155.536579,88.0957895 C155.536579,86.1631579 156.945789,84.7539474 159.723947,84.7539474 C162.542368,84.7539474 163.991842,86.0423684 163.991842,88.3373684 L161.173421,88.3373684 C161.133158,87.4113158 160.690263,87.0086842 159.643421,87.0086842 C158.677105,87.0086842 158.314737,87.4515789 158.314737,88.0152632 C158.314737,88.8205263 159.361579,88.9815789 160.609737,89.2634211 C162.260526,89.6257895 164.152895,90.1894737 164.193158,92.6052632 C164.193158,94.7392105 162.703421,96.1886842 159.844737,96.1886842 C156.462632,96.1081579 155.335263,94.6989474 155.295,92.1221053 Z" id="Shape" fill="#FC4C02"></path>
                </g>
            </g>
        </g>
    </g>
</svg>