<svg width="170" height="97" xmlns="http://www.w3.org/2000/svg"><g fill="none"><path fill="#000" d="M11.636.362l.08 55.966h7.167l-.08 10.509H.363V.362zm21.138 66.475H21.42V.362h11.354zM35.633.362h17.152c4.55 0 7.53 2.336 7.53 8.415v14.978c0 4.47-2.94 6.523-4.39 6.966 1.772.443 5.275 2.416 5.275 7.77v18.28c0 6.724-2.859 10.106-8.496 10.106H35.633V.362zm11.354 8.375v18.964h.805c.886 0 1.33-.523 1.33-1.691V10.348c0-1.168-.162-1.61-1.33-1.61h-.805zm0 27.178V58.18h1.087c1.168 0 1.329-.523 1.329-1.69V37.726c0-1.33-.282-1.772-1.329-1.772h-1.087v-.04zM75.05 66.837H63.697V.362h17.595c3.946 0 7.046 2.497 7.046 7.972v15.663c0 4.55-2.134 6.361-4.026 7.167 1.892.805 4.187 2.697 4.187 6.16v26.372c0 1.329.161 2.336.524 2.94v.281H77.829c-.443-.644-.725-1.53-.725-2.778V39.216c0-.966-.161-1.53-1.248-1.53h-.886v29.15h.08zm0-38.693h.886c.806 0 1.248-.523 1.248-1.53V10.267c0-1.087-.16-1.53-1.167-1.53h-.966v19.407zm29.956 26.735h-3.825l-.644 11.998h-9.744L96.31.362h14.294l6 66.475H105.61l-.604-11.958zm-1.892-35.03l-1.329 25.286h2.698l-1.37-25.285zm27.097 46.988h-11.354V.362h17.635c3.946 0 7.046 2.497 7.046 7.972v15.663c0 4.55-2.134 6.361-4.026 7.167 1.892.805 4.187 2.697 4.187 6.16v26.372c0 1.329.161 2.336.524 2.94v.281h-11.194c-.442-.644-.724-1.53-.724-2.778V39.216c0-.966-.161-1.53-1.248-1.53h-.886v29.15h.04zm0-38.693h.886c.805 0 1.248-.523 1.248-1.53V10.267c0-1.087-.161-1.53-1.168-1.53h-.966v19.407zm21.662 12.522L144.545.362h11.273l1.973 22.99 1.973-22.99h10.106l-6.764 40.304v26.17h-11.274v-26.17z"/><path fill="#000" d="M11.636.362l.08 55.966h7.167l-.08 10.509H.363V.362zm21.138 66.475H21.42V.362h11.354zM35.633.362h17.152c4.55 0 7.53 2.336 7.53 8.415v14.978c0 4.47-2.94 6.523-4.39 6.966 1.772.443 5.275 2.416 5.275 7.77v18.28c0 6.724-2.859 10.106-8.496 10.106H35.633V.362zm11.354 8.375v18.964h.805c.886 0 1.33-.523 1.33-1.691V10.348c0-1.168-.162-1.61-1.33-1.61h-.805zm0 27.178V58.18h1.087c1.168 0 1.329-.523 1.329-1.69V37.726c0-1.33-.282-1.772-1.329-1.772h-1.087v-.04zM75.05 66.837H63.697V.362h17.595c3.946 0 7.046 2.497 7.046 7.972v15.663c0 4.55-2.134 6.361-4.026 7.167 1.892.805 4.187 2.697 4.187 6.16v26.372c0 1.329.161 2.336.524 2.94v.281H77.829c-.443-.644-.725-1.53-.725-2.778V39.216c0-.966-.161-1.53-1.248-1.53h-.886v29.15h.08zm0-38.693h.886c.806 0 1.248-.523 1.248-1.53V10.267c0-1.087-.16-1.53-1.167-1.53h-.966v19.407zm29.956 26.735h-3.825l-.644 11.998h-9.744L96.31.362h14.294l6 66.475H105.61l-.604-11.958zm-1.892-35.03l-1.329 25.286h2.698l-1.37-25.285zm27.097 46.988h-11.354V.362h17.635c3.946 0 7.046 2.497 7.046 7.972v15.663c0 4.55-2.134 6.361-4.026 7.167 1.892.805 4.187 2.697 4.187 6.16v26.372c0 1.329.161 2.336.524 2.94v.281h-11.194c-.442-.644-.724-1.53-.724-2.778V39.216c0-.966-.161-1.53-1.248-1.53h-.886v29.15h.04zm0-38.693h.886c.805 0 1.248-.523 1.248-1.53V10.267c0-1.087-.161-1.53-1.168-1.53h-.966v19.407zm21.662 12.522L144.545.362h11.273l1.973 22.99 1.973-22.99h10.106l-6.764 40.304v26.17h-11.274v-26.17z"/><path fill="#F05129" d="M63.052 83.023V72.07h2.859v8.214h4.59v2.738h-7.449zm8.657 0V72.07h2.858v10.952zm4.509 0V72.07h4.268c2.98 0 4.268 1.007 4.268 2.859 0 1.288-.483 2.053-1.329 2.496 1.007.403 1.61 1.127 1.61 2.456 0 2.054-1.288 3.18-4.066 3.18h-4.75v-.04zm2.738-8.778v2.094h1.65c.967 0 1.45-.322 1.45-1.087 0-.685-.402-1.007-1.45-1.007h-1.65zm0 4.188v2.174h1.49c1.328 0 1.731-.363 1.731-1.087 0-.725-.443-1.087-1.731-1.087h-1.49zm9.904.885v3.664h-2.737V72.031h4.429c3.1 0 4.308 1.369 4.308 3.422 0 1.41-.564 2.255-1.57 2.738.886.362 1.328 1.127 1.328 2.496v1.732c0 .282.08.483.242.604h-2.859c-.16-.121-.241-.363-.241-.645v-1.61c0-1.087-.403-1.41-1.53-1.41h-1.37v-.04zm0-4.912v2.537h1.611c1.007 0 1.53-.483 1.53-1.289 0-.765-.443-1.248-1.53-1.248h-1.61zm13.489 6.684h-3.664l-.604 1.933h-2.818l3.825-10.952h2.858l3.866 10.952h-2.819l-.644-1.933zm-1.852-5.838l-1.087 3.583h2.214l-1.127-3.583zm8.817 4.066v3.664h-2.737V72.031h4.429c3.1 0 4.308 1.369 4.308 3.422 0 1.41-.564 2.255-1.57 2.738.885.362 1.328 1.127 1.328 2.496v1.732c0 .282.08.483.242.604h-2.859c-.161-.121-.242-.363-.242-.645v-1.61c0-1.087-.402-1.41-1.53-1.41h-1.369v-.04zm0-4.912v2.537h1.611c1.007 0 1.53-.483 1.53-1.289 0-.765-.443-1.248-1.53-1.248h-1.61zm9.744 8.617v-4.268l-3.382-6.684h2.98l1.892 3.946 1.973-3.946h2.939l-3.503 6.764v4.228h-2.899zM62.77 91.035v-1.168c0-3.422 1.893-5.153 4.751-5.153 2.778 0 4.751 1.69 4.751 5.153v1.168c0 3.463-1.932 5.113-4.75 5.113-3.02-.04-4.752-1.65-4.752-5.113zm6.563-.161v-.886c0-1.852-.564-2.778-1.812-2.778-1.288 0-1.812.966-1.812 2.738v.886c0 1.812.524 2.738 1.812 2.738 1.248.04 1.812-.846 1.812-2.698zm6.966 1.168v3.865H73.56V84.955h7.408v2.497H76.3v2.134h4.469v2.496h-4.47zm8.656-.886v-1.37c0-3.381 1.852-5.072 4.792-5.072 2.858 0 4.55 1.409 4.71 4.268v.322h-2.939v-.161c-.08-1.289-.564-1.933-1.731-1.933-1.289 0-1.852.886-1.852 2.738v.966c0 1.772.604 2.617 1.852 2.617 1.167 0 1.65-.684 1.771-2.013v-.201h2.98v.282c-.12 3.1-1.812 4.51-4.832 4.51-3.1 0-4.75-1.571-4.75-4.953zm10.388-.121v-1.168c0-3.422 1.893-5.153 4.751-5.153 2.778 0 4.751 1.69 4.751 5.153v1.168c0 3.463-1.932 5.113-4.75 5.113-3.02-.04-4.752-1.65-4.752-5.113zm6.563-.161v-.886c0-1.852-.564-2.778-1.812-2.778-1.288 0-1.812.966-1.812 2.738v.886c0 1.812.524 2.738 1.812 2.738 1.248.04 1.812-.846 1.812-2.698zm6.844-1.57v6.563h-2.616V84.915h2.617l4.026 6.482v-6.482h2.617v10.952h-2.536zm14.737 4.066c-.241 1.53-1.127 2.778-3.06 2.778-2.536 0-3.704-1.53-3.704-5.032v-1.33c0-3.422 1.852-5.072 4.831-5.072 2.86 0 4.39 1.45 4.43 4.147v.08h-2.86c-.04-1.087-.482-1.731-1.65-1.731-1.329 0-1.892.846-1.892 2.698v1.087c0 2.013.563 2.697 1.852 2.697 1.087 0 1.65-.765 1.731-1.73h-1.933v-1.893h4.711v5.878h-2.214l-.242-2.577zm6.683-1.167v3.664h-2.737V84.915h4.429c3.1 0 4.308 1.369 4.308 3.422 0 1.41-.564 2.255-1.57 2.738.886.363 1.328 1.128 1.328 2.497v1.73c0 .283.08.484.242.605h-2.899c-.161-.12-.242-.363-.242-.644v-1.61c0-1.088-.402-1.41-1.53-1.41h-1.328v-.04zm0-4.912v2.536h1.611c1.007 0 1.53-.483 1.53-1.288 0-.765-.443-1.248-1.53-1.248h-1.61zm15.1 8.616h-7.852V84.955h7.69v2.376h-4.952v1.852h4.47v2.416h-4.47v1.852h5.113zm.644-3.785h2.939v.04c0 1.047.523 1.61 1.731 1.61 1.007 0 1.45-.482 1.45-1.086 0-.886-1.128-1.047-2.376-1.329-1.65-.362-3.503-.886-3.503-3.261 0-1.933 1.41-3.342 4.188-3.342 2.818 0 4.268 1.288 4.268 3.583h-2.819c-.04-.926-.483-1.328-1.53-1.328-.966 0-1.329.443-1.329 1.006 0 .806 1.047.967 2.295 1.248 1.651.363 3.544.926 3.584 3.342 0 2.134-1.49 3.584-4.349 3.584-3.382-.08-4.51-1.49-4.55-4.067zm9.381 0h2.94v.04c0 1.047.523 1.61 1.73 1.61 1.007 0 1.45-.482 1.45-1.086 0-.886-1.127-1.047-2.376-1.329-1.65-.362-3.502-.886-3.502-3.261 0-1.933 1.409-3.342 4.187-3.342 2.818 0 4.268 1.288 4.268 3.583h-2.819c-.04-.926-.483-1.328-1.53-1.328-.966 0-1.328.443-1.328 1.006 0 .806 1.047.967 2.295 1.248 1.65.363 3.543.926 3.583 3.342 0 2.134-1.49 3.584-4.348 3.584-3.382-.08-4.51-1.49-4.55-4.067z"/></g></svg>