<?xml version="1.0" encoding="UTF-8"?>
<svg width="260px" height="27px" viewBox="0 0 260 27" version="1.1" xmlns="http://www.w3.org/2000/svg" xmlns:xlink="http://www.w3.org/1999/xlink">
    <title>BYTHEPEOPLE</title>
    <g id="Symbols" stroke="none" stroke-width="1" fill="none" fill-rule="evenodd">
        <path d="M9.96,26 C16.584,26 19.572,23.516 19.572,18.98 C19.572,15.524 17.808,13.688 14.388,12.932 C17.484,12.14 19.032,10.196 19.032,6.92 C19.032,2.78 16.332,0.512 9.888,0.512 L0.42,0.512 L0.42,26 L9.96,26 Z M9.96,11.996 L2.688,11.996 L2.688,2.456 L9.924,2.456 C14.784,2.456 16.764,4.076 16.764,7.1 C16.764,10.52 14.316,11.996 9.96,11.996 Z M9.744,23.984 L2.688,23.984 L2.688,13.904 L9.888,13.904 C14.604,13.904 17.232,15.344 17.232,18.836 C17.232,22.184 15.036,23.984 9.744,23.984 Z M31.78,26 L31.78,16.1 L41.284,0.512 L38.692,0.512 L30.664,13.796 L23.104,0.512 L20.512,0.512 L29.44,15.992 L29.44,26 L31.78,26 Z M62.8560001,26 L62.8560001,2.6 L71.1360001,2.6 L71.1360001,0.512 L52.5960001,0.512 L52.5960001,2.6 L60.5160001,2.6 L60.5160001,26 L62.8560001,26 Z M76.7200001,26 L76.7200001,14.372 L91.5160001,14.372 L91.5160001,26 L93.7840001,26 L93.7840001,0.512 L91.5160001,0.512 L91.5160001,12.176 L76.7200001,12.176 L76.7200001,0.512 L74.4160001,0.512 L74.4160001,26 L76.7200001,26 Z M117.116,26 L117.116,23.912 L101.456,23.912 L101.456,14.192 L114.308,14.192 L114.308,12.14 L101.456,12.14 L101.456,2.564 L116.576,2.564 L116.576,0.512 L99.2240001,0.512 L99.2240001,26 L117.116,26 Z M133.252,26 L133.252,17.252 L140.344,17.252 C146.716,17.288 149.812,14.012 149.812,8.792 C149.812,3.86 146.716,0.512 140.092,0.512 L130.984,0.512 L130.984,26 L133.252,26 Z M140.591213,15.2351615 L133.252,15.236 L133.252,2.528 L140.092,2.528 C145.132,2.528 147.508,5.084 147.508,8.792 C147.508,12.84575 144.98836,15.1737188 140.591213,15.2351615 Z M171.488,26 L171.488,23.912 L155.828,23.912 L155.828,14.192 L168.68,14.192 L168.68,12.14 L155.828,12.14 L155.828,2.564 L170.948,2.564 L170.948,0.512 L153.596,0.512 L153.596,26 L171.488,26 Z M184.056,26.504 C190.572,26.504 195.072,22.328 195.072,14.156 L195.072,12.716 C195.072,4.508 190.608,0.116 184.092,0.116 C177.324,0.116 173.148,4.652 173.148,12.716 L173.148,14.156 C173.148,22.364 177.18,26.504 184.056,26.504 Z M184.092,24.38 C178.62,24.38 175.524,20.708 175.524,14.084 L175.524,12.788 C175.524,6.128 178.62,2.204 184.092,2.204 C189.456,2.204 192.696,6.02 192.696,12.824 L192.696,14.084 C192.696,20.78 189.312,24.38 184.092,24.38 Z M201.664,26 L201.664,17.252 L208.756,17.252 C215.128,17.288 218.224,14.012 218.224,8.792 C218.224,3.86 215.128,0.512 208.504,0.512 L199.396,0.512 L199.396,26 L201.664,26 Z M209.003213,15.2351615 L201.664,15.236 L201.664,2.528 L208.504,2.528 C213.544,2.528 215.92,5.084 215.92,8.792 C215.92,12.84575 213.40036,15.1737188 209.003213,15.2351615 Z M238.1,26 L238.1,23.84 L224.312,23.84 L224.312,0.512 L222.008,0.512 L222.008,26 L238.1,26 Z M259.128,26 L259.128,23.912 L243.468,23.912 L243.468,14.192 L256.32,14.192 L256.32,12.14 L243.468,12.14 L243.468,2.564 L258.588,2.564 L258.588,0.512 L241.236,0.512 L241.236,26 L259.128,26 Z" id="BYTHEPEOPLE" fill="#000000" fill-rule="nonzero"></path>
    </g>
</svg>