<svg width="260" height="27" xmlns="http://www.w3.org/2000/svg">
  <path d="M9.96 26c6.624 0 9.612-2.484 9.612-7.02 0-3.456-1.764-5.292-5.184-6.048 3.096-.792 4.644-2.736 4.644-6.012 0-4.14-2.7-6.408-9.144-6.408H.42V26h9.54zm0-14.004H2.688v-9.54h7.236c4.86 0 6.84 1.62 6.84 4.644 0 3.42-2.448 4.896-6.804 4.896zm-.216 11.988H2.688v-10.08h7.2c4.716 0 7.344 1.44 7.344 4.932 0 3.348-2.196 5.148-7.488 5.148zM31.78 26v-9.9L41.284.512h-2.592l-8.028 13.284L23.104.512h-2.592l8.928 15.48V26h2.34zm31.076 0V2.6h8.28V.512h-18.54V2.6h7.92V26h2.34zm13.864 0V14.372h14.796V26h2.268V.512h-2.268v11.664H76.72V.512h-2.304V26h2.304zm40.396 0v-2.088h-15.66v-9.72h12.852V12.14h-12.852V2.564h15.12V.512H99.224V26h17.892zm16.136 0v-8.748h7.092c6.372.036 9.468-3.24 9.468-8.46 0-4.932-3.096-8.28-9.72-8.28h-9.108V26h2.268zm7.34-10.765l-7.34.001V2.528h6.84c5.04 0 7.416 2.556 7.416 6.264 0 4.054-2.52 6.382-6.917 6.443zM171.487 26v-2.088h-15.66v-9.72h12.852V12.14h-12.852V2.564h15.12V.512h-17.352V26h17.892zm12.568.504c6.516 0 11.016-4.176 11.016-12.348v-1.44c0-8.208-4.464-12.6-10.98-12.6-6.768 0-10.944 4.536-10.944 12.6v1.44c0 8.208 4.032 12.348 10.908 12.348zm.036-2.124c-5.472 0-8.568-3.672-8.568-10.296v-1.296c0-6.66 3.096-10.584 8.568-10.584 5.364 0 8.604 3.816 8.604 10.62v1.26c0 6.696-3.384 10.296-8.604 10.296zM201.664 26v-8.748h7.092c6.372.036 9.468-3.24 9.468-8.46 0-4.932-3.096-8.28-9.72-8.28h-9.108V26h2.268zm7.34-10.765l-7.34.001V2.528h6.84c5.04 0 7.416 2.556 7.416 6.264 0 4.054-2.52 6.382-6.917 6.443zM238.1 26v-2.16h-13.788V.512h-2.304V26H238.1zm21.028 0v-2.088h-15.66v-9.72h12.852V12.14h-12.852V2.564h15.12V.512h-17.352V26h17.892z" fill="#000" fill-rule="nonzero"/>
</svg>
