<?xml version="1.0" encoding="UTF-8"?>
<svg width="77px" height="93px" viewBox="0 0 77 93" version="1.1" xmlns="http://www.w3.org/2000/svg" xmlns:xlink="http://www.w3.org/1999/xlink">
    <!-- Generator: Sketch 51.2 (57519) - http://www.bohemiancoding.com/sketch -->
    <title>Shape</title>
    <desc>Created with Sketch.</desc>
    <defs></defs>
    <g id="Wireframes" stroke="none" stroke-width="1" fill="none" fill-rule="evenodd">
        <g id="CHC-Home" transform="translate(-945.000000, -965.000000)" fill="#808080" fill-rule="nonzero">
            <path d="M1000.95875,1022.37211 L1022,1052.43314 L1013.69424,1058 L992.652988,1027.93897 C978.25634,1035.17589 960.537389,1030.7224 951.124197,1017.36194 C940.603569,1002.33143 943.925873,981.734057 958.876238,971.157029 C973.826602,960.58 994.867856,963.920114 1004.83477,978.950629 C1014.80168,992.867771 1012.58681,1011.2384 1000.95875,1022.37211 Z M964.967127,979.507314 C954.4465,986.744229 952.231631,1001.21806 959.429955,1011.2384 C966.628279,1021.81543 981.024926,1024.04217 990.991836,1016.80526 C1001.51246,1009.56834 1003.72733,995.6512 996.529008,985.074171 C989.330684,974.497143 975.487754,972.2704 964.967127,979.507314 Z" id="Shape"></path>
        </g>
    </g>
</svg>