<?xml version="1.0" encoding="UTF-8"?>
<svg width="33px" height="56px" viewBox="0 0 33 56" version="1.1" xmlns="http://www.w3.org/2000/svg" xmlns:xlink="http://www.w3.org/1999/xlink">
    <!-- Generator: Sketch 54.1 (76490) - https://sketchapp.com -->
    <title>right arrow</title>
    <desc>Created with Sketch.</desc>
    <g id="Home-Page-Carousel" stroke="none" stroke-width="1" fill="none" fill-rule="evenodd">
        <g id="Carousel-Home-1200px" transform="translate(-1143.000000, -359.000000)" fill="#FFFFFF" stroke="#808080">
            <path d="M1175.23218,387.14282 C1175.23218,387.571392 1175.01789,388.053536 1174.69647,388.374965 L1149.73215,413.33928 C1149.41072,413.660709 1148.92858,413.874995 1148.50001,413.874995 C1148.07143,413.874995 1147.58929,413.660709 1147.26786,413.33928 L1144.58929,410.660706 C1144.26786,410.339277 1144.05357,409.910705 1144.05357,409.428561 C1144.05357,408.999989 1144.26786,408.517846 1144.58929,408.196417 L1165.64288,387.14282 L1144.58929,366.089224 C1144.26786,365.767795 1144.05357,365.285651 1144.05357,364.85708 C1144.05357,364.428508 1144.26786,363.946364 1144.58929,363.624935 L1147.26786,360.946361 C1147.58929,360.624932 1148.07143,360.410646 1148.50001,360.410646 C1148.92858,360.410646 1149.41072,360.624932 1149.73215,360.946361 L1174.69647,385.910676 C1175.01789,386.232105 1175.23218,386.714248 1175.23218,387.14282 Z" id="right-arrow"></path>
        </g>
    </g>
</svg>
