<?xml version="1.0" encoding="UTF-8"?>
<svg width="32px" height="26px" viewBox="0 0 32 26" version="1.1" xmlns="http://www.w3.org/2000/svg" xmlns:xlink="http://www.w3.org/1999/xlink">
    <!-- Generator: Sketch 50.2 (55047) - http://www.bohemiancoding.com/sketch -->
    <title>Shape</title>
    <desc>Created with Sketch.</desc>
    <defs></defs>
    <g id="Home---card-design" stroke="none" stroke-width="1" fill="none" fill-rule="evenodd">
        <g id="Volunteer-home-v3-card-full-page---Desktop-HD" transform="translate(-704.000000, -3322.000000)" fill="#00618E" fill-rule="nonzero">
            <g id="footer" transform="translate(0.000000, 3204.000000)">
                <g id="social-connect" transform="translate(659.000000, 16.000000)">
                    <g id="social-icons" transform="translate(45.000000, 39.000000)">
                        <g id="twitter-logo" transform="translate(0.000000, 63.000000)">
                            <path d="M32,3.07540372 C30.8222203,3.59728692 29.5584797,3.95122214 28.2306867,4.10923547 C29.5864536,3.29736486 30.6242592,2.0096242 31.1161293,0.479896209 C29.8443886,1.23174057 28.4406216,1.77767611 26.9448806,2.0736243 C25.747127,0.795870581 24.043438,0 22.1537617,0 C18.5284486,0 15.5889928,2.93945578 15.5889928,6.56278197 C15.5889928,7.07666516 15.6469798,7.57857447 15.75898,8.05852297 C10.3040168,7.7845356 5.46693704,5.17104113 2.22954613,1.19974052 C1.66363671,2.16758524 1.34170154,3.29532565 1.34170154,4.49914461 C1.34170154,6.7767431 2.50149428,8.7863673 4.26118343,9.96210778 C3.18536468,9.92613387 2.17354604,9.63018567 1.28774067,9.1382633 L1.28774067,9.22025036 C1.28774067,12.3996542 3.55132606,15.0531488 6.55274273,15.6570713 C6.00283334,15.8050454 5.42296311,15.8870325 4.8230667,15.8870325 C4.39917059,15.8870325 3.98923528,15.8450455 3.58729998,15.7650454 C4.42311834,18.374566 6.846704,20.27219 9.71818581,20.3242162 C7.47258737,22.0839054 4.64110562,23.129711 1.5657019,23.129711 C1.03581869,23.129711 0.513883193,23.0977109 0,23.0397239 C2.9054688,24.9054002 6.35483391,25.9931928 10.0621341,25.9931928 C22.1378662,25.9931928 28.7386613,15.9910327 28.7386613,7.31666555 L28.7166482,6.4668341 C30.0063758,5.54693717 31.1221424,4.39117057 32,3.07540372 Z" id="Shape"></path>
                        </g>
                    </g>
                </g>
            </g>
        </g>
    </g>
</svg>