<?xml version="1.0" encoding="UTF-8"?>
<svg width="27px" height="32px" viewBox="0 0 27 32" version="1.1" xmlns="http://www.w3.org/2000/svg" xmlns:xlink="http://www.w3.org/1999/xlink">
    <!-- Generator: Sketch 50.2 (55047) - http://www.bohemiancoding.com/sketch -->
    <title>Shape</title>
    <desc>Created with Sketch.</desc>
    <defs></defs>
    <g id="Home---card-design" stroke="none" stroke-width="1" fill="none" fill-rule="evenodd">
        <g id="Volunteer-home-v3-card-full-page---Desktop-HD" transform="translate(-707.000000, -3386.000000)" fill="#00618E" fill-rule="nonzero">
            <g id="footer" transform="translate(0.000000, 3204.000000)">
                <g id="social-connect" transform="translate(659.000000, 16.000000)">
                    <g id="social-icons" transform="translate(45.000000, 39.000000)">
                        <g id="youtube" transform="translate(3.000000, 127.000000)">
                            <path d="M3.536,0 L5.456,0 L6.77333333,4.936 L7.99466667,0 L9.93333333,0 L7.71333333,7.34 L7.71333333,12.3493333 L5.80533333,12.3493333 L5.80533333,7.34 L3.536,0 Z M12.328,3.164 C10.836,3.164 9.84666667,4.15066667 9.84666667,5.61066667 L9.84666667,10.076 C9.84666667,11.6813333 10.6853333,12.5173333 12.328,12.5173333 C13.6906667,12.5173333 14.7626667,11.6066667 14.7626667,10.076 L14.7626667,5.61066667 C14.7626667,4.18533333 13.7,3.164 12.328,3.164 Z M13.036,10 C13.036,10.496 12.7826667,10.8613333 12.3266667,10.8613333 C11.8586667,10.8613333 11.588,10.4786667 11.588,10 L11.588,5.76133333 C11.588,5.26266667 11.8173333,4.89333333 12.2933333,4.89333333 C12.8133333,4.89333333 13.036,5.252 13.036,5.76133333 L13.036,10 Z M19.3413333,3.24 L19.3413333,10.1546667 C19.1346667,10.4133333 18.6746667,10.8373333 18.3453333,10.8373333 C17.984,10.8373333 17.8946667,10.5893333 17.8946667,10.224 L17.8946667,3.24 L16.2013333,3.24 L16.2013333,10.8533333 C16.2013333,11.7533333 16.476,12.48 17.384,12.48 C17.896,12.48 18.608,12.2133333 19.3413333,11.3426667 L19.3413333,12.348 L21.0346667,12.348 L21.0346667,3.24 L19.3413333,3.24 Z M22.2786667,21.7173333 C21.6813333,21.7173333 21.5573333,22.1373333 21.5573333,22.7346667 L21.5573333,23.6133333 L22.9826773,23.6133333 L22.9826667,22.7333333 C22.984,22.1466667 22.86,21.7173333 22.2786667,21.7173333 Z M16.008,21.7706667 C15.896,21.828 15.7853333,21.916 15.6746667,22.0346667 L15.6746667,27.4413333 C15.8066667,27.5826667 15.9333333,27.684 16.0573333,27.7466667 C16.32,27.88 16.704,27.8893333 16.8826667,27.6573333 C16.976,27.5346667 17.0226667,27.336 17.0226667,27.0586667 L17.0226667,22.58 C17.0226667,22.2866667 16.9653333,22.0653333 16.8506667,21.9133333 C16.6546667,21.656 16.2906667,21.628 16.008,21.7706667 Z M22.444,14.844 C18.972,14.608 7.68933333,14.608 4.22266667,14.844 C0.470666667,15.1 0.028,17.3666667 -1.77635684e-15,23.3333333 C0.028,29.2893333 0.466666667,31.5666667 4.22266667,31.8226667 C7.68933333,32.0586667 18.972,32.0586667 22.444,31.8226667 C26.196,31.5666667 26.6386667,29.2986667 26.6666667,23.3333333 C26.6386667,17.3773333 26.2,15.1 22.444,14.844 Z M6.012,29.092 L4.19466667,29.092 L4.19466667,19.0386667 L2.31466667,19.0386667 L2.31466667,17.332 L7.89066667,17.332 L7.89066667,19.0386667 L6.01066667,19.0386667 L6.01066667,29.092 L6.012,29.092 Z M12.4733333,29.092 L10.86,29.092 L10.86,28.1346667 C10.5626667,28.488 10.2533333,28.7573333 9.932,28.9413333 C9.06266667,29.44 7.86933333,29.428 7.86933333,27.668 L7.86933333,20.4173333 L9.48133333,20.4173333 L9.48133333,27.068 C9.48133333,27.4173333 9.56533333,27.652 9.91066667,27.652 C10.2253333,27.652 10.6626667,27.248 10.8586667,27.0026667 L10.8586667,20.4173333 L12.472,20.4173333 L12.472,29.092 L12.4733333,29.092 Z M18.6826667,27.2946667 C18.6826667,28.368 18.2813333,29.2026667 17.208,29.2026667 C16.6173333,29.2026667 16.1253333,28.9866667 15.676,28.4253333 L15.676,29.092 L14.048,29.092 L14.048,17.332 L15.676,17.332 L15.676,21.1186667 C16.04,20.6746667 16.5346667,20.308 17.1106667,20.308 C18.292,20.308 18.684,21.3066667 18.684,22.4826667 L18.684,27.2946667 L18.6826667,27.2946667 Z M24.644,24.9586667 L21.5586667,24.9586667 L21.5586667,26.596 C21.5586667,27.2466667 21.6146667,27.8093333 22.2626667,27.8093333 C22.944,27.8093333 22.984,27.3506667 22.984,26.596 L22.984,25.9933333 L24.644,25.9933333 L24.644,26.6453333 C24.644,28.316 23.9266667,29.3293333 22.2266667,29.3293333 C20.6866667,29.3293333 19.8986667,28.2066667 19.8986667,26.6453333 L19.8986667,22.7506667 C19.8986667,21.2453333 20.8933333,20.1986667 22.348,20.1986667 C23.896,20.1986667 24.6426667,21.1826667 24.6426667,22.7506667 L24.6426667,24.9586667 L24.644,24.9586667 Z" id="Shape"></path>
                        </g>
                    </g>
                </g>
            </g>
        </g>
    </g>
</svg>